<svg width="249" height="135" viewBox="0 0 249 135" fill="none" xmlns="http://www.w3.org/2000/svg">
<path d="M117.45 104.86H97.67V132H57.42V104.86H8.42999L0.609985 81.3999C7.20332 69.4399 15.79 56.0999 26.37 41.3799C36.95 26.6599 47.3 13.1666 57.42 0.899902H97.67V78.1799H117.45V104.86ZM58.11 37.4699C49.37 50.0432 40.5533 63.6132 31.66 78.1799H58.11V37.4699Z" fill="#0A3C5D"/>
<path d="M248.153 0.899902V74.2699C248.153 89.4499 246.466 101.333 243.093 109.92C239.873 118.353 233.74 124.563 224.693 128.55C215.646 132.537 202.46 134.53 185.133 134.53C172.406 134.53 161.673 133.227 152.933 130.62C144.193 127.86 137.216 122.723 132.003 115.21C126.943 107.697 124.413 97.1166 124.413 83.4699V0.899902H165.813V74.7299C165.813 82.8566 166.196 89.0666 166.963 93.3599C167.883 97.4999 169.876 100.72 172.943 103.02C176.01 105.167 180.686 106.24 186.973 106.24C190.806 106.24 194.41 105.857 197.783 105.09C201.156 104.323 203.456 103.173 204.683 101.64C206.063 99.7999 206.753 93.1299 206.753 81.6299V0.899902H248.153Z" fill="#0A3C5D"/>
</svg>
