<?xml version="1.0" standalone="no"?>
<!DOCTYPE svg PUBLIC "-//W3C//DTD SVG 20010904//EN"
 "http://www.w3.org/TR/2001/REC-SVG-20010904/DTD/svg10.dtd">
<svg version="1.0" xmlns="http://www.w3.org/2000/svg"
 width="64.000000pt" height="64.000000pt" viewBox="0 0 64.000000 64.000000"
 preserveAspectRatio="xMidYMid meet">
<metadata>
Created by potrace 1.12, written by Peter Selinger 2001-2015
</metadata>
<g transform="translate(-0.000000,64.000000) scale(0.100000,-0.100000)"
fill="#000000" stroke="none">
<path d="M20 620 c-19 -19 -20 -33 -20 -300 0 -267 1 -281 20 -300 19 -19 33
-20 300 -20 267 0 281 1 300 20 19 19 20 33 20 300 0 267 -1 281 -20 300 -19
19 -33 20 -300 20 -267 0 -281 -1 -300 -20z m568 -32 c17 -17 17 -519 0 -536
-17 -17 -519 -17 -536 0 -17 17 -17 519 0 536 17 17 519 17 536 0z"/>
<path d="M187 514 c-4 -4 -7 -18 -7 -30 0 -17 -7 -23 -27 -26 -37 -4 -37 -32
-1 -36 21 -3 27 -9 30 -30 2 -16 9 -27 18 -27 9 0 16 11 18 27 3 21 9 27 30
30 16 2 27 9 27 18 0 9 -11 16 -27 18 -20 2 -28 9 -30 29 -3 27 -18 39 -31 27z"/>
<path d="M365 450 c-14 -22 12 -31 81 -28 53 2 69 6 69 18 0 12 -16 16 -72 18
-45 2 -74 -1 -78 -8z"/>
<path d="M145 249 c-4 -5 1 -19 11 -30 16 -18 16 -20 -1 -39 -14 -16 -16 -23
-7 -32 9 -9 16 -7 32 7 19 18 21 18 40 0 16 -14 23 -16 32 -7 9 9 7 16 -7 32
-18 19 -18 21 0 40 14 16 16 23 7 32 -9 9 -16 7 -32 -7 -19 -17 -21 -17 -38
-2 -22 20 -28 21 -37 6z"/>
<path d="M365 250 c-14 -22 12 -31 81 -28 53 2 69 6 69 18 0 12 -16 16 -72 18
-45 2 -74 -1 -78 -8z"/>
<path d="M365 170 c-14 -22 12 -31 81 -28 53 2 69 6 69 18 0 12 -16 16 -72 18
-45 2 -74 -1 -78 -8z"/>
</g>
</svg>
