<?xml version="1.0" encoding="UTF-8" standalone="no"?>
<svg
   xmlns:dc="http://purl.org/dc/elements/1.1/"
   xmlns:cc="http://creativecommons.org/ns#"
   xmlns:rdf="http://www.w3.org/1999/02/22-rdf-syntax-ns#"
   xmlns:svg="http://www.w3.org/2000/svg"
   xmlns="http://www.w3.org/2000/svg"
   xmlns:sodipodi="http://sodipodi.sourceforge.net/DTD/sodipodi-0.dtd"
   xmlns:inkscape="http://www.inkscape.org/namespaces/inkscape"
   version="1.1"
   id="Layer_1"
   x="0px"
   y="0px"
   viewBox="0 0 24 24"
   enable-background="new 0 0 24 24"
   xml:space="preserve"
   sodipodi:docname="gold.svg"
   inkscape:version="1.0.1 (3bc2e813f5, 2020-09-07)"><metadata
   id="metadata66"><rdf:RDF><cc:Work
       rdf:about=""><dc:format>image/svg+xml</dc:format><dc:type
         rdf:resource="http://purl.org/dc/dcmitype/StillImage" /></cc:Work></rdf:RDF></metadata><defs
   id="defs64" /><sodipodi:namedview
   pagecolor="#ffffff"
   bordercolor="#666666"
   borderopacity="1"
   objecttolerance="10"
   gridtolerance="10"
   guidetolerance="10"
   inkscape:pageopacity="0"
   inkscape:pageshadow="2"
   inkscape:window-width="1920"
   inkscape:window-height="1017"
   id="namedview62"
   showgrid="false"
   inkscape:zoom="35.416667"
   inkscape:cx="12"
   inkscape:cy="14.258824"
   inkscape:window-x="-8"
   inkscape:window-y="-8"
   inkscape:window-maximized="1"
   inkscape:current-layer="Layer_1" />
<g
   id="g29">
	<path
   fill="#303C42"
   d="M23.5,15.9194336l-1.0698242-3.2099609C22.0893555,11.6870117,21.1362305,11,20.0585938,11H18.999939   L19,10.9995117c0-1.0488281-0.1679688-2.0849609-0.5-3.0800781l-1.0698242-3.2099609   C17.0893555,3.6870117,16.1362305,3,15.0585938,3H8.9414063c-1.0776367,0-2.0307617,0.6870117-2.371582,1.7094727L5.5,7.9194336   C5.1679688,8.9145508,5,9.9506836,5,11H3.9414063c-1.0776367,0-2.0307617,0.6870117-2.371582,1.7094727L0.5,15.9194336   C0.1679688,16.9145508,0,17.9506836,0,19c0,1.1030273,0.8969727,2,2,2h10h10c1.1030273,0,2-0.8974609,2-2.0004883   C24,17.9506836,23.8320313,16.9145508,23.5,15.9194336z"
   id="path2" />
	<path
   fill="#FFCB29"
   d="M2,20c-0.5512695,0-1-0.4487305-1-1.0004883c0-0.940918,0.1508789-1.8710938,0.4482422-2.7636719   l1.0698242-3.2099609C2.7231445,12.4121094,3.2949219,12,3.9414063,12h6.1171875   c0.6464844,0,1.2182617,0.4121094,1.4233398,1.0258789l1.0698242,3.2099609C12.8491211,17.128418,13,18.0585938,13,19   c0,0.5512695-0.4487305,1-1,1H2z"
   id="path4" />
	<path
   opacity="0.2"
   fill="#FFFFFF"
   d="M3,18.9995117c0-0.940918,0.1005859-1.8710938,0.2988281-2.7636719l0.7131958-3.2099609   C4.1487427,12.4121094,4.5299683,12,4.9609375,12H3.9414063c-0.6464844,0-1.2182617,0.4121094-1.4233398,1.0258789   l-1.0698242,3.2099609C1.1508789,17.128418,1,18.0585938,1,18.9995117C1,19.5512695,1.4487305,20,2,20h1.666687   C3.2991333,20,3,19.5512695,3,18.9995117z"
   id="path6" />
	<path
   opacity="0.1"
   fill="#010101"
   d="M12.5517578,16.2358398l-1.0698242-3.2099609   C11.2768555,12.4121094,10.7050781,12,10.0585938,12H9.0390625c0.4309692,0,0.8121948,0.4121094,0.9489136,1.0258789   l0.7131958,3.2099609C10.8994141,17.128418,11,18.0585938,11,19c0,0.5512695-0.2991333,1-0.666687,1H12   c0.5512695,0,1-0.4487305,1-1C13,18.0585938,12.8491211,17.128418,12.5517578,16.2358398z"
   id="path8" />
	<path
   fill="#FFCB29"
   d="M22,20h-8.2783203C13.8939819,19.7045288,14,19.3656006,14,18.9995117   c0-1.0488281-0.1679688-2.0849609-0.5-3.0800781l-0.9712524-2.9141235C12.7401733,12.4039307,13.3028564,12,13.9414063,12   h6.1171875c0.6464844,0,1.2182617,0.4121094,1.4233398,1.0258789l1.0698242,3.2099609C22.8491211,17.128418,23,18.0585938,23,19   C23,19.5512695,22.5512695,20,22,20z"
   id="path10" />
	<path
   opacity="0.1"
   fill="#010101"
   d="M22.5517578,16.2358398l-1.0698242-3.2099609   C21.2768555,12.4121094,20.7050781,12,20.0585938,12h-0.8764038c0.3995361,0,0.7529297,0.4121094,0.8796387,1.0258789   l0.6611328,3.2099609C20.9067383,17.128418,21,18.0585938,21,19c0,0.5512695-0.2773438,1-0.617981,1H22   c0.5512695,0,1-0.4487305,1-1C23,18.0585938,22.8491211,17.128418,22.5517578,16.2358398z"
   id="path12" />
	<path
   opacity="0.1"
   fill="#010101"
   d="M14.9901123,16.5889282l-0.8441162-3.2099609   c-0.1330566-0.5046387-0.7080078-0.8687134-1.1923828-0.9837036c-0.1838379,0.1654053-0.3388062,0.3652954-0.4248657,0.6100464   L13.5,15.9194336c0.3320313,0.9951172,0.5,2.03125,0.5,3.0800781C14,19.3656006,13.8939819,19.7045288,13.7216797,20h1.4224854   c0.1199341-0.1754761,0.199585-0.3972168,0.199585-0.6469116C15.34375,18.4116821,15.2247314,17.4815063,14.9901123,16.5889282z"
   id="path14" />
	<path
   fill="#FFCB29"
   d="M6,10.9995117c0-0.940918,0.1508789-1.8710938,0.4482422-2.7636719l1.0698242-3.2099609   C7.7231445,4.4121094,8.2949219,4,8.9414063,4h6.1171875c0.6464844,0,1.2182617,0.4121094,1.4233398,1.0258789l1.0698242,3.2099609   C17.8491211,9.128418,18,10.0585938,18,11h-4.0585938C13.1691284,11,12.4650879,11.3568726,12,11.9333496   C11.5351563,11.3569336,10.8309937,11,10.0585938,11H6.0001221L6,10.9995117z"
   id="path16" />
	<path
   opacity="0.2"
   fill="#FFFFFF"
   d="M7.8361816,8.2358398l0.8023682-3.2099609C8.7923584,4.4121094,9.2211914,4,9.7060547,4   H8.9414063C8.2949219,4,7.7231445,4.4121094,7.5180664,5.0258789L6.4482422,8.2358398   C6.1508789,9.128418,6,10.0585938,6,10.9995117L6.0001221,11h1.5L7.5,10.9995117   C7.5,10.0585938,7.6131592,9.128418,7.8361816,8.2358398z"
   id="path18" />
	<path
   opacity="0.1"
   fill="#010101"
   d="M17.5517578,8.2358398l-1.0698242-3.2099609C16.2768555,4.4121094,15.7050781,4,15.0585938,4   h-0.7646484c0.4848633,0,0.9136963,0.4121094,1.0675049,1.0258789l0.8023682,3.2099609   C16.3868408,9.128418,16.5,10.0585938,16.5,11H18C18,10.0585938,17.8491211,9.128418,17.5517578,8.2358398z"
   id="path20" />
	<linearGradient
   id="SVGID_1_"
   gradientUnits="userSpaceOnUse"
   x1="3.079612"
   y1="9.4325514"
   x2="24.097681"
   y2="19.2334385">
		<stop
   offset="0"
   style="stop-color:#FFFFFF;stop-opacity:0.2"
   id="stop22" />
		<stop
   offset="1"
   style="stop-color:#FFFFFF;stop-opacity:0"
   id="stop24" />
	</linearGradient>
	<path
   fill="url(#SVGID_1_)"
   d="M23.5,15.9194336l-1.0698242-3.2099609C22.0893555,11.6870117,21.1362305,11,20.0585938,11   H18.999939L19,10.9995117c0-1.0488281-0.1679688-2.0849609-0.5-3.0800781l-1.0698242-3.2099609   C17.0893555,3.6870117,16.1362305,3,15.0585938,3H8.9414063c-1.0776367,0-2.0307617,0.6870117-2.371582,1.7094727L5.5,7.9194336   C5.1679688,8.9145508,5,9.9506836,5,11H3.9414063c-1.0776367,0-2.0307617,0.6870117-2.371582,1.7094727L0.5,15.9194336   C0.1679688,16.9145508,0,17.9506836,0,19c0,1.1030273,0.8969727,2,2,2h10h10c1.1030273,0,2-0.8974609,2-2.0004883   C24,17.9506836,23.8320313,16.9145508,23.5,15.9194336z"
   id="path27" />
</g>
<g
   id="g31">
</g>
<g
   id="g33">
</g>
<g
   id="g35">
</g>
<g
   id="g37">
</g>
<g
   id="g39">
</g>
<g
   id="g41">
</g>
<g
   id="g43">
</g>
<g
   id="g45">
</g>
<g
   id="g47">
</g>
<g
   id="g49">
</g>
<g
   id="g51">
</g>
<g
   id="g53">
</g>
<g
   id="g55">
</g>
<g
   id="g57">
</g>
<g
   id="g59">
</g>
<path
   style="fill:#2bcfb5;stroke-width:0.0282353"
   d="m 3.9825888,19.870588 c 0.031432,-0.066 0.8683934,-1.860706 1.8599144,-3.988235 l 1.8027654,-3.868235 h 0.77266 c 0.7246498,0 0.7805545,0.0037 0.8997185,0.05906 0.2624857,0.122017 0.4790154,0.388158 0.5907882,0.726148 0.031791,0.09613 0.2201997,0.911955 0.4186847,1.812935 l 0.360883,1.638146 -0.8720132,1.870089 -0.8720129,1.870089 H 6.4347084 3.9254398 Z"
   id="path891" /><path
   style="fill:#2bcfb5;stroke-width:0.0282353"
   d="M 3.4870588,19.951265 C 3.3556497,19.893689 3.2200857,19.739909 3.1234723,19.538824 l -0.088178,-0.18353 0.00198,-0.677647 c 0.00315,-1.08017 0.05995,-1.463383 0.5357054,-3.614118 L 3.897757,13.595294 4.2424045,12.854596 c 0.3384318,-0.72734 0.3466951,-0.741598 0.4581803,-0.790588 0.1026362,-0.0451 0.2486266,-0.05071 1.5210809,-0.05842 0.9659517,-0.0059 1.4044416,6.91e-4 1.3976471,0.02085 C 7.6138628,12.042598 6.7771765,13.84107 5.76,16.023048 L 3.9105882,19.990285 3.7411765,19.989331 C 3.648,19.988806 3.5336471,19.971677 3.4870588,19.951264 Z"
   id="path893" /><path
   style="fill:#2bcfb5;stroke-width:0.0282353"
   d="m 8.9908148,19.941176 c 0.089073,-0.244065 1.6995762,-3.639278 1.7138902,-3.61317 0.02977,0.05431 0.159162,0.841332 0.212211,1.290818 0.03137,0.265827 0.04905,0.637166 0.05041,1.058823 0.002,0.613514 -0.0015,0.658226 -0.06238,0.808859 -0.03546,0.0877 -0.114537,0.216325 -0.175728,0.285843 -0.188906,0.214607 -0.206057,0.218239 -1.0306187,0.218239 -0.6792962,0 -0.7246568,-0.0032 -0.7077795,-0.04941 z"
   id="path895" /><path
   style="fill:#2bcfb5;stroke-width:0.0282353"
   d="m 9.2258824,19.969978 c -0.120353,-0.0055 -0.2188236,-0.01574 -0.2188236,-0.02276 0,-0.01968 0.4385998,-0.967705 0.7963648,-1.721336 0.7245204,-1.5262 0.8834134,-1.845774 0.9014434,-1.813036 0.02123,0.03855 0.146248,0.797717 0.198594,1.205978 0.01892,0.147529 0.03514,0.604941 0.03605,1.01647 l 0.0017,0.748235 -0.07864,0.149249 c -0.104701,0.19872 -0.257511,0.363718 -0.367932,0.39728 -0.09853,0.02995 -0.9207992,0.05582 -1.2687256,0.03992 z"
   id="path897" /><path
   style="fill:#2bcfb5;stroke-width:0.0282353"
   d="M 3.7129412,19.97152 C 3.6508232,19.96592 3.5710914,19.95495 3.5357587,19.94705 3.4232499,19.92189 3.2455354,19.732034 3.1419497,19.52634 l -0.1003402,-0.199249 0.015911,-0.776488 c 0.022557,-1.100797 0.053896,-1.303197 0.5617901,-3.628252 l 0.28372,-1.298824 0.3226284,-0.692809 c 0.1774456,-0.381045 0.3510693,-0.728478 0.3858304,-0.772072 0.043082,-0.05403 0.103372,-0.08701 0.1893855,-0.103608 0.069401,-0.01339 0.7278959,-0.0249 1.4633221,-0.02557 1.0592044,-9.74e-4 1.3340431,0.0061 1.3222469,0.03406 -0.00819,0.01941 -0.5419027,1.166118 -1.1860277,2.548236 -0.6441248,1.382117 -1.4700159,3.154588 -1.8353136,3.938823 -0.3713558,0.797242 -0.6807199,1.427018 -0.7016991,1.428458 -0.020637,0.0014 -0.088345,-0.002 -0.1504627,-0.0075 z"
   id="path899" /><path
   style="fill:#2bcfb5;stroke-width:0.0282353"
   d="M 3.6564706,19.964848 C 3.5788235,19.954532 3.4887865,19.931358 3.4563882,19.91335 3.3539268,19.8564 3.2018342,19.666868 3.1203131,19.494547 l -0.078723,-0.166406 0.015921,-0.777012 c 0.022566,-1.101319 0.055301,-1.31302 0.5611119,-3.628776 l 0.2836912,-1.298824 0.3223312,-0.691987 c 0.1772822,-0.380593 0.351067,-0.728026 0.3861886,-0.772072 0.043748,-0.05487 0.1035938,-0.08775 0.1900409,-0.10443 0.069401,-0.01339 0.7278959,-0.0249 1.4633221,-0.02557 1.0590669,-9.74e-4 1.3340973,0.0061 1.322514,0.03406 -0.015852,0.03826 -1.4093356,3.031063 -2.8101005,6.035295 -0.6751091,1.447911 -0.8873213,1.878463 -0.9272215,1.881213 -0.028458,0.002 -0.1152718,-0.0049 -0.1929184,-0.01519 z"
   id="path901" /><path
   style="fill:#2bcfb5;stroke-width:0.0282353"
   d="m 3.6564706,19.964848 c -0.077647,-0.01032 -0.1676841,-0.03349 -0.2000824,-0.0515 -0.099873,-0.05551 -0.2530651,-0.244045 -0.3359479,-0.413452 l -0.079034,-0.161539 0.016013,-0.782121 c 0.022591,-1.103396 0.062613,-1.361342 0.5747755,-3.704473 l 0.2684683,-1.228236 0.3240057,-0.693052 c 0.1782032,-0.381178 0.3523596,-0.728611 0.3870143,-0.772072 0.042885,-0.05378 0.1033083,-0.0868 0.1891921,-0.103365 0.069401,-0.01339 0.7278959,-0.0249 1.4633221,-0.02557 1.0589088,-9.74e-4 1.3341594,0.0061 1.322821,0.03406 -0.016446,0.04054 -1.7284117,3.718114 -2.8949567,6.218824 -0.6111979,1.310218 -0.8020801,1.694926 -0.8423481,1.697684 -0.028637,0.002 -0.115596,-0.0049 -0.193243,-0.01519 z"
   id="path903" /><path
   style="fill:#2bcfb5;stroke-width:0.0282353"
   d="m 3.6847059,19.972134 c -0.046588,-0.0061 -0.1136145,-0.01752 -0.1489472,-0.0253 -0.1032264,-0.02274 -0.2827602,-0.204685 -0.388444,-0.393666 l -0.097903,-0.175066 v -0.579069 c 0,-1.184953 0.067333,-1.631481 0.6205594,-4.11533 L 3.918681,13.567059 4.2333046,12.90271 C 4.4063476,12.537318 4.57645,12.202592 4.61131,12.158873 c 0.043265,-0.05426 0.103432,-0.08722 0.1895653,-0.103833 0.069401,-0.01339 0.7278959,-0.0249 1.4633221,-0.02557 1.0587374,-9.74e-4 1.3342269,0.0061 1.3231541,0.03406 C 7.573143,12.09939 5.1375023,17.332005 4.5940869,18.494118 4.4306985,18.843529 4.2079227,19.32 4.0990296,19.552941 3.8863345,20.007933 3.8944357,19.999736 3.6847059,19.972134 Z"
   id="path905" /><path
   style="fill:#2bcfb5;stroke-width:0.0282353"
   d=""
   id="path907" /><path
   style="fill:#2bcfb5;stroke-width:0.0282353"
   d="m 3.9529412,19.98107 c 0,-0.0054 0.8317631,-1.793826 1.8483625,-3.974271 l 1.8483626,-3.964446 h 0.7845786 c 0.8946048,0 0.8998151,0.0011 1.1423873,0.242707 0.2721679,0.271077 0.2893985,0.326862 0.7743538,2.506998 l 0.322738,1.450883 -0.869896,1.866764 -0.8698966,1.866766 -2.4904951,0.0072 c -1.3697723,0.004 -2.4904951,0.0028 -2.4904951,-0.0026 z"
   id="path909" /><path
   style="fill:#2bcfb5;stroke-width:0.0282353"
   d="m 3.9609861,19.955448 c 0.00781,-0.0195 0.677865,-1.458507 1.4890052,-3.197801 0.8111402,-1.739294 1.6373132,-3.511765 1.8359397,-3.938823 l 0.3611393,-0.776471 h 0.7858766 c 0.902188,0 0.9033871,2.65e-4 1.1529355,0.254286 0.2667456,0.271526 0.3013132,0.386773 0.8172076,2.724537 l 0.271045,1.228236 -0.8700757,1.863529 -0.8700757,1.86353 -2.4936011,0.0072 c -1.9916619,0.0058 -2.4907419,8.5e-5 -2.4793964,-0.02823 z"
   id="path911" /><path
   style="fill:#2bcfb5;stroke-width:0.0282353"
   d="m 3.9606905,19.955448 c 0.00765,-0.0195 0.3574292,-0.772389 0.7772868,-1.673095 C 5.157835,17.381647 5.983934,15.609176 6.573753,14.343529 l 1.0723982,-2.301176 0.7280225,-0.0075 c 0.8963193,-0.0093 0.9522026,0.0022 1.1948115,0.244767 0.2849565,0.284956 0.3065949,0.356025 0.8347398,2.741602 l 0.27192,1.228236 -0.870325,1.863529 -0.8703253,1.86353 -2.4941067,0.0072 c -1.9919425,0.0058 -2.4913062,8.5e-5 -2.4801975,-0.02823 z"
   id="path913" /><path
   style="fill:#2bcfb5;stroke-width:0.0282353"
   d="m 3.9529412,19.977569 c 0,-0.0073 0.8307981,-1.795751 1.846218,-3.974271 l 1.8462181,-3.960945 0.7284096,-0.0075 c 0.8958661,-0.0093 0.958547,0.0034 1.1971084,0.242525 0.2833906,0.284039 0.302485,0.346064 0.8055687,2.616786 l 0.300268,1.355294 -0.870131,1.863529 -0.8701304,1.86353 -2.4917647,0.0072 c -1.3704706,0.004 -2.4917647,0.0012 -2.4917647,-0.0061 z"
   id="path915" /><path
   style="fill:#2bcfb5;stroke-width:0.0282353"
   d="m 3.9529412,19.976817 c 0,-0.01254 0.5636169,-1.224995 2.88775,-6.212111 l 0.8026636,-1.722353 0.7294207,-0.0075 c 0.8969961,-0.0093 0.9595166,0.0034 1.1981198,0.242525 0.2840073,0.284657 0.2950157,0.320185 0.7932907,2.560315 l 0.314021,1.411765 -0.8708685,1.87004 -0.8708679,1.87004 -2.4917647,5.47e-4 c -1.3704706,3.02e-4 -2.4917647,-0.0056 -2.4917647,-0.01322 z"
   id="path917" /><path
   style="fill:#2bcfb5;stroke-width:0.0282353"
   d="m 3.9529412,19.97551 c 0,-0.0083 0.3771725,-0.824645 0.838161,-1.814117 0.4609887,-0.989472 1.2910565,-2.77104 1.8445952,-3.95904 l 1.0064343,-2.16 h 0.8024634 0.8024637 l 0.1313252,0.0772 c 0.1669985,0.09817 0.3416592,0.296207 0.434697,0.492873 0.090119,0.190496 0.211071,0.679736 0.578052,2.338161 l 0.287407,1.298824 -0.8710349,1.870399 -0.8710345,1.870398 -2.4917647,1.98e-4 c -1.3704706,9.6e-5 -2.4917647,-0.0066 -2.4917647,-0.0149 z"
   id="path919" /><path
   style="fill:#2bcfb5;stroke-width:0.0282353"
   d="m 3.6141176,19.964977 c -0.054353,-0.01122 -0.1253311,-0.0348 -0.1577294,-0.05239 -0.09357,-0.0508 -0.2575091,-0.246342 -0.3353988,-0.40005 -0.069654,-0.137456 -0.071578,-0.156723 -0.071578,-0.716914 0,-1.19789 0.082642,-1.723713 0.7152526,-4.550921 l 0.151629,-0.677647 0.3163135,-0.664971 c 0.1739724,-0.365734 0.3446121,-0.700461 0.3791992,-0.743837 0.04276,-0.05363 0.1032682,-0.08666 0.1890692,-0.103211 0.1263019,-0.02437 2.7944188,-0.03795 2.7944188,-0.01422 0,0.01243 -2.7791567,5.986548 -3.3829851,7.272121 l -0.3116571,0.66353 -0.093855,0.0045 c -0.05162,0.0024 -0.1383259,-0.0047 -0.1926789,-0.01595 z"
   id="path921" /><path
   style="fill:#2bcfb5;stroke-width:0.0282353"
   d="M 3.5875059,19.959804 C 3.4296643,19.928852 3.2580983,19.767161 3.1319353,19.530455 l -0.090245,-0.169318 0.015898,-0.821745 c 0.021501,-1.11136 0.057605,-1.342861 0.5861117,-3.758216 l 0.2533064,-1.157647 0.2015669,-0.437647 c 0.3308523,-0.718354 0.5039863,-1.043537 0.583278,-1.095519 0.066031,-0.04329 0.2128856,-0.04882 1.4933383,-0.05629 0.7810577,-0.0046 1.4201051,-0.0013 1.4201051,0.0071 0,0.01478 -1.64263,3.549349 -2.8873436,6.21291 -0.3265685,0.698823 -0.6426412,1.375411 -0.7023838,1.503529 -0.1209349,0.259344 -0.1225203,0.260111 -0.4180608,0.202157 z"
   id="path923" /><path
   style="fill:#2bcfb5;stroke-width:0.0282353"
   d="m 3.5675396,19.958875 c -0.1425554,-0.0328 -0.334968,-0.226137 -0.4489844,-0.451138 l -0.076784,-0.151526 0.015857,-0.819282 c 0.021494,-1.110525 0.053821,-1.320059 0.5615172,-3.639617 l 0.2835824,-1.295628 0.2393766,-0.51143 c 0.3417699,-0.730195 0.4589004,-0.946889 0.5408736,-1.00063 0.064566,-0.04233 0.2205889,-0.04814 1.4922108,-0.05555 0.7810577,-0.0046 1.4201051,-0.0013 1.4201051,0.0072 0,0.01655 -1.0090218,2.189582 -2.6685279,5.74695 l -1.0208079,2.188236 -0.1106262,0.0047 c -0.060844,0.0026 -0.1633511,-0.0074 -0.2277925,-0.02228 z"
   id="path925" /><path
   style="fill:#2bcfb5;stroke-width:0.0282353"
   d="m 3.5675396,19.958875 c -0.1425554,-0.0328 -0.334968,-0.226137 -0.4489844,-0.451138 l -0.076784,-0.151526 0.016571,-0.819282 c 0.021475,-1.06174 0.063967,-1.359936 0.4426489,-3.106341 0.4147994,-1.912973 0.3809134,-1.786698 0.6131012,-2.284705 0.33402,-0.716421 0.4885379,-1.003584 0.5680691,-1.055723 0.065628,-0.04302 0.2149804,-0.04864 1.4930277,-0.05609 0.7810577,-0.0046 1.4201051,-7.39e-4 1.4201051,0.0085 0,0.01638 -1.1578066,2.510015 -2.8447363,6.126862 l -0.8428285,1.807059 -0.1115117,0.0047 c -0.061331,0.0026 -0.1642366,-0.0074 -0.228678,-0.02228 z"
   id="path927" /><path
   style="fill:#2bcfb5;stroke-width:0.0282353"
   d="m 3.9529412,19.975861 c 0,-0.01573 0.7513654,-1.633862 2.5628856,-5.51939 l 1.1255157,-2.414118 h 0.8028582 0.8028581 l 0.1313252,0.0772 c 0.1628849,0.09575 0.3399095,0.293788 0.4327262,0.484084 0.088264,0.180962 0.2097848,0.671185 0.5782828,2.332833 L 10.68056,16.249412 9.8087486,18.12 8.9369373,19.990588 h -2.491998 c -1.370599,0 -2.4919981,-0.0066 -2.4919981,-0.01473 z"
   id="path929" /><path
   style="fill:#2bcfb5;stroke-width:0.0282353"
   d="m 3.9529412,19.973259 c 0,-0.014 2.4003212,-5.17792 3.4371233,-7.394435 l 0.2509406,-0.536471 h 0.803027 0.8030267 l 0.1313252,0.0772 c 0.1627736,0.09569 0.339794,0.293649 0.4328767,0.484084 0.088673,0.181414 0.2112393,0.674975 0.5793123,2.332833 L 10.682069,16.249412 9.8095528,18.12 8.9370364,19.990588 H 6.4449887 c -1.3706261,0 -2.4920475,-0.0078 -2.4920475,-0.01733 z"
   id="path931" /><path
   style="fill:#2bcfb5;stroke-width:0.0282353"
   d="m 15.231279,19.856471 c 0.110987,-0.223519 0.138041,-0.427797 0.116859,-0.882353 -0.03565,-0.764937 -0.125763,-1.454598 -0.272049,-2.081976 l -0.05673,-0.243295 1.080908,-2.324599 1.080908,-2.324599 1.072942,0.0072 c 1.004066,0.0068 1.080191,0.01082 1.185882,0.06312 0.242162,0.119821 0.458318,0.419327 0.561874,0.778534 0.02439,0.0846 0.146888,0.6557 0.272218,1.269112 0.12533,0.613412 0.241374,1.180744 0.257875,1.260738 l 0.03,0.145444 -1.040985,2.23333 -1.040984,2.23333 -1.657658,5e-5 -1.657659,4.9e-5 z"
   id="path933" /><path
   style="fill:#2bcfb5;stroke-width:0.0282353"
   d="m 14.574858,14.969157 c -0.237711,-0.910919 -0.457482,-1.709102 -0.48838,-1.773741 -0.0309,-0.06464 -0.107813,-0.176185 -0.170922,-0.247881 l -0.114744,-0.130356 0.05778,-0.133295 c 0.03178,-0.07331 0.115868,-0.257178 0.186869,-0.40859 L 14.174549,12 h 1.497248 c 1.417067,0 1.495851,0.0026 1.471157,0.04941 -0.01435,0.02718 -0.492442,1.053176 -1.062425,2.28 -0.569983,1.226823 -1.044689,2.245297 -1.054902,2.263275 -0.01021,0.01798 -0.213059,-0.712611 -0.450769,-1.62353 z"
   id="path935" /><path
   style="fill:#2bcfb5;stroke-width:0.0282353"
   d="m 13.682067,12.736402 c -0.06178,-0.06826 -0.396197,-0.245049 -0.584866,-0.30918 l -0.143214,-0.04868 0.110295,-0.07299 c 0.169211,-0.111978 0.376476,-0.209272 0.516894,-0.242638 0.199442,-0.04739 0.573627,-0.07503 0.561218,-0.04146 -0.07271,0.196745 -0.354917,0.769133 -0.379202,0.769133 -0.01765,0 -0.05415,-0.02438 -0.08113,-0.05419 z"
   id="path937" /><path
   style="fill:#2bcfb5;stroke-width:0.0282353"
   d="m 18.518303,19.941176 c 0.0144,-0.02718 0.466945,-0.99559 1.005666,-2.15203 0.538722,-1.156441 0.995606,-2.133371 1.015299,-2.170955 0.03208,-0.06123 0.04801,-0.0055 0.153134,0.53556 0.214784,1.105493 0.269885,1.618161 0.271269,2.523896 9.76e-4,0.639424 -0.0026,0.686533 -0.06272,0.835182 -0.07769,0.191977 -0.23941,0.386934 -0.364213,0.43908 -0.07232,0.03022 -0.306097,0.03868 -1.068589,0.03868 -0.920688,0 -0.974534,-0.0028 -0.949846,-0.04941 z"
   id="path939" /><path
   style="fill:#2bcfb5;stroke-width:0.0282353"
   d="m 11.815587,11.715802 c -0.299714,-0.304567 -0.70812,-0.538244 -1.140009,-0.652277 -0.139073,-0.03672 -0.359042,-0.0632 -0.626082,-0.07536 l -0.4116803,-0.01875 1.6234093,-3.4815619 1.623409,-3.481562 0.807804,0.00862 0.807804,0.00862 0.188752,0.092979 c 0.223884,0.1102856 0.40032,0.2976402 0.531798,0.5647111 0.06637,0.1348158 0.205169,0.6478252 0.535335,1.9786282 0.245154,0.9881425 0.454061,1.8410935 0.464238,1.8954464 0.01639,0.08755 -0.04347,0.2316929 -0.524715,1.2635294 l -0.54322,1.1647058 h -0.697222 c -0.498062,0 -0.767753,0.0123 -0.944136,0.04306 -0.485468,0.08466 -0.924374,0.307437 -1.285577,0.652528 -0.119709,0.114369 -0.222991,0.207944 -0.229516,0.207944 -0.0065,0 -0.0877,-0.07707 -0.180392,-0.171257 z"
   id="path941" /><path
   style="fill:#2bcfb5;stroke-width:0.0282353"
   d="M 7.5214491,10.548764 C 7.5694212,9.4734299 7.6315274,9.1348518 8.2056417,6.8188235 8.5910724,5.2639616 8.6941884,4.8857601 8.7846546,4.6951596 8.9160436,4.4183405 9.1018309,4.2196225 9.3373901,4.1039545 l 0.1637864,-0.080425 1.6729415,-0.00792 c 0.920117,-0.00435 1.672951,0.002 1.672963,0.014118 1.2e-5,0.012119 -0.727223,1.5816809 -1.616078,3.4879162 L 9.6149019,10.983529 H 8.5584778 7.5020536 Z"
   id="path943" /><path
   style="fill:#328bc3;stroke-width:0.0282353;fill-opacity:1"
   d="m 15.198873,10.934118 c 0.0082,-0.02718 0.231626,-0.515772 0.496549,-1.0857679 0.264923,-0.5699958 0.489796,-1.0687017 0.499718,-1.1082354 0.0099,-0.039534 0.02745,-0.071879 0.03896,-0.071879 0.02174,0 0.118372,0.5253361 0.168792,0.9176471 0.03613,0.2810813 0.08587,0.9854722 0.08625,1.2211762 l 2.79e-4,0.17647 h -0.652705 c -0.608465,0 -0.651697,-0.0033 -0.637834,-0.04941 z"
   id="path945" /><path
   style="fill:#328bc3;fill-opacity:1;stroke-width:0.0282353"
   d="M 11.804967,11.684957 C 11.308918,11.213627 10.83916,11.03061 9.9514817,10.962843 l -0.2838125,-0.02167 1.6130318,-3.4588231 1.613032,-3.4588235 0.802545,0.010161 0.802546,0.010161 0.191851,0.099883 c 0.349141,0.1817714 0.498476,0.4132188 0.671233,1.0403092 0.160227,0.5816054 0.844673,3.3448433 0.844936,3.4111646 2.54e-4,0.063794 -0.205547,0.5321085 -0.702122,1.5977328 l -0.361831,0.776471 -0.830269,0.01685 c -0.744659,0.01512 -0.852105,0.0233 -1.042034,0.07941 -0.411867,0.121662 -0.744512,0.316445 -1.105135,0.64712 -0.08759,0.08032 -0.163825,0.145586 -0.169412,0.145045 -0.0056,-5.42e-4 -0.09157,-0.07834 -0.191074,-0.172883 z"
   id="path947" /><path
   style="fill:#328bc3;fill-opacity:1;stroke-width:0.0282353"
   d="M 7.5256963,10.694462 C 7.5917083,9.4553658 7.6685613,9.0331683 8.2581935,6.670437 8.6064358,5.2749854 8.7253168,4.8526369 8.82552,4.6548952 8.9285599,4.4515558 9.1598482,4.2162821 9.352136,4.119205 L 9.5136838,4.037647 h 1.6555902 c 1.31311,0 1.652697,0.0073 1.641602,0.035294 -0.0259,0.065347 -1.223593,2.6446723 -2.219014,4.7788235 l -0.9877226,2.1176475 -1.0469398,0.0074 -1.0469399,0.0074 z"
   id="path949" /><path
   style="fill:#328bc3;fill-opacity:1;stroke-width:0.0282353"
   d="m 15.190588,19.98011 c 0,-0.006 0.03433,-0.08553 0.07628,-0.176698 0.06655,-0.144623 0.0778,-0.210214 0.0882,-0.514273 0.01959,-0.572548 -0.06128,-1.364593 -0.224227,-2.19601 l -0.08919,-0.455106 1.073664,-2.309407 1.073664,-2.309407 1.0394,0.0066 c 0.74482,0.0047 1.068542,0.01664 1.142227,0.04203 0.22331,0.07694 0.437198,0.31758 0.560651,0.630783 0.05827,0.147827 0.170006,0.647759 0.450168,2.014114 l 0.165439,0.806849 -1.038696,2.228445 -1.038696,2.228445 -1.639441,0.0073 c -0.901692,0.004 -1.63944,0.0024 -1.63944,-0.0036 z"
   id="path951" /><path
   style="fill:#328bc3;fill-opacity:1;stroke-width:0.0282353"
   d="m 14.97999,16.402086 c -0.02531,-0.08397 -0.211067,-0.76891 -0.412802,-1.522086 -0.45359,-1.693476 -0.455289,-1.698783 -0.607972,-1.898861 -0.06816,-0.08932 -0.124049,-0.171904 -0.124204,-0.18353 -1.55e-4,-0.01163 0.07926,-0.195726 0.17647,-0.40911 l 0.176753,-0.387972 1.044706,0.0035 c 0.574588,0.0019 1.236354,0.01132 1.470591,0.02091 l 0.425884,0.01744 -1.051707,2.256204 -1.051708,2.256204 z"
   id="path953" /><path
   style="fill:#328bc3;fill-opacity:1;stroke-width:0.0282353"
   d="m 18.816413,19.965029 -0.284763,-0.01679 1.004763,-2.152321 c 0.55262,-1.183777 1.01287,-2.152601 1.022779,-2.152942 0.02194,-7.54e-4 0.200999,0.919851 0.277208,1.425263 0.0838,0.555779 0.120584,1.157255 0.108909,1.78097 -0.0096,0.512356 -0.01614,0.573976 -0.07341,0.690485 -0.08098,0.164741 -0.216713,0.328838 -0.312084,0.377296 -0.08644,0.04392 -1.263363,0.07635 -1.743399,0.04804 z"
   id="path955" /><path
   style="fill:#328bc3;fill-opacity:1;stroke-width:0.0282353"
   d="m 9.2258824,19.969978 c -0.120353,-0.0055 -0.2188236,-0.01646 -0.2188236,-0.02435 0,-0.02108 0.3995436,-0.886036 0.768308,-1.663274 0.7379342,-1.555329 0.9108562,-1.903342 0.9291962,-1.870051 0.01972,0.0358 0.137351,0.7425 0.198474,1.192404 0.01958,0.144085 0.03531,0.584215 0.03633,1.01647 l 0.0018,0.762353 -0.07864,0.149249 c -0.104701,0.19872 -0.257511,0.363718 -0.367932,0.39728 -0.09853,0.02995 -0.9207993,0.05582 -1.2687257,0.03992 z"
   id="path957" /><path
   style="fill:#328bc3;fill-opacity:1;stroke-width:0.0282353"
   d="m 3.9529412,19.972477 c 0,-0.01628 1.2502694,-2.708205 3.0340198,-6.532477 l 0.6519027,-1.397647 h 0.8040974 0.8040977 l 0.1313252,0.0772 c 0.1667514,0.09803 0.3516246,0.305201 0.437374,0.490135 0.036674,0.07909 0.111231,0.320506 0.1656822,0.536471 0.1073168,0.425643 0.6915008,3.035423 0.6915008,3.089209 0,0.01807 -0.390038,0.870393 -0.8667511,1.894041 L 8.9394387,19.990588 H 6.4461899 c -1.3712868,0 -2.4932487,-0.0082 -2.4932487,-0.01811 z"
   id="path959" /><path
   style="fill:#328bc3;fill-opacity:1;stroke-width:0.0282353"
   d="m 3.5675396,19.958875 c -0.1425554,-0.0328 -0.334968,-0.226137 -0.4489844,-0.451138 l -0.076784,-0.151526 0.016277,-0.819282 c 0.022387,-1.126866 0.055953,-1.343847 0.5739891,-3.710467 L 3.9002467,13.60116 4.0989055,13.174697 c 0.3304869,-0.709458 0.5043069,-1.03278 0.5829452,-1.084334 0.066031,-0.04329 0.2128856,-0.04882 1.4933383,-0.05629 0.7810577,-0.0046 1.4201051,-0.002 1.4201051,0.0057 0,0.02286 -2.0706867,4.481867 -3.4365566,7.400263 l -0.2510794,0.536471 -0.1114761,0.0047 c -0.061312,0.0026 -0.164201,-0.0074 -0.2286424,-0.02228 z"
   id="path961" /><path
   style="fill:#3ca4e6;fill-opacity:1;stroke-width:0.0282353"
   d="m 13.695107,12.721192 c -0.03905,-0.04705 -0.589849,-0.326157 -0.643342,-0.326001 -0.07107,2.07e-4 -0.03181,-0.04523 0.112941,-0.130734 0.231294,-0.13662 0.462544,-0.210002 0.718774,-0.228084 0.128792,-0.0091 0.234167,-0.0073 0.234167,0.0039 0,0.0457 -0.340497,0.722112 -0.363504,0.722112 -0.01368,0 -0.04025,-0.01852 -0.05904,-0.04116 z"
   id="path963" /><path
   style="fill:#3ca4e6;fill-opacity:1;stroke-width:0.0282353"
   d="m 16.517395,10.891765 c -1.39e-4,-0.05047 -0.01292,-0.301412 -0.02841,-0.557647 C 16.443607,9.5831449 16.35543,8.9934964 16.17633,8.2433357 L 16.09174,7.8890244 16.434885,7.1562769 c 0.18873,-0.4030111 0.3626,-0.7772181 0.386377,-0.831571 l 0.04323,-0.098823 0.33622,1.0023529 c 0.184921,0.5512941 0.379098,1.149329 0.431504,1.3289665 0.193571,0.6635248 0.304048,1.326479 0.342534,2.0554917 l 0.01958,0.370835 h -0.738341 -0.73834 l -2.51e-4,-0.09176 z"
   id="path965" /><path
   style="fill:#3ca4e6;fill-opacity:1;stroke-width:0.0282353"
   d="M 15.704805,6.3575619 C 15.447389,5.3180007 15.303021,4.7873023 15.24491,4.6669853 15.128473,4.4259088 14.91601,4.2012257 14.704571,4.095568 L 14.532157,4.009412 h 0.309912 c 0.406214,0 0.596298,0.036991 0.873394,0.1699665 0.176431,0.084667 0.268044,0.1519833 0.402603,0.295827 0.225471,0.2410286 0.293138,0.3818056 0.538229,1.1197394 l 0.20307,0.6114152 -0.385375,0.8285848 c -0.211956,0.4557216 -0.387313,0.830664 -0.389682,0.8332054 -0.0024,0.00254 -0.173146,-0.6772232 -0.379503,-1.5105884 z"
   id="path967" /><path
   style="fill:#3ca4e6;fill-opacity:1;stroke-width:0.0282353"
   d="M 6.014409,10.807059 C 6.0152246,10.312978 6.1212635,9.5302306 6.2707142,8.9150917 6.3759965,8.4817499 7.5167802,5.0430048 7.6308522,4.8151315 7.7477768,4.5815597 8.0075198,4.3195368 8.2467555,4.193822 8.4994179,4.0610516 8.7467363,4.0105088 9.1467202,4.009902 L 9.4699112,4.0094118 9.316132,4.0857258 C 9.2315534,4.1276985 9.0978291,4.2263349 9.0189665,4.3049178 8.7527775,4.570163 8.7104905,4.692706 8.2434571,6.5522549 7.6492736,8.9180671 7.5701613,9.334475 7.5048344,10.44 l -0.032118,0.543529 H 6.7434171 6.0141176 Z"
   id="path969" /><path
   style="fill:#3ca4e6;fill-opacity:1;stroke-width:0.0282353"
   d="m 10.606128,19.916934 c 0.168494,-0.109544 0.308016,-0.337375 0.365879,-0.597457 0.07974,-0.358423 0.01887,-1.485345 -0.129557,-2.398551 -0.07303,-0.449313 -0.798442,-3.754773 -0.8935536,-4.071622 l -0.07137,-0.237755 0.1334226,-0.291657 c 0.149619,-0.327059 0.14836,-0.326303 0.421991,-0.253344 0.210965,0.05625 0.442456,0.178577 0.601922,0.318074 0.295731,0.2587 0.314031,0.3015 0.9677,2.263311 l 0.600288,1.801604 -0.822434,1.763467 -0.822433,1.763467 -0.234286,0.0082 -0.234285,0.0082 z"
   id="path971" /><path
   style="fill:#3ca4e6;fill-opacity:1;stroke-width:0.0282353"
   d="M 1.7082353,19.932459 C 1.3916206,19.829749 1.1508497,19.585783 1.0582005,19.2738 c -0.10528482,-0.354533 -0.00419,-1.467774 0.2150598,-2.36812 0.1367512,-0.561576 1.2791981,-3.963077 1.3970981,-4.159695 0.1894782,-0.315986 0.4904065,-0.557522 0.8265847,-0.663446 0.1549812,-0.04883 0.2838902,-0.0615 0.738351,-0.07258 l 0.5505883,-0.01342 -0.1147872,0.05449 c -0.2547928,0.12095 -0.4941869,0.41817 -0.6027194,0.748306 -0.1095871,0.333343 -0.8747735,3.864286 -0.9465255,4.36773 -0.094606,0.663799 -0.1371584,1.269425 -0.1247981,1.7762 l 0.010229,0.419397 0.1128299,0.221158 c 0.08,0.156808 0.1483846,0.248162 0.2350249,0.313966 l 0.122195,0.09281 -0.7998421,-0.0016 c -0.7129484,-0.0014 -0.8182467,-0.0076 -0.9692538,-0.05654 z"
   id="path973" /><path
   style="fill:#3ca4e6;fill-opacity:1;stroke-width:0.0282353"
   d="m 3.9546928,13.374415 c -0.00364,-0.107096 0.1211231,-0.549263 0.20856,-0.739121 0.087427,-0.189835 0.3305712,-0.497816 0.3658536,-0.463412 0.014172,0.01382 -0.126605,0.323619 -0.5185142,1.141059 -0.032115,0.06698 -0.054861,0.092 -0.055899,0.06147 z"
   id="path975" /><path
   style="fill:#3ca4e6;fill-opacity:1;stroke-width:0.0282353"
   d="m 9.7960312,12.504334 c -0.052794,-0.127455 -0.3126617,-0.383038 -0.455257,-0.44775 l -0.1219507,-0.05534 0.4141613,-6.2e-4 c 0.2277887,-3.41e-4 0.4328392,0.0065 0.4556682,0.01531 0.03338,0.01281 0.01587,0.07083 -0.089455,0.296371 -0.072029,0.154245 -0.1389505,0.280489 -0.1487136,0.280543 -0.00976,5.4e-5 -0.034267,-0.03977 -0.054453,-0.08851 z"
   id="path977" /><path
   style="fill:#3ca4e6;fill-opacity:1;stroke-width:0.0282353"
   d="m 10.99455,19.946124 c 0.0094,-0.02445 0.375077,-0.813033 0.812651,-1.752396 0.474238,-1.018071 0.803621,-1.692946 0.815474,-1.67083 0.0396,0.07389 0.194176,0.751135 0.250137,1.095926 0.07513,0.462938 0.12679,1.140578 0.107424,1.409256 -0.02465,0.34203 -0.166889,0.600676 -0.427174,0.776791 -0.236808,0.16023 -0.375825,0.185717 -1.012972,0.185717 -0.500362,0 -0.560715,-0.0049 -0.54554,-0.04446 z"
   id="path979" /><path
   style="fill:#3ca4e6;fill-opacity:1;stroke-width:0.0282353"
   d="m 13.833837,19.814118 c 0.148615,-0.329031 0.180792,-0.558884 0.162784,-1.162815 -0.03356,-1.125478 -0.185143,-1.856598 -0.711529,-3.431857 -0.132212,-0.395657 -0.240386,-0.735386 -0.240386,-0.754954 0,-0.03889 0.698983,-1.560038 0.734842,-1.599189 0.01215,-0.01326 0.08081,0.05027 0.152579,0.141176 0.155409,0.196837 0.162149,0.217594 0.552546,1.701493 0.602439,2.289877 0.678881,2.62004 0.762604,3.293784 l 0.03084,0.248196 -0.403765,0.869325 -0.403766,0.869324 -0.358229,9.94e-4 -0.358229,9.93e-4 z"
   id="path981" /><path
   style="fill:#3ca4e6;fill-opacity:1;stroke-width:0.0282353"
   d="m 12.785129,13.720907 -0.242275,-0.728012 0.08287,-0.164683 c 0.04558,-0.09058 0.13626,-0.219627 0.201514,-0.286781 0.103171,-0.106175 0.130602,-0.120216 0.210342,-0.107668 0.114669,0.01804 0.50847,0.213449 0.637248,0.316203 l 0.09656,0.07705 -0.113378,0.242963 c -0.06236,0.13363 -0.229754,0.498558 -0.371993,0.810952 L 13.0274,14.44892 Z"
   id="path983" /><path
   style="fill:#3ca4e6;fill-opacity:1;stroke-width:0.0282353"
   d="m 14.714205,19.504414 c 0.124789,-0.268369 0.298207,-0.643941 0.385372,-0.834605 0.124666,-0.272693 0.164131,-0.336568 0.184957,-0.299354 0.01456,0.02602 0.02797,0.321781 0.02979,0.65725 l 0.0033,0.609942 -0.08471,0.169412 -0.08471,0.169412 -0.33046,0.0079 -0.330461,0.0079 z"
   id="path985" /><path
   style="fill:#3ca4e6;fill-opacity:1;stroke-width:0.0282353"
   d="m 20.710908,19.842353 c 0.221521,-0.223352 0.274158,-0.386011 0.290101,-0.896471 0.0132,-0.42269 -0.02743,-1.145393 -0.09254,-1.646086 l -0.03722,-0.286235 0.554967,-1.191909 c 0.305232,-0.655549 0.563117,-1.183247 0.573079,-1.172662 0.03853,0.04095 0.648467,1.934199 0.727836,2.259226 0.2175,0.890699 0.319356,2.013083 0.214675,2.365584 -0.09402,0.31659 -0.335056,0.557672 -0.660068,0.660188 -0.161269,0.05087 -0.257357,0.0566 -0.948645,0.0566 h -0.7692 z"
   id="path987" /><path
   style="fill:#3ca4e6;fill-opacity:1;stroke-width:0.0282353"
   d="M 20.851009,16.867752 C 20.802972,16.589626 20.648761,15.818448 20.357538,14.4 c -0.342845,-1.669878 -0.391445,-1.83745 -0.611132,-2.107166 -0.112785,-0.13847 -0.119659,-0.156061 -0.08808,-0.225376 l 0.03426,-0.07518 0.297238,0.01835 c 0.342454,0.02115 0.535465,0.06649 0.758974,0.178288 0.197456,0.09877 0.501853,0.397646 0.607616,0.596594 0.04392,0.08262 0.205027,0.525258 0.358014,0.983643 l 0.278156,0.833427 -0.186378,0.385769 c -0.102508,0.212173 -0.355084,0.74661 -0.561279,1.187638 -0.364328,0.779259 -0.375436,0.798765 -0.393916,0.691765 z"
   id="path989" /><path
   style="fill:#25a4e6;fill-opacity:1;stroke-width:0.0282353"
   d=""
   id="path991" /><path
   style="fill:#25a4e6;fill-opacity:1;stroke-width:0.0282353"
   d="m 20.442353,12.038392 c -0.101791,-0.03263 -0.338532,-0.04045 -1.190431,-0.0393 l -1.063373,0.0014 0.385726,-0.8246 0.385725,-0.824601 0.0079,0.327484 0.0079,0.327484 0.740305,0.0125 c 0.760241,0.01284 0.941003,0.03724 1.255433,0.169445 l 0.08977,0.03775 -0.201053,0.429356 c -0.139853,0.298662 -0.214729,0.428507 -0.245981,0.426565 -0.02471,-0.0015 -0.102104,-0.02112 -0.171986,-0.04352 z"
   id="path993" /><path
   style="fill:#25a4e6;fill-opacity:1;stroke-width:0.0282353"
   d="m 16.781777,11.795294 c 0.05131,-0.112588 0.154555,-0.334941 0.22943,-0.494118 l 0.136136,-0.289411 h 0.433388 0.433387 v -0.165312 c 0,-0.245572 -0.05259,-0.858344 -0.09836,-1.1461244 L 17.875581,9.447716 18.189035,8.7756227 c 0.1724,-0.3696513 0.32283,-0.6720933 0.334288,-0.6720933 0.05691,0 0.304138,1.0741801 0.378188,1.6431977 0.07667,0.5891599 0.09832,0.4981879 -0.339623,1.4273909 L 18.172644,12 h -0.74208 -0.742079 z"
   id="path995" /><path
   style="fill:#25a4e6;fill-opacity:1;stroke-width:0.0282353"
   d="m 17.844706,9.3150593 c 0,-0.1094778 -0.17033,-0.7417887 -0.353862,-1.3136324 L 17.30855,7.433442 17.603633,6.8029716 c 0.163702,-0.349762 0.301949,-0.6123011 0.310503,-0.5896622 0.0085,0.022444 0.153874,0.4560568 0.323097,0.9635828 0.203204,0.6094421 0.296657,0.9271018 0.275222,0.9355185 -0.01785,0.00701 -0.164883,0.2937606 -0.32674,0.6372254 -0.161856,0.343465 -0.304797,0.6244815 -0.317647,0.6244815 -0.01285,0 -0.02336,-0.026576 -0.02336,-0.059058 z"
   id="path997" /><path
   style="fill:#25a4e6;fill-opacity:1;stroke-width:0.0282353"
   d="M 16.880906,6.1800879 16.469219,4.9301778 16.706584,4.4213502 c 0.13055,-0.2798551 0.241138,-0.5126018 0.245751,-0.5172149 0.01648,-0.016483 0.237424,0.3203309 0.326966,0.4984427 0.05016,0.099771 0.210545,0.5371182 0.356417,0.9718831 l 0.265221,0.7904817 -0.233631,0.4822345 c -0.128498,0.265229 -0.265376,0.5498665 -0.304173,0.6325275 l -0.07054,0.1502934 z"
   id="path999" /><path
   style="fill:#25a4e6;fill-opacity:1;stroke-width:0.0282353"
   d="M 16.376431,4.7505882 C 16.220428,4.4539416 15.774338,4.1037957 15.482709,4.0490858 c -0.05331,-0.010002 -0.0932,-0.027331 -0.08864,-0.03851 0.0921,-0.2258879 0.409191,-0.876458 0.427188,-0.876458 0.0135,0 0.132428,0.050556 0.264286,0.1123471 0.279821,0.1311284 0.532819,0.3065867 0.722063,0.500761 l 0.13466,0.1381692 -0.233484,0.4995065 c -0.128416,0.2747286 -0.239859,0.4995735 -0.24765,0.4996555 -0.0078,8.19e-5 -0.0459,-0.060204 -0.0847,-0.1339687 z"
   id="path1001" /><path
   style="fill:#25a4e6;fill-opacity:1;stroke-width:0.0282353"
   d="m 14.319484,3.9882455 c -0.797772,-0.00686 -0.911402,-0.013216 -0.897225,-0.050162 0.0089,-0.023267 0.108055,-0.2401941 0.220282,-0.4820613 l 0.204049,-0.4397583 0.834352,0.01273 c 0.745894,0.011381 1.029194,0.035817 1.099872,0.094871 0.0063,0.00524 -0.08267,0.2065215 -0.197647,0.447293 -0.191956,0.4019708 -0.214821,0.4372424 -0.279638,0.4313563 -0.03882,-0.00353 -0.481644,-0.00995 -0.984045,-0.014269 z"
   id="path1003" /><path
   style="fill:#25a4e6;fill-opacity:1;stroke-width:0.0282353"
   d="m 21.790163,13.900702 c -0.0072,-0.01268 -0.09183,-0.260359 -0.188013,-0.550397 -0.145651,-0.439218 -0.198459,-0.560925 -0.316002,-0.728301 -0.138535,-0.197267 -0.379386,-0.405417 -0.551691,-0.476788 l -0.08203,-0.03398 0.204668,-0.415619 c 0.112567,-0.228591 0.209258,-0.428198 0.214869,-0.443572 0.0162,-0.04439 0.460342,0.237795 0.656609,0.417179 0.276044,0.252298 0.55979,0.666685 0.645318,0.942433 0.0137,0.04418 -0.06026,0.231589 -0.267451,0.677647 -0.157516,0.339117 -0.290161,0.620598 -0.294766,0.625514 -0.0046,0.0049 -0.01429,-0.0014 -0.02151,-0.01412 z"
   id="path1005" /><path
   style="fill:#25a4e6;fill-opacity:1;stroke-width:0.0282353"
   d="m 22.217349,15.193708 -0.412234,-1.237414 0.108853,-0.222853 c 0.106577,-0.218191 0.340628,-0.732829 0.43522,-0.95697 l 0.04766,-0.112942 0.419526,1.253614 0.419525,1.253613 -0.283524,0.609916 c -0.155938,0.335454 -0.29236,0.619037 -0.303159,0.630183 -0.0108,0.01115 -0.20514,-0.536569 -0.431869,-1.217147 z"
   id="path1007" /><path
   style="fill:#25a4e6;fill-opacity:1;stroke-width:0.0282353"
   d="m 21.039132,20.95742 c 0.0057,-0.01464 0.105541,-0.230452 0.221972,-0.479591 l 0.211693,-0.452981 0.381249,-0.01134 c 0.345839,-0.01028 0.397722,-0.01883 0.558623,-0.09198 0.252513,-0.114804 0.464812,-0.349189 0.541669,-0.598022 0.09237,-0.299046 0.06572,-0.99639 -0.06871,-1.79807 l -0.06537,-0.389856 0.30393,-0.648908 c 0.167161,-0.356899 0.309916,-0.654893 0.317231,-0.662209 0.01646,-0.01646 0.226229,0.70199 0.304841,1.044084 0.146624,0.638059 0.225389,1.324858 0.226904,1.978509 8.72e-4,0.376366 -0.0089,0.48703 -0.05857,0.663068 -0.18711,0.663157 -0.655628,1.152822 -1.326353,1.38622 -0.166322,0.05788 -0.248027,0.06498 -0.871456,0.07577 -0.424197,0.0073 -0.683986,0.0017 -0.677647,-0.0147 z"
   id="path1009" /><path
   style="fill:#25a4e6;fill-opacity:1;stroke-width:0.0282353"
   d="m 21.089308,20.887059 c 0.06697,-0.174507 0.396819,-0.840194 0.416962,-0.841497 0.01273,-8.22e-4 0.188867,-0.01139 0.391419,-0.02349 0.306496,-0.01831 0.395055,-0.03426 0.527901,-0.09507 0.20308,-0.09297 0.400247,-0.289772 0.496493,-0.495566 0.06828,-0.145991 0.07613,-0.197964 0.08509,-0.562845 0.01052,-0.428595 -0.01575,-0.751245 -0.110972,-1.362704 l -0.05936,-0.381176 0.287728,-0.607059 c 0.15825,-0.333882 0.297525,-0.6174 0.309499,-0.630039 0.02172,-0.02292 0.20217,0.589825 0.313132,1.063274 0.148724,0.634569 0.249183,1.780919 0.198758,2.268047 -0.07078,0.683769 -0.482666,1.24952 -1.137698,1.562701 -0.315183,0.150694 -0.438505,0.168958 -1.140831,0.168958 h -0.602506 z"
   id="path1011" /><path
   style="fill:#25a4e6;fill-opacity:1;stroke-width:0.0282353"
   d="m 22.723149,16.77841 -0.07685,-0.303116 0.288616,-0.627107 c 0.158738,-0.344908 0.295443,-0.627614 0.303788,-0.628235 0.0083,-6.21e-4 0.05709,0.126771 0.108333,0.283093 l 0.09316,0.284221 -0.30598,0.647361 c -0.168289,0.356048 -0.312334,0.647256 -0.320098,0.647129 -0.0078,-1.27e-4 -0.0487,-0.136633 -0.09097,-0.303346 z"
   id="path1013" /><path
   style="fill:#25a4e6;fill-opacity:1;stroke-width:0.0282353"
   d="m 14.708768,11.936471 c 0.01376,-0.03494 0.114959,-0.254118 0.224887,-0.487059 l 0.199869,-0.42353 0.988532,-0.0074 c 0.543693,-0.0041 0.988533,0.0023 0.988533,0.01412 0,0.01185 -0.09847,0.234311 -0.218824,0.494367 l -0.218824,0.472829 -0.994595,1.12e-4 -0.994595,9e-5 z"
   id="path1015" /><path
   style="fill:#25a4e6;fill-opacity:1;stroke-width:0.0282353"
   d="m 12.093263,14.819249 -0.513796,-1.554919 0.386737,-0.833938 c 0.364694,-0.786405 0.393979,-0.839306 0.513796,-0.928119 0.202089,-0.149798 0.53249,-0.311701 0.806099,-0.395007 0.243671,-0.07419 0.280939,-0.07737 1.040304,-0.08891 0.756239,-0.01148 0.786828,-0.0099 0.768671,0.04013 -0.0104,0.02865 -0.110694,0.251666 -0.222875,0.495586 l -0.203964,0.443492 -0.481126,0.0012 c -0.701508,0.0018 -0.91928,0.0729 -1.290082,0.421367 -0.138512,0.130169 -0.219159,0.235926 -0.290674,0.381177 l -0.09898,0.201024 0.355147,1.064021 0.355148,1.064021 -0.289497,0.623038 c -0.159224,0.342671 -0.296612,0.622519 -0.305307,0.621886 -0.0087,-6.33e-4 -0.247018,-0.700865 -0.529606,-1.55607 z"
   id="path1017" /><path
   style="fill:#25a4e6;fill-opacity:1;stroke-width:0.0282353"
   d="m 11.521718,13.094118 c -0.09927,-0.335971 -0.393068,-0.724338 -0.671321,-0.887405 -0.25784,-0.151105 -0.396698,-0.1865 -0.800776,-0.204118 l -0.3833204,-0.01671 0.2233645,-0.48 c 0.1228509,-0.264 0.2278229,-0.484478 0.2332719,-0.489951 0.02493,-0.02504 0.50801,0.06059 0.688909,0.12212 0.414532,0.140991 0.840125,0.413601 1.075379,0.688825 l 0.111025,0.129889 0.14431,-0.161912 c 0.07937,-0.08905 0.155058,-0.161912 0.168194,-0.161912 0.01314,0 -0.09346,0.244588 -0.236886,0.54353 -0.143425,0.298941 -0.310836,0.654588 -0.372026,0.790328 -0.06119,0.135739 -0.118772,0.246916 -0.127961,0.247059 -0.0092,1.43e-4 -0.03266,-0.05374 -0.05216,-0.11974 z"
   id="path1019" /><path
   style="fill:#25a4e6;fill-opacity:1;stroke-width:0.0282353"
   d="m 6.6642499,11.978824 c 3.962e-4,-0.01165 0.099415,-0.230824 0.2200425,-0.487059 l 0.2193221,-0.465883 1.0072945,-0.0074 1.0072944,-0.0074 -0.1544072,0.328615 c -0.084924,0.18071 -0.1879019,0.403223 -0.2288399,0.494445 L 8.6605235,12 H 7.6620264 C 7.1128531,12 6.6638536,11.9905 6.6642499,11.97882 Z"
   id="path1021" /><path
   style="fill:#25a4e6;fill-opacity:1;stroke-width:0.0282353"
   d="m 9.4023529,3.9572146 c 0,-0.013179 0.095285,-0.2260025 0.2117439,-0.4729411 L 9.8258406,3.0352941 10.830687,3.027876 c 0.564329,-0.00417 1.000668,0.00339 0.995315,0.017231 -0.0052,0.013557 -0.104725,0.2297185 -0.221072,0.4803594 L 11.39339,3.981177 h -0.995518 c -0.5475357,0 -0.9955191,-0.010783 -0.9955191,-0.023962 z"
   id="path1023" /><path
   style="fill:#25a4e6;fill-opacity:1;stroke-width:0.0282353"
   d="m 11.628438,3.5023245 0.216268,-0.478852 0.981176,-0.00115 c 0.539647,-6.314e-4 0.981177,0.00885 0.981177,0.021061 0,0.012215 -0.08894,0.2155327 -0.197647,0.4518174 -0.108706,0.2362847 -0.197647,0.4422908 -0.197647,0.4577912 0,0.018223 -0.353335,0.028183 -0.999797,0.028183 h -0.999797 z"
   id="path1025" /><path
   style="fill:#25a4e6;fill-opacity:1;stroke-width:0.0282353"
   d="m 4.1524896,11.97676 c 0.00105,-0.01051 0.100374,-0.22876 0.2207295,-0.484995 l 0.2188282,-0.465883 0.212565,-0.0082 0.2125651,-0.0082 0.017318,-0.485949 0.017318,-0.48595 1.6136365,-3.4588235 C 7.5529508,4.6764706 8.2839018,3.1148614 8.2897864,3.1085809 8.3338447,3.061557 8.757663,3.0231124 9.2419028,3.0222143 9.7735912,3.0212282 9.8006276,3.0237743 9.784885,3.0733763 9.775775,3.1020863 9.685975,3.3019635 9.5853352,3.5175483 9.484695,3.733133 9.4023529,3.9256431 9.4023529,3.9453485 c 0,0.026585 -0.074663,0.035954 -0.2894117,0.036318 C 8.5521007,3.9826169 8.1960728,4.1125682 7.8751912,4.4334499 7.7410681,4.5675728 7.656934,4.6835561 7.5865372,4.8313738 7.4659485,5.0845837 6.3299298,8.5345177 6.2301331,8.9505882 6.0949266,9.5142881 5.9858824,10.359129 5.9858824,10.842966 v 0.166949 l 0.3063887,0.008 0.3063888,0.008 -0.225576,0.487231 -0.2255759,0.48723 -0.9984599,-0.0022 c -0.5491529,-0.0012 -0.9976043,-0.01084 -0.9965585,-0.02135 z"
   id="path1027" /><path
   style="fill:#25a4e6;fill-opacity:1;stroke-width:0.0282353"
   d="m 5.0823529,9.8610675 c 0,-0.1211438 0.1408166,-0.8842159 0.2256711,-1.2228907 C 5.426331,8.1659848 6.5800759,4.6993869 6.7072052,4.4341292 6.9755744,3.8741716 7.4451051,3.4332158 8.028628,3.1931263 c 0.1218632,-0.05014 0.225694,-0.087039 0.2307354,-0.081998 0.00504,0.00504 -0.181224,0.4156882 -0.4139231,0.9125484 -0.2326991,0.4968603 -0.9450162,2.0215 -1.5829268,3.3880882 -0.6379107,1.3665882 -1.1644103,2.49 -1.1699991,2.4964707 -0.00559,0.00647 -0.010161,-0.014755 -0.010161,-0.047168 z"
   id="path1029" /><path
   style="fill:#25a4e6;fill-opacity:1;stroke-width:0.0282353"
   d="M 0.22531159,19.870588 C 0.05369471,19.510145 0.0255072,19.364826 0.02677761,18.847059 c 0.0017758,-0.723738 0.0873398,-1.40235 0.27234772,-2.16 0.12794693,-0.523973 1.27475117,-3.981628 1.41911017,-4.278668 0.3143775,-0.646877 0.888806,-1.117722 1.6029726,-1.313916 0.2828493,-0.0777 1.27327,-0.11822 1.2458228,-0.05096 -0.00872,0.02136 -0.1059846,0.231526 -0.2161471,0.467028 -0.1101626,0.235503 -0.2002956,0.441974 -0.2002956,0.458824 0,0.01957 -0.08484,0.03064 -0.2348753,0.03064 -0.1321101,0 -0.3019747,0.01971 -0.3882353,0.04505 -0.3694226,0.108509 -0.7166676,0.377229 -0.8932947,0.691287 -0.09219,0.163923 -1.2566075,3.633886 -1.377859,4.10602 -0.107559,0.418818 -0.2038992,1.018293 -0.2404942,1.496471 L 0.983417,18.762364 0.67133873,19.432952 C 0.4996957,19.801776 0.35407666,20.10354 0.34774089,20.10354 c -0.006336,0 -0.061429,-0.104823 -0.12242927,-0.232941 z"
   id="path1031" /><path
   style="fill:#25a4e6;fill-opacity:1;stroke-width:0.0282353"
   d="M 1.2369584,20.826851 C 0.89595817,20.677968 0.56988225,20.422989 0.41164198,20.181484 c -0.0427912,-0.06531 -0.0328755,-0.09256 0.26219213,-0.720532 l 0.30666517,-0.652657 0.0151286,0.231147 c 0.0187086,0.285845 0.0875577,0.452146 0.26700642,0.64494 0.1368542,0.147032 0.4152306,0.306141 0.5356993,0.306184 0.034025,1.2e-5 0.069187,0.01187 0.078139,0.02636 0.016825,0.02722 -0.3774103,0.905698 -0.4061771,0.905085 -0.0089,-1.89e-4 -0.1138995,-0.04301 -0.2333371,-0.09516 z"
   id="path1033" /><path
   style="fill:#25a4e6;fill-opacity:1;stroke-width:0.0282353"
   d="m 1.68,20.960331 c -0.1987653,-0.04203 -0.1939721,-0.0075 -0.045503,-0.327458 0.073854,-0.159139 0.1634277,-0.362402 0.1990531,-0.451697 l 0.064774,-0.162352 h 0.5034022 0.5034022 l -0.066163,0.148235 c -0.03639,0.08153 -0.1365916,0.297529 -0.2226703,0.48 l -0.1565068,0.331765 -0.3616583,-0.0033 C 1.8992168,20.973747 1.7110588,20.966899 1.68,20.960331 Z"
   id="path1035" /><path
   style="fill:#25a4e6;fill-opacity:1;stroke-width:0.0282353"
   d="m 2.4894118,20.955529 c 0.00518,-0.01281 0.104676,-0.228811 0.22111,-0.48 l 0.2116983,-0.456705 h 0.9943571 0.9943572 l -0.052149,0.12 c -0.028682,0.066 -0.1290465,0.282 -0.2230329,0.48 l -0.1708845,0.36 H 3.4724342 c -0.5458388,0 -0.9881989,-0.01048 -0.9830224,-0.0233 z"
   id="path1037" /><path
   style="fill:#25a4e6;fill-opacity:1;stroke-width:0.0282353"
   d="m 4.4941176,20.955579 c 0.00518,-0.01278 0.1047059,-0.228542 0.2211765,-0.479463 l 0.2117647,-0.456219 0.9976471,-5.37e-4 c 0.5487059,-2.95e-4 0.9934118,0.01027 0.9882353,0.02347 -0.00518,0.0132 -0.1047059,0.229009 -0.2211765,0.479568 L 6.48,20.977961 5.482353,20.978392 c -0.548706,2.37e-4 -0.9934118,-0.01003 -0.9882354,-0.02281 z"
   id="path1039" /><path
   style="fill:#25a4e6;fill-opacity:1;stroke-width:0.0282353"
   d="m 6.6249387,20.703529 c 0.070934,-0.151411 0.1689888,-0.36724 0.2178988,-0.47962 l 0.088927,-0.204326 0.7411765,-3.8e-4 c 0.407647,-2.09e-4 0.7411764,0.0059 0.7411764,0.01368 0,0.0077 -0.096988,0.22373 -0.2155286,0.48 L 7.9830603,20.978824 H 7.2395137 6.4959672 Z"
   id="path1041" /><path
   style="fill:#25a4e6;fill-opacity:1;stroke-width:0.0282353"
   d="m 8.0188235,20.961142 c 0,-0.0097 0.088941,-0.212296 0.1976471,-0.450158 0.1087059,-0.237862 0.197647,-0.445905 0.197647,-0.462318 0,-0.02041 0.3169587,-0.02984 1.002353,-0.02984 0.5512941,0 1.0023534,0.0091 1.0023534,0.02023 0,0.01112 -0.09716,0.227125 -0.215905,0.48 L 9.9870154,20.978824 H 9.0029195 c -0.5412528,0 -0.984096,-0.008 -0.984096,-0.01768 z"
   id="path1043" /><path
   style="fill:#25a4e6;fill-opacity:1;stroke-width:0.0282353"
   d="m 8.4776471,20.957996 c -0.2368236,-0.0049 -0.4305883,-0.01326 -0.4305883,-0.01862 0,-0.0054 0.082588,-0.195811 0.1835294,-0.423231 0.1009412,-0.227419 0.1835294,-0.425999 0.1835294,-0.441288 0,-0.01662 0.1561651,-0.03009 0.3882353,-0.0335 0.425144,-0.0062 1.5689781,0.0083 1.5826831,0.02014 0.0047,0.0041 -0.08472,0.20895 -0.198747,0.455298 L 9.9789766,20.9647 9.4436059,20.9658 C 9.1491521,20.966396 8.7144706,20.9629 8.4776471,20.958 Z"
   id="path1045" /><path
   style="fill:#25a4e6;fill-opacity:1;stroke-width:0.0282353"
   d="m 10.023529,20.954724 c 0,-0.01325 0.0823,-0.197296 0.182884,-0.408981 0.100586,-0.211685 0.190904,-0.41684 0.200708,-0.4559 l 0.01782,-0.07102 h 0.757686 0.757686 l -0.09407,0.204705 c -0.05174,0.112589 -0.151928,0.328589 -0.222639,0.48 l -0.128564,0.275295 h -0.735755 c -0.404666,0 -0.735756,-0.01084 -0.735756,-0.0241 z"
   id="path1047" /><path
   style="fill:#25a4e6;fill-opacity:1;stroke-width:0.0282353"
   d="m 11.524706,20.955013 c 0.0052,-0.0131 0.103401,-0.227667 0.218276,-0.476824 l 0.208864,-0.453012 0.163051,-0.01845 c 0.478385,-0.05412 0.855551,-0.457492 0.893196,-0.955247 0.01967,-0.260138 -0.03347,-0.976835 -0.105967,-1.429101 -0.05672,-0.353837 -0.194944,-0.968563 -0.25026,-1.112983 -0.02671,-0.06974 -0.01114,-0.118592 0.135021,-0.423529 0.09087,-0.189581 0.2268,-0.476444 0.302068,-0.637473 l 0.136851,-0.29278 0.178511,0.53278 c 0.212062,0.632913 0.323997,1.049844 0.417119,1.553675 0.08235,0.445539 0.155035,1.10976 0.155035,1.416746 v 0.222778 l -0.487059,1.048539 -0.487059,1.048539 -0.743529,8.4e-5 c -0.408942,3.2e-5 -0.739295,-0.01065 -0.734118,-0.02374 z"
   id="path1049" /><path
   style="fill:#25a4e6;fill-opacity:1;stroke-width:0.0282353"
   d="m 11.881078,20.952334 -0.330686,-0.01586 0.203451,-0.445896 c 0.152581,-0.334405 0.217615,-0.448524 0.260098,-0.456409 0.314117,-0.0583 0.397125,-0.08664 0.547099,-0.186791 0.190578,-0.127263 0.340765,-0.330587 0.414468,-0.561106 0.04212,-0.131729 0.04666,-0.222656 0.03171,-0.635294 -0.02464,-0.680218 -0.130746,-1.38749 -0.302444,-2.015998 l -0.05665,-0.207375 0.125646,-0.272625 c 0.06911,-0.149943 0.198207,-0.425095 0.286893,-0.611448 l 0.161246,-0.338823 0.124464,0.367059 c 0.377116,1.112158 0.532933,1.850072 0.602324,2.852468 l 0.02927,0.422826 -0.492791,1.058823 -0.492791,1.058824 -0.390308,0.0017 c -0.21467,9.6e-4 -0.539117,-0.0054 -0.720995,-0.01412 z"
   id="path1051" /><path
   style="fill:#25a4e6;fill-opacity:1;stroke-width:0.0282353"
   d="m 13.167635,20.661176 c 0.08197,-0.174705 0.294313,-0.632227 0.471876,-1.016715 0.318639,-0.689966 0.322957,-0.697347 0.331647,-0.566876 0.01178,0.176863 -0.06157,0.493925 -0.164726,0.712054 -0.04624,0.09778 -0.08408,0.189349 -0.08408,0.203484 0,0.01488 0.363455,0.0257 0.863529,0.0257 0.490414,0 0.859463,0.01082 0.854118,0.02504 -0.0052,0.01377 -0.104059,0.229771 -0.21974,0.48 l -0.210328,0.454963 H 14.014266 13.0186 Z"
   id="path1053" /><path
   style="fill:#25a4e6;fill-opacity:1;stroke-width:0.0282353"
   d="m 15.049412,20.955758 c 0,-0.01269 0.08894,-0.214743 0.197647,-0.449016 0.108706,-0.234273 0.197647,-0.439894 0.197647,-0.456935 0,-0.02203 0.363987,-0.03098 1.258823,-0.03098 0.692353,0 1.254589,0.0108 1.249412,0.02401 -0.0052,0.0132 -0.104706,0.229009 -0.221176,0.479568 L 17.52,20.977961 l -1.235294,4.31e-4 c -0.679412,2.37e-4 -1.235294,-0.0099 -1.235294,-0.02263 z"
   id="path1055" /><path
   style="fill:#25a4e6;fill-opacity:1;stroke-width:0.0282353"
   d="m 17.755497,20.499972 0.216268,-0.478852 0.997647,-0.0011 c 0.548706,-6.32e-4 0.993412,0.0098 0.988235,0.02314 -0.0052,0.01336 -0.104605,0.229359 -0.220952,0.48 l -0.21154,0.455711 H 18.532192 17.53923 Z"
   id="path1057" /><path
   style="fill:#25a4e6;fill-opacity:1;stroke-width:0.0282353"
   d="m 19.760203,20.499972 0.216268,-0.478852 0.740251,-0.0011 0.740252,-0.0011 -0.127877,0.275294 c -0.07033,0.151411 -0.168386,0.367169 -0.217899,0.479461 l -0.09002,0.204167 -0.73862,5.39e-4 -0.73862,5.39e-4 z"
   id="path1059" /><path
   style="fill:#25a4e6;fill-opacity:1;stroke-width:0.0282353"
   d="m 8.6962074,11.978824 c -1.448e-4,-0.01165 0.098326,-0.233985 0.2188236,-0.494083 l 0.2190866,-0.472906 0.4859935,-3.5e-5 0.4859929,-3.5e-5 -0.1570067,0.331764 C 9.8627434,11.526 9.7599149,11.748353 9.7205897,11.837647 L 9.6490892,12 H 9.1727799 C 8.9108098,12 8.6963522,11.9905 8.6962074,11.97882 Z"
   id="path1061" /><path
   style="fill:#25a4e6;fill-opacity:1;stroke-width:0.0282353"
   d="m 6.1835288,11.978824 c -4e-7,-0.01165 0.09847,-0.23395 0.2188235,-0.494006 l 0.2188242,-0.472829 0.2329411,-1.12e-4 c 0.1281177,-6.2e-5 0.2329412,0.0039 0.2329412,0.0088 0,0.0049 -0.095294,0.21096 -0.2117647,0.457916 -0.1164706,0.246957 -0.2117647,0.465303 -0.2117647,0.485214 0,0.02661 -0.063614,0.0362 -0.24,0.0362 -0.132,0 -0.2400003,-0.0095 -0.2400006,-0.02118 z"
   id="path1063" /><path
   style="fill:#25a4e6;fill-opacity:1;stroke-width:0.0282353"
   d="m 19.582564,12.143421 c -0.01236,-0.02 -0.0749,-0.06017 -0.138989,-0.08927 l -0.116516,-0.05291 0.162353,-6.2e-4 c 0.168057,-6.42e-4 0.181315,0.01141 0.137004,0.124565 -0.01604,0.04096 -0.02699,0.04551 -0.04385,0.01824 z"
   id="path1065" /></svg>
