<svg width="285" height="285" viewBox="0 0 285 285" fill="none" xmlns="http://www.w3.org/2000/svg">
<g clip-path="url(#clip0)">
<path d="M2.84671 89.6444L135.901 222.689C137.802 224.592 139.989 225.545 142.463 225.545C144.937 225.545 147.128 224.592 149.03 222.689L282.073 89.6444C283.979 87.7384 284.929 85.5514 284.929 83.0764C284.929 80.6024 283.976 78.4124 282.073 76.5104L267.801 62.2394C265.898 60.3364 263.708 59.3854 261.234 59.3854C258.76 59.3854 256.57 60.3364 254.667 62.2394L142.463 174.441L30.2547 62.2324C28.3527 60.3294 26.1617 59.3844 23.6917 59.3844C21.2137 59.3844 19.0237 60.3354 17.1217 62.2324L2.84772 76.5094C0.945709 78.4114 0.000701904 80.6024 0.000701904 83.0754C-0.000305176 85.5514 0.944702 87.7414 2.84671 89.6444Z" fill="#0A3C5D"/>
</g>
<defs>
<clipPath id="clip0">
<rect width="284.929" height="284.929" fill="white" transform="translate(284.929 284.929) rotate(-180)"/>
</clipPath>
</defs>
</svg>
