<svg width="1084" height="136" viewBox="0 0 1084 136" fill="none" xmlns="http://www.w3.org/2000/svg">
<path d="M559.6 63.77C570.027 64.9967 577.463 68.5234 581.91 74.35C586.357 80.0234 588.58 86.9234 588.58 95.05C588.58 100.11 587.813 104.94 586.28 109.54C584.747 113.987 582.907 117.82 580.76 121.04C578.613 124.107 576.773 126.1 575.24 127.02C569.107 131.007 550.4 133 519.12 133H474.5V1.90003H528.55C540.817 1.90003 550.707 2.59003 558.22 3.97003C565.887 5.1967 572.097 8.11004 576.85 12.71C581.603 17.1567 583.98 23.98 583.98 33.18C583.98 41.1534 581.987 47.5934 578 52.5C574.167 57.4067 568.033 60.78 559.6 62.62V63.77ZM541.2 29.73C539.667 28.1967 537.827 27.2767 535.68 26.97C533.687 26.51 530.467 26.28 526.02 26.28C521.573 26.28 518.2 26.3567 515.9 26.51V54.57H518.2C518.967 54.57 522.187 54.57 527.86 54.57C533.533 54.57 537.29 54.1867 539.13 53.42C540.51 52.8067 541.737 51.1967 542.81 48.59C544.037 45.9834 544.65 43.1467 544.65 40.08C544.65 35.48 543.5 32.03 541.2 29.73ZM545.11 106.55C546.183 105.63 547.027 103.943 547.64 101.49C548.407 98.8834 548.79 96.2767 548.79 93.67C548.79 90.45 548.33 87.46 547.41 84.7C546.643 81.7867 545.57 79.7167 544.19 78.49C542.81 77.11 540.817 76.19 538.21 75.73C535.757 75.27 531.54 75.04 525.56 75.04C521.727 75.04 518.507 75.1167 515.9 75.27V108.62C523.107 108.773 529.547 108.697 535.22 108.39C540.893 107.93 544.19 107.317 545.11 106.55Z" fill="#328BC3"/>
<path d="M662.936 135.99C640.09 135.99 622.916 130.623 611.416 119.89C600.07 109.003 594.396 91.6 594.396 67.68C594.396 44.22 600.683 27.1234 613.256 16.39C625.83 5.6567 642.466 0.290039 663.166 0.290039C706.713 0.290039 728.486 21.9867 728.486 65.38C728.486 87.3067 723.12 104.557 712.386 117.13C701.806 129.703 685.323 135.99 662.936 135.99ZM662.016 108.85C666.31 108.85 669.913 108.16 672.826 106.78C675.74 105.247 678.04 102.64 679.726 98.96C682.946 92.6734 684.556 82.4 684.556 68.14C684.556 54.1867 682.946 44.0667 679.726 37.78C676.506 31.34 670.603 27.9667 662.016 27.66C658.796 27.66 655.423 28.0434 651.896 28.81C648.523 29.4234 646.376 30.3434 645.456 31.57C643.616 33.7167 642.16 38.3167 641.086 45.37C640.166 52.27 639.706 59.86 639.706 68.14C639.706 81.02 640.933 90.45 643.386 96.43C645.073 100.877 647.45 104.097 650.516 106.09C653.583 107.93 657.416 108.85 662.016 108.85Z" fill="#328BC3"/>
<path d="M739.429 1.90003H780.829V102.64H834.419V133H739.429V1.90003Z" fill="#328BC3"/>
<path d="M880.094 37.32C880.094 40.54 881.704 43.07 884.924 44.91C888.298 46.75 893.511 48.7434 900.564 50.89C908.998 53.65 915.898 56.3334 921.264 58.94C926.784 61.5467 931.538 65.61 935.524 71.13C939.664 76.65 941.734 83.8567 941.734 92.75C941.734 121.27 923.181 135.53 886.074 135.53C879.941 135.53 872.428 134.993 863.534 133.92C854.794 132.847 846.821 131.467 839.614 129.78C839.921 126.56 840.534 121.883 841.454 115.75C842.528 109.463 843.524 104.787 844.444 101.72C849.811 102.487 857.861 103.407 868.594 104.48C879.481 105.553 887.684 106.09 893.204 106.09C896.424 106.09 898.341 105.86 898.954 105.4C899.874 104.787 900.564 103.79 901.024 102.41C901.638 100.877 901.944 99.5734 901.944 98.5C901.944 95.4334 900.488 93.1334 897.574 91.6C894.661 89.9134 889.678 87.92 882.624 85.62C874.191 83.0134 867.214 80.33 861.694 77.57C856.174 74.81 851.344 70.5167 847.204 64.69C843.064 58.8634 840.994 51.1967 840.994 41.69C840.994 34.9434 842.528 28.35 845.594 21.91C848.661 15.3167 851.804 10.87 855.024 8.57004C857.478 6.88337 862.538 5.27337 870.204 3.74004C877.871 2.2067 885.078 1.44004 891.824 1.44004C908.998 1.44004 923.028 3.05004 933.914 6.27004C933.761 9.33671 933.224 13.5534 932.304 18.92C931.538 24.2867 930.694 29.1934 929.774 33.64L924.484 33.41C904.551 32.03 891.824 31.34 886.304 31.34C884.004 31.34 882.701 31.4167 882.394 31.57C881.781 31.8767 881.244 32.5667 880.784 33.64C880.324 34.7134 880.094 35.94 880.094 37.32Z" fill="#328BC3"/>
<path d="M1017.78 135.99C994.937 135.99 977.763 130.623 966.263 119.89C954.917 109.003 949.243 91.6 949.243 67.68C949.243 44.22 955.53 27.1234 968.103 16.39C980.677 5.6567 997.313 0.290039 1018.01 0.290039C1061.56 0.290039 1083.33 21.9867 1083.33 65.38C1083.33 87.3067 1077.97 104.557 1067.23 117.13C1056.65 129.703 1040.17 135.99 1017.78 135.99ZM1016.86 108.85C1021.16 108.85 1024.76 108.16 1027.67 106.78C1030.59 105.247 1032.89 102.64 1034.57 98.96C1037.79 92.6734 1039.4 82.4 1039.4 68.14C1039.4 54.1867 1037.79 44.0667 1034.57 37.78C1031.35 31.34 1025.45 27.9667 1016.86 27.66C1013.64 27.66 1010.27 28.0434 1006.74 28.81C1003.37 29.4234 1001.22 30.3434 1000.3 31.57C998.463 33.7167 997.007 38.3167 995.933 45.37C995.013 52.27 994.553 59.86 994.553 68.14C994.553 81.02 995.78 90.45 998.233 96.43C999.92 100.877 1002.3 104.097 1005.36 106.09C1008.43 107.93 1012.26 108.85 1016.86 108.85Z" fill="#328BC3"/>
<path d="M79.27 133H37.87V30.65H0.84V1.90003H116.3V30.65H79.27V133Z" fill="#0A3C5D"/>
<path d="M121.493 1.90003H216.943V29.5H162.893V53.42H208.433V78.26H162.893V104.94H216.713V133H121.493V1.90003Z" fill="#0A3C5D"/>
<path d="M327.489 128.63C321.815 131.083 315.222 132.847 307.709 133.92C300.195 134.993 293.219 135.53 286.779 135.53C265.925 135.53 249.595 130.087 237.789 119.2C225.982 108.313 220.079 91.6 220.079 69.06C220.079 46.06 226.289 28.8867 238.709 17.54C251.129 6.04004 268.608 0.290039 291.149 0.290039C301.882 0.290039 313.075 1.74671 324.729 4.66004C324.729 7.7267 324.422 12.3267 323.809 18.46C323.195 24.44 322.582 28.6567 321.969 31.11H307.479C296.899 31.11 288.542 31.34 282.409 31.8C276.429 32.1067 272.825 32.7967 271.599 33.87C269.299 36.0167 267.535 40.3867 266.309 46.98C265.082 53.42 264.469 59.63 264.469 65.61C264.469 76.0367 265.772 84.0867 268.379 89.76C270.985 95.28 274.282 98.96 278.269 100.8C282.102 102.64 288.465 103.56 297.359 103.56C304.412 103.56 313.612 102.947 324.959 101.72L327.489 128.63Z" fill="#0A3C5D"/>
<path d="M335.928 1.90003H377.558V49.97H413.208V1.90003H454.838V133H413.208V76.42H377.558V133H335.928V1.90003Z" fill="#0A3C5D"/>
</svg>
