<svg width="368" height="472" viewBox="0 0 368 472" fill="none" xmlns="http://www.w3.org/2000/svg">
<path d="M65.3422 238.557H270.397C279.53 238.557 288.289 241.495 294.746 246.725C301.204 251.954 304.832 259.047 304.832 266.443V274.512H65.3422C62.4264 274.512 59.5393 274.047 56.8458 273.143C54.1523 272.239 51.7052 270.914 49.6445 269.243C47.5838 267.573 45.9499 265.59 44.8361 263.408C43.7222 261.226 43.1504 258.887 43.1533 256.526V256.526C43.1533 254.166 43.7273 251.83 44.8424 249.65C45.9574 247.469 47.5919 245.489 49.6523 243.82C51.7127 242.151 54.1588 240.828 56.8509 239.925C59.5429 239.022 62.4283 238.557 65.3422 238.557V238.557Z" fill="#328BC3"/>
<path d="M90.6874 266.088C84.7973 266.088 79.1483 264.193 74.9833 260.82C70.8184 257.447 68.4785 252.872 68.4785 248.101V248.101C68.4764 244.724 69.6558 241.414 71.8801 238.557H65.3403C62.4267 238.557 59.5416 239.022 56.8497 239.925C54.1579 240.828 51.712 242.151 49.6517 243.82C47.5915 245.489 45.9572 247.469 44.8422 249.65C43.7272 251.83 43.1533 254.166 43.1533 256.526V256.526C43.1533 261.293 45.4902 265.865 49.6504 269.238C53.8106 272.611 59.4539 274.508 65.3403 274.512H304.832V266.088H90.6874Z" fill="#1E2631"/>
<path d="M182.91 317.405C214.869 317.405 240.778 291.47 240.778 259.477C240.778 227.484 214.869 201.549 182.91 201.549C150.95 201.549 125.042 227.484 125.042 259.477C125.042 291.47 150.95 317.405 182.91 317.405Z" fill="#8A7972"/>
<path d="M182.91 310.504C211.252 310.504 234.227 287.659 234.227 259.477C234.227 231.295 211.252 208.45 182.91 208.45C154.569 208.45 131.594 231.295 131.594 259.477C131.594 287.659 154.569 310.504 182.91 310.504Z" fill="#C1B9AE"/>
<path d="M182.546 304.33C207.47 304.33 227.675 284.168 227.675 259.296C227.675 234.424 207.47 214.261 182.546 214.261C157.621 214.261 137.416 234.424 137.416 259.296C137.416 284.168 157.621 304.33 182.546 304.33Z" fill="#BCB3A8"/>
<path fill-rule="evenodd" clip-rule="evenodd" d="M197.88 232.236C197.732 232.384 197.61 233.296 197.61 234.263V236.022L195.235 236.461C184.221 238.497 184.121 252.368 195.082 257.74L197.61 258.979V264.405V269.83L196.375 269.573C194.678 269.22 192.073 268.064 190.891 267.14C189.051 265.701 186.827 267.002 185.749 270.148C184.931 272.534 190.931 275.787 196.185 275.808L197.61 275.813V278.039C197.61 280.513 197.815 280.723 200.225 280.723C202.12 280.723 202.55 280.186 202.55 277.815C202.55 276.132 202.66 275.813 203.241 275.813C208.854 275.813 213.001 270.802 212.742 264.332C212.522 258.838 210.689 256.222 205.404 253.86L202.551 252.585L202.551 247.589L202.55 242.592L203.595 243.033C204.17 243.274 205.184 243.866 205.85 244.346C207.76 245.726 208.802 245.175 210.515 241.88C211.545 239.897 209.003 237.679 204.374 236.521L202.587 236.075L202.474 234.132L202.36 232.189L200.255 232.079C199.097 232.018 198.028 232.088 197.88 232.236ZM152.391 236.784C151.304 237.241 151.262 237.945 151.256 256.003C151.25 276.822 150.881 275.058 155.241 275.058C159.424 275.058 159.231 275.458 159.231 266.813V259.475L161.19 259.733C165.217 260.264 167.364 262.175 171.371 268.794C175.332 275.337 175.04 275.112 179.412 274.978C184.105 274.834 184.105 274.884 179.335 267.393C175.47 261.324 172.746 258.081 171.479 258.04C171.117 258.029 171.87 257.688 173.154 257.284C184.647 253.663 184.678 240.158 173.199 237.457C170.37 236.791 153.659 236.251 152.391 236.784ZM197.61 246.542C197.61 250.823 197.5 251.002 195.752 249.541C193.661 247.792 193.693 244.607 195.815 243.321C197.61 242.233 197.61 242.233 197.61 246.542ZM170.668 244.08C172.712 244.661 173.48 245.714 173.48 247.934C173.48 251.471 170.712 252.774 163.202 252.774H159.231V247.994V243.215L164.265 243.453C167.035 243.584 169.916 243.867 170.668 244.08ZM205.049 262.649C206.01 264.496 205.755 267.021 204.479 268.289C202.698 270.059 202.55 269.812 202.55 265.057V260.722L203.529 261.165C204.067 261.409 204.751 262.076 205.049 262.649Z" fill="#40332E"/>
<path fill-rule="evenodd" clip-rule="evenodd" d="M199.336 231.51C199.187 231.657 199.066 232.57 199.066 233.537V235.296L196.691 235.735C185.677 237.771 185.577 251.641 196.537 257.014L199.066 258.253V263.679V269.104L197.831 268.847C196.133 268.493 193.529 267.338 192.347 266.414C190.507 264.975 188.283 266.276 187.205 269.422C186.387 271.807 192.386 275.061 197.641 275.082L199.066 275.087V277.313C199.066 279.787 199.271 279.997 201.681 279.997C203.576 279.997 204.006 279.459 204.006 277.089C204.006 275.406 204.116 275.087 204.697 275.087C210.31 275.087 214.457 270.076 214.198 263.606C213.978 258.112 212.145 255.496 206.86 253.134L204.007 251.859L204.006 246.863L204.006 241.866L205.051 242.306C205.626 242.548 206.64 243.14 207.306 243.62C209.216 245 210.258 244.449 211.97 241.154C213.001 239.171 210.459 236.953 205.829 235.795L204.043 235.349L203.929 233.406L203.816 231.463L201.711 231.352C200.553 231.291 199.484 231.362 199.336 231.51ZM153.846 236.058C152.759 236.515 152.718 237.219 152.712 255.277C152.705 276.096 152.337 274.332 156.696 274.332C160.88 274.332 160.686 274.731 160.686 266.087V258.749L162.646 259.007C166.673 259.538 168.82 261.449 172.827 268.068C176.788 274.61 176.496 274.386 180.868 274.252C185.561 274.108 185.561 274.158 180.79 266.667C176.925 260.598 174.202 257.355 172.935 257.314C172.572 257.303 173.326 256.962 174.61 256.558C186.103 252.937 186.134 239.432 174.655 236.731C171.826 236.065 155.114 235.525 153.846 236.058ZM199.066 245.816C199.066 250.097 198.955 250.276 197.208 248.815C195.117 247.066 195.149 243.881 197.271 242.595C199.066 241.507 199.066 241.507 199.066 245.816ZM172.124 243.354C174.168 243.935 174.936 244.988 174.936 247.208C174.936 250.744 172.168 252.048 164.658 252.048H160.686V247.268V242.489L165.721 242.727C168.491 242.858 171.372 243.14 172.124 243.354ZM206.504 261.923C207.465 263.77 207.211 266.295 205.935 267.562C204.153 269.333 204.006 269.086 204.006 264.331V259.996L204.984 260.439C205.523 260.682 206.207 261.35 206.504 261.923Z" fill="#DDD7CC"/>
<path d="M282.731 274.485H65.4209C59.5344 274.479 53.891 272.141 49.7306 267.986C45.5703 263.83 43.2334 258.196 43.2334 252.322V451.349C43.2334 454.023 43.7615 456.67 44.7874 459.14C45.8134 461.61 47.3171 463.854 49.2126 465.743C51.1082 467.633 53.3583 469.131 55.8344 470.152C58.3105 471.173 60.964 471.697 63.6433 471.694H317.274C319.954 471.697 322.607 471.173 325.083 470.152C327.559 469.131 329.809 467.633 331.705 465.743C333.6 463.854 335.104 461.61 336.13 459.14C337.156 456.67 337.684 454.023 337.684 451.349V294.852C337.684 289.45 335.534 284.27 331.706 280.45C327.879 276.63 322.687 274.485 317.274 274.485H282.731Z" fill="#328BC3"/>
<path d="M259.82 340.315H342.82C346.207 340.315 349.456 341.658 351.851 344.049C354.247 346.439 355.592 349.681 355.592 353.061V386.546C355.592 389.927 354.247 393.169 351.851 395.559C349.456 397.949 346.207 399.292 342.82 399.292H259.82C255.939 399.292 252.096 398.529 248.51 397.046C244.925 395.564 241.668 393.39 238.924 390.651C236.181 387.911 234.006 384.659 232.523 381.08C231.039 377.501 230.277 373.666 230.28 369.793C230.28 361.975 233.392 354.477 238.932 348.949C244.472 343.421 251.985 340.315 259.82 340.315Z" fill="#0A3C5D"/>
<path d="M263.77 380.677C269.794 380.677 274.678 375.804 274.678 369.793C274.678 363.782 269.794 358.909 263.77 358.909C257.747 358.909 252.863 363.782 252.863 369.793C252.863 375.804 257.747 380.677 263.77 380.677Z" fill="#DDD7CC"/>
<path d="M339.476 104.109C300.607 57.9734 243.856 31.4953 183.792 31.4953C123.728 31.4953 66.9767 57.9732 28.1074 104.119C25.1811 107.59 20.9944 109.382 16.769 109.382C13.4098 109.382 10.0521 108.243 7.27878 105.919L7.27826 105.918C1.02069 100.678 0.214028 91.3803 5.46462 85.1487L5.46473 85.1486C49.989 32.2962 114.978 2 183.792 2C252.607 2 317.606 32.2963 362.119 85.1484L362.12 85.1499C367.37 91.3699 366.562 100.677 360.317 105.907L360.313 105.91C357.545 108.24 354.179 109.371 350.814 109.371C346.589 109.371 342.403 107.58 339.476 104.109ZM339.476 104.109L337.946 105.397L339.475 104.108C339.475 104.108 339.476 104.109 339.476 104.109ZM58.6719 148.937L58.6713 148.936C52.4139 143.696 51.6076 134.398 56.8577 128.167C88.5476 90.5541 134.805 68.9895 183.792 68.9895C232.78 68.9895 279.037 90.5546 310.739 128.167L310.74 128.168C315.988 134.388 315.183 143.695 308.925 148.936L308.922 148.939C306.153 151.269 302.787 152.4 299.423 152.4C295.207 152.4 291.022 150.618 288.097 147.139L288.096 147.138C262.05 116.221 224.03 98.4842 183.793 98.4842C143.556 98.4842 105.535 116.22 79.5003 147.138L79.499 147.14C76.5846 150.608 72.3995 152.4 68.1735 152.4C64.8123 152.4 61.4441 151.26 58.6719 148.937ZM108.239 171.196L108.239 171.196C127.083 148.813 154.621 135.979 183.792 135.979C212.963 135.979 240.501 148.813 259.345 171.196L259.346 171.196C264.596 177.427 263.79 186.725 257.532 191.966L257.528 191.969C254.761 194.299 251.395 195.429 248.03 195.429C243.813 195.429 239.629 193.648 236.704 190.169L236.703 190.168C223.492 174.479 204.202 165.473 183.792 165.473C163.382 165.473 144.094 174.479 130.881 190.168L130.88 190.169C127.966 193.637 123.781 195.429 119.555 195.429C116.193 195.429 112.825 194.289 110.053 191.966L110.052 191.966C103.795 186.725 102.988 177.428 108.239 171.196Z" fill="#BCB3A8" stroke="#8A7972" stroke-width="4"/>
</svg>
