<svg width="168" height="92" viewBox="0 0 168 92" fill="none" xmlns="http://www.w3.org/2000/svg">
<path d="M48.16 3.23999C49.12 2.19999 49.88 1.55999 50.44 1.32C51.08 1.08 52.12 0.959995 53.56 0.959995H71.56C73.08 0.959995 73.72 1.71999 73.48 3.23999L66.52 52.8C66.44 53.12 66.44 53.36 66.52 53.52C66.6 53.6 66.84 53.64 67.24 53.64H77.08C77.88 53.64 78.44 53.8 78.76 54.12C79.08 54.36 79.2 54.84 79.12 55.56L77.32 68.16C77.16 68.88 76.92 69.36 76.6 69.6C76.36 69.84 75.8 69.96 74.92 69.96H65.44C65.04 69.96 64.68 70.12 64.36 70.44C64.04 70.68 63.84 71.08 63.76 71.64L61.6 87.48C61.52 88.52 61.24 89.2 60.76 89.52C60.28 89.84 59.4 90 58.12 90H40C37.84 90 36.88 89.16 37.12 87.48L39.4 70.92V70.56C39.4 70.32 39.28 70.16 39.04 70.08C38.88 70 38.64 69.96 38.32 69.96H2.56C0.88 69.96 0.16 69.28 0.4 67.92L2.2 55.68C2.28 54.88 2.6 54.04 3.16 53.16C3.72 52.2 4.72 50.88 6.16 49.2L48.16 3.23999ZM40.6 53.64C41.16 53.64 41.56 53.56 41.8 53.4C42.04 53.16 42.2 52.76 42.28 52.2L46 26.28V25.92C46 25.44 45.92 25.2 45.76 25.2C45.44 25.2 45 25.6 44.44 26.4L21.76 52.32C21.28 52.88 21.04 53.24 21.04 53.4C21.12 53.56 21.36 53.64 21.76 53.64H40.6ZM159.655 56.52C157.895 69.16 153.535 78.12 146.575 83.4C139.615 88.6 130.215 91.2 118.375 91.2C106.695 91.2 98.215 88.84 92.935 84.12C87.655 79.32 85.015 72.2 85.015 62.76C85.015 60.28 85.295 57 85.855 52.92L92.815 2.88C92.895 2.07999 93.055 1.55999 93.295 1.32C93.615 1.08 94.095 0.959995 94.735 0.959995H114.895C115.535 0.959995 116.055 1.28 116.455 1.92C116.935 2.47999 117.095 3.16 116.935 3.96L109.495 57C109.175 59.56 109.015 61.28 109.015 62.16C109.015 66.4 110.015 69.44 112.015 71.28C114.095 73.12 117.095 74.04 121.015 74.04C125.895 74.04 130.015 72.56 133.375 69.6C136.815 66.56 138.975 61.8 139.855 55.32L147.295 2.88C147.375 2.07999 147.535 1.55999 147.775 1.32C148.015 1.08 148.455 0.959995 149.095 0.959995H165.055C165.695 0.959995 166.215 1.28 166.615 1.92C167.015 2.56 167.175 3.24 167.095 3.96L159.655 56.52Z" fill="#0A3C5D"/>
</svg>
