<svg width="283" height="283" viewBox="0 0 283 283" fill="none" xmlns="http://www.w3.org/2000/svg">
<path d="M141.5 148.575H41.4734C39.597 148.575 37.7975 147.829 36.4707 146.503C35.1438 145.176 34.3984 143.376 34.3984 141.5V65.2879C34.4059 57.0978 37.6628 49.2453 43.454 43.454C49.2453 37.6628 57.0978 34.4059 65.2879 34.3984H141.5C143.376 34.3984 145.176 35.1438 146.503 36.4707C147.829 37.7975 148.575 39.597 148.575 41.4734V141.5C148.575 143.376 147.829 145.176 146.503 146.503C145.176 147.829 143.376 148.575 141.5 148.575ZM48.5484 134.425H134.425V48.5484H65.2879C60.8506 48.5559 56.5972 50.3219 53.4596 53.4596C50.3219 56.5972 48.5559 60.8506 48.5484 65.2879V134.425Z" fill="black"/>
<path d="M113.2 98.569H69.7449C67.8685 98.569 66.069 97.8235 64.7421 96.4967C63.4153 95.1699 62.6699 93.3704 62.6699 91.494C62.6699 89.6175 63.4153 87.818 64.7421 86.4912C66.069 85.1643 67.8685 84.4189 69.7449 84.4189H113.2C115.076 84.4189 116.876 85.1643 118.202 86.4912C119.529 87.818 120.275 89.6175 120.275 91.494C120.275 93.3704 119.529 95.1699 118.202 96.4967C116.876 97.8235 115.076 98.569 113.2 98.569Z" fill="black"/>
<path d="M91.494 120.275C89.6175 120.275 87.818 119.53 86.4912 118.203C85.1643 116.876 84.4189 115.076 84.4189 113.2V69.7454C84.4189 67.869 85.1643 66.0694 86.4912 64.7426C87.818 63.4158 89.6175 62.6704 91.494 62.6704C93.3704 62.6704 95.1699 63.4158 96.4967 64.7426C97.8235 66.0694 98.569 67.869 98.569 69.7454V113.2C98.569 115.076 97.8235 116.876 96.4967 118.203C95.1699 119.53 93.3704 120.275 91.494 120.275Z" fill="black"/>
<path d="M241.342 148.575H141.33C139.453 148.575 137.654 147.829 136.327 146.503C135 145.176 134.255 143.376 134.255 141.5V41.4734C134.255 39.597 135 37.7975 136.327 36.4707C137.654 35.1438 139.453 34.3984 141.33 34.3984H217.542C225.729 34.4097 233.578 37.6682 239.366 43.459C245.155 49.2499 248.41 57.1002 248.417 65.2879V141.5C248.417 143.376 247.672 145.176 246.345 146.503C245.018 147.829 243.218 148.575 241.342 148.575ZM148.405 134.425H234.267V65.2879C234.263 60.8519 232.5 56.5985 229.365 53.4604C226.23 50.3224 221.978 48.5559 217.542 48.5484H148.405V134.425Z" fill="black"/>
<path d="M213.071 98.569H169.588C167.711 98.569 165.912 97.8235 164.585 96.4967C163.258 95.1699 162.513 93.3704 162.513 91.494C162.513 89.6175 163.258 87.818 164.585 86.4912C165.912 85.1643 167.711 84.4189 169.588 84.4189H213.071C214.947 84.4189 216.747 85.1643 218.073 86.4912C219.4 87.818 220.146 89.6175 220.146 91.494C220.146 93.3704 219.4 95.1699 218.073 96.4967C216.747 97.8235 214.947 98.569 213.071 98.569V98.569Z" fill="black"/>
<path d="M141.5 247.526H65.2879C57.1002 247.518 49.2499 244.264 43.459 238.475C37.6682 232.687 34.4097 224.838 34.3984 216.651V140.425C34.3984 138.548 35.1438 136.749 36.4707 135.422C37.7975 134.095 39.597 133.35 41.4734 133.35H141.5C143.376 133.35 145.176 134.095 146.503 135.422C147.829 136.749 148.575 138.548 148.575 140.425V240.451C148.575 242.327 147.829 244.127 146.503 245.454C145.176 246.781 143.376 247.526 141.5 247.526V247.526ZM48.5484 147.5V216.651C48.5597 221.085 50.3273 225.335 53.4646 228.47C56.6018 231.604 60.8531 233.368 65.2879 233.376H134.425V147.5H48.5484Z" fill="black"/>
<path d="M106.861 212.887C104.995 212.887 103.205 212.149 101.88 210.835L71.1179 180.073C70.4422 179.42 69.9032 178.64 69.5324 177.777C69.1616 176.913 68.9664 175.985 68.9583 175.046C68.9501 174.106 69.1291 173.175 69.4849 172.305C69.8406 171.436 70.3659 170.646 71.0302 169.981C71.6945 169.317 72.4845 168.792 73.3539 168.436C74.2234 168.08 75.1551 167.901 76.0945 167.909C77.0339 167.918 77.9623 168.113 78.8255 168.484C79.6886 168.854 80.4693 169.393 81.122 170.069L111.87 200.817C112.857 201.807 113.529 203.068 113.8 204.44C114.071 205.811 113.93 207.232 113.394 208.524C112.858 209.815 111.951 210.919 110.789 211.696C109.626 212.472 108.259 212.887 106.861 212.887V212.887Z" fill="black"/>
<path d="M76.1131 212.887C74.7161 212.884 73.3512 212.467 72.1906 211.69C71.03 210.912 70.1256 209.808 69.5914 208.517C69.0572 207.227 68.9171 205.806 69.1888 204.436C69.4605 203.066 70.1318 201.806 71.1181 200.817L101.88 170.069C102.533 169.393 103.314 168.854 104.177 168.484C105.04 168.113 105.968 167.918 106.908 167.909C107.847 167.901 108.779 168.08 109.648 168.436C110.518 168.792 111.308 169.317 111.972 169.981C112.636 170.646 113.162 171.436 113.517 172.305C113.873 173.175 114.052 174.106 114.044 175.046C114.036 175.985 113.841 176.913 113.47 177.777C113.099 178.64 112.56 179.42 111.884 180.073L81.1222 210.835C79.7905 212.156 77.9887 212.894 76.1131 212.887V212.887Z" fill="black"/>
<path d="M217.542 247.526H141.33C139.453 247.526 137.654 246.781 136.327 245.454C135 244.127 134.255 242.327 134.255 240.451V140.425C134.255 138.548 135 136.749 136.327 135.422C137.654 134.095 139.453 133.35 141.33 133.35H241.342C243.218 133.35 245.018 134.095 246.345 135.422C247.672 136.749 248.417 138.548 248.417 140.425V216.651C248.406 224.836 245.149 232.683 239.362 238.47C233.574 244.258 225.727 247.515 217.542 247.526V247.526ZM148.405 233.376H217.542C221.975 233.368 226.225 231.604 229.36 228.469C232.495 225.334 234.26 221.084 234.267 216.651V147.5H148.405V233.376Z" fill="black"/>
<path d="M213.071 197.52H169.588C167.711 197.52 165.912 196.774 164.585 195.447C163.258 194.121 162.513 192.321 162.513 190.445C162.513 188.568 163.258 186.769 164.585 185.442C165.912 184.115 167.711 183.37 169.588 183.37H213.071C214.947 183.37 216.747 184.115 218.073 185.442C219.4 186.769 220.146 188.568 220.146 190.445C220.146 192.321 219.4 194.121 218.073 195.447C216.747 196.774 214.947 197.52 213.071 197.52V197.52Z" fill="black"/>
<path d="M191.336 175.771C190.406 175.773 189.485 175.591 188.626 175.237C187.766 174.882 186.985 174.362 186.327 173.705C186 173.371 185.706 173.006 185.45 172.616C185.197 172.23 184.979 171.823 184.799 171.399C184.624 170.974 184.492 170.533 184.403 170.083C184.304 169.618 184.256 169.143 184.261 168.668C184.258 168.192 184.305 167.718 184.403 167.253C184.492 166.802 184.624 166.362 184.799 165.937C184.982 165.509 185.199 165.098 185.45 164.706C186.359 163.345 187.712 162.342 189.279 161.868C190.845 161.393 192.527 161.476 194.039 162.102C194.463 162.282 194.87 162.5 195.256 162.753C195.646 163.01 196.011 163.303 196.345 163.63C196.668 163.963 196.961 164.323 197.222 164.706C197.473 165.098 197.69 165.509 197.873 165.937C198.048 166.362 198.181 166.802 198.27 167.253C198.367 167.718 198.414 168.192 198.411 168.668C198.416 169.143 198.368 169.618 198.27 170.083C198.181 170.533 198.048 170.974 197.873 171.399C197.693 171.823 197.475 172.23 197.222 172.616C196.957 173.003 196.658 173.368 196.331 173.705C195.005 175.028 193.209 175.771 191.336 175.771V175.771Z" fill="black"/>
<path d="M191.336 219.325C189.46 219.325 187.66 218.58 186.333 217.253C185.006 215.926 184.261 214.126 184.261 212.25C184.257 211.775 184.304 211.3 184.402 210.835C184.492 210.385 184.624 209.944 184.799 209.519C184.979 209.095 185.197 208.688 185.45 208.302C185.703 207.913 185.997 207.553 186.327 207.227C187.315 206.236 188.576 205.56 189.949 205.285C191.321 205.011 192.745 205.15 194.039 205.684C194.463 205.865 194.87 206.082 195.256 206.335C195.65 206.592 196.015 206.891 196.345 207.227C196.671 207.556 196.965 207.916 197.222 208.302C197.475 208.688 197.693 209.095 197.873 209.519C198.048 209.944 198.18 210.385 198.269 210.835C198.368 211.3 198.416 211.775 198.411 212.25C198.415 212.725 198.368 213.2 198.269 213.665C198.18 214.115 198.048 214.556 197.873 214.981C197.693 215.405 197.475 215.812 197.222 216.198C196.964 216.587 196.665 216.947 196.331 217.273C196.005 217.608 195.645 217.907 195.256 218.165C194.87 218.418 194.463 218.635 194.039 218.816C193.614 218.99 193.173 219.123 192.723 219.212C192.266 219.298 191.801 219.336 191.336 219.325V219.325Z" fill="black"/>
</svg>
