<svg width="100" height="100" viewBox="0 0 100 100" fill="none" xmlns="http://www.w3.org/2000/svg">
<path d="M49.7158 53H3.28417C2.41316 53 1.57781 52.654 0.961912 52.0381C0.34601 51.4222 0 50.5868 0 49.7158V14.3387C0.00347831 10.5369 1.51528 6.89183 4.20355 4.20355C6.89183 1.51528 10.5369 0.00347831 14.3387 0H49.7158C50.5868 0 51.4222 0.34601 52.0381 0.961912C52.654 1.57781 53 2.41316 53 3.28417V49.7158C53 50.5868 52.654 51.4222 52.0381 52.0381C51.4222 52.654 50.5868 53 49.7158 53ZM6.56835 46.4317H46.4317V6.56835H14.3387C12.2789 6.57182 10.3045 7.3916 8.84807 8.84807C7.3916 10.3045 6.57182 12.2789 6.56835 14.3387V46.4317Z" fill="#083D60"/>
<path d="M36.8067 30H17.1933C16.3464 30 15.5342 29.6839 14.9353 29.1213C14.3364 28.5587 14 27.7957 14 27C14 26.2044 14.3364 25.4413 14.9353 24.8787C15.5342 24.3161 16.3464 24 17.1933 24H36.8067C37.6536 24 38.4658 24.3161 39.0647 24.8787C39.6636 25.4413 40 26.2044 40 27C40 27.7957 39.6636 28.5587 39.0647 29.1213C38.4658 29.6839 37.6536 30 36.8067 30Z" fill="#083D60"/>
<path d="M27 40C26.2044 40 25.4413 39.6636 24.8787 39.0647C24.3161 38.4658 24 37.6536 24 36.8067V17.1933C24 16.3464 24.3161 15.5342 24.8787 14.9353C25.4413 14.3364 26.2044 14 27 14C27.7957 14 28.5587 14.3364 29.1213 14.9353C29.6839 15.5342 30 16.3464 30 17.1933V36.8067C30 37.6536 29.6839 38.4658 29.1213 39.0647C28.5587 39.6636 27.7957 40 27 40Z" fill="#083D60"/>
<path d="M96.7154 53H50.2846C49.4135 53 48.578 52.654 47.962 52.0381C47.3461 51.4222 47 50.5868 47 49.7158V3.28417C47 2.41316 47.3461 1.57781 47.962 0.961912C48.578 0.34601 49.4135 0 50.2846 0H85.6661C89.4672 0.00521671 93.1111 1.51778 95.7983 4.20587C98.4854 6.89396 99.9965 10.538 100 14.3387V49.7158C100 50.5868 99.6539 51.4222 99.038 52.0381C98.422 52.654 97.5865 53 96.7154 53ZM53.5692 46.4317H93.4308V14.3387C93.4291 12.2795 92.6107 10.3051 91.1551 8.84847C89.6995 7.39181 87.7255 6.57183 85.6661 6.56835H53.5692V46.4317Z" fill="#083D60"/>
<path d="M82.8083 30H63.1918C62.3452 30 61.5334 29.6839 60.9348 29.1213C60.3363 28.5587 60 27.7957 60 27C60 26.2044 60.3363 25.4413 60.9348 24.8787C61.5334 24.3161 62.3452 24 63.1918 24H82.8083C83.6548 24 84.4666 24.3161 85.0652 24.8787C85.6637 25.4413 86 26.2044 86 27C86 27.7957 85.6637 28.5587 85.0652 29.1213C84.4666 29.6839 83.6548 30 82.8083 30V30Z" fill="#083D60"/>
<path d="M49.7158 99H14.3387C10.538 98.9966 6.89396 97.5142 4.20587 94.878C1.51778 92.2419 0.00521671 88.6672 0 84.9383V50.2222C0 49.3676 0.34601 48.548 0.961912 47.9438C1.57781 47.3395 2.41316 47 3.28417 47H49.7158C50.5868 47 51.4222 47.3395 52.0381 47.9438C52.654 48.548 53 49.3676 53 50.2222V95.7778C53 96.6324 52.654 97.452 52.0381 98.0562C51.4222 98.6605 50.5868 99 49.7158 99V99ZM6.56835 53.4444V84.9383C6.57356 86.9581 7.3941 88.8936 8.85038 90.3212C10.3067 91.7488 12.2801 92.5522 14.3387 92.5556H46.4317V53.4444H6.56835Z" fill="#083D60"/>
<path d="M34.54 83C33.6273 82.9998 32.7517 82.6719 32.1037 82.0877L17.0565 68.4089C16.726 68.1187 16.4623 67.7715 16.281 67.3877C16.0996 67.0039 16.0041 66.5911 16.0001 66.1733C15.9961 65.7556 16.0837 65.3413 16.2577 64.9547C16.4317 64.5681 16.6887 64.2168 17.0136 63.9214C17.3386 63.6261 17.7249 63.3925 18.1503 63.2343C18.5756 63.0761 19.0313 62.9965 19.4908 63.0001C19.9503 63.0037 20.4044 63.0905 20.8266 63.2554C21.2488 63.4203 21.6307 63.66 21.95 63.9604L36.9902 77.6329C37.4731 78.0733 37.8016 78.6338 37.9343 79.2437C38.0669 79.8536 37.9978 80.4856 37.7357 81.0599C37.4735 81.6342 37.0301 82.1249 36.4613 82.4702C35.8925 82.8155 35.224 82.9999 34.54 83V83Z" fill="#083D60"/>
<path d="M19.452 83C18.7688 82.9986 18.1014 82.8134 17.5339 82.4676C16.9664 82.1218 16.5241 81.631 16.2629 81.057C16.0017 80.483 15.9332 79.8515 16.0661 79.2421C16.1989 78.6328 16.5272 78.0729 17.0095 77.6329L32.0519 63.9604C32.3711 63.66 32.7528 63.4203 33.1749 63.2554C33.597 63.0905 34.051 63.0037 34.5103 63.0001C34.9697 62.9965 35.4252 63.0761 35.8504 63.2343C36.2756 63.3925 36.6619 63.6261 36.9867 63.9214C37.3115 64.2168 37.5684 64.5681 37.7424 64.9547C37.9163 65.3413 38.0039 65.7556 37.9999 66.1733C37.9959 66.5911 37.9004 67.0039 37.7191 67.3877C37.5378 67.7715 37.2742 68.1187 36.9438 68.4089L21.9014 82.0876C21.2502 82.675 20.3692 83.0031 19.452 83V83Z" fill="#083D60"/>
<path d="M85.6661 99H50.2846C49.4135 99 48.578 98.6605 47.962 98.0562C47.3461 97.452 47 96.6324 47 95.7778V50.2222C47 49.3676 47.3461 48.548 47.962 47.9438C48.578 47.3395 49.4135 47 50.2846 47H96.7154C97.5865 47 98.422 47.3395 99.038 47.9438C99.6539 48.548 100 49.3676 100 50.2222V84.9383C99.9948 88.6661 98.4829 92.2398 95.7959 94.8758C93.1089 97.5117 89.4661 98.9949 85.6661 99V99ZM53.5692 92.5556H85.6661C87.7244 92.5522 89.6973 91.7485 91.1528 90.3208C92.6082 88.893 93.4274 86.9575 93.4308 84.9383V53.4444H53.5692V92.5556Z" fill="#083D60"/>
<path d="M82.8083 76H63.1918C62.3452 76 61.5334 75.6313 60.9348 74.9749C60.3363 74.3185 60 73.4283 60 72.5C60 71.5717 60.3363 70.6815 60.9348 70.0251C61.5334 69.3687 62.3452 69 63.1918 69H82.8083C83.6548 69 84.4666 69.3687 85.0652 70.0251C85.6637 70.6815 86 71.5717 86 72.5C86 73.4283 85.6637 74.3185 85.0652 74.9749C84.4666 75.6313 83.6548 76 82.8083 76V76Z" fill="#083D60"/>
<path d="M73 66C72.6058 66.0008 72.2153 65.9113 71.8509 65.7367C71.4864 65.562 71.1552 65.3056 70.8761 64.9821C70.7374 64.8176 70.6129 64.6378 70.5041 64.4453C70.3969 64.2554 70.3046 64.0548 70.2281 63.8458C70.1542 63.6365 70.0979 63.4193 70.0601 63.1974C70.0182 62.9683 69.9981 62.7345 70.0001 62.5002C69.9988 62.266 70.0189 62.0323 70.0601 61.8031C70.0979 61.5811 70.1542 61.364 70.2281 61.1547C70.3057 60.9441 70.398 60.7412 70.5041 60.5482C70.8898 59.8779 71.4635 59.3838 72.1276 59.1499C72.7916 58.916 73.5049 58.9568 74.1459 59.2654C74.3258 59.3542 74.4985 59.4615 74.6619 59.5861C74.8276 59.7125 74.9823 59.8572 75.1239 60.0183C75.2607 60.1822 75.3852 60.3595 75.4959 60.5482C75.602 60.7412 75.6943 60.9441 75.7719 61.1547C75.8458 61.364 75.9021 61.5811 75.9399 61.8031C75.9811 62.0323 76.0012 62.266 75.9999 62.5002C76.0019 62.7345 75.9818 62.9683 75.9399 63.1974C75.9021 63.4193 75.8458 63.6365 75.7719 63.8458C75.6954 64.0548 75.6031 64.2554 75.4959 64.4453C75.3832 64.6364 75.2567 64.816 75.1179 64.9821C74.5557 65.6338 73.7941 65.9998 73 66V66Z" fill="#083D60"/>
<path d="M73 85.9993C72.2044 85.9993 71.4413 85.6838 70.8787 85.1224C70.3162 84.5609 70.0001 83.7994 70.0001 83.0054C69.9984 82.8042 70.0185 82.6034 70.0601 82.4066C70.0979 82.216 70.1541 82.0295 70.2281 81.8497C70.3045 81.6702 70.3969 81.4978 70.5041 81.3348C70.6114 81.1702 70.7361 81.0176 70.8761 80.8797C71.2952 80.4602 71.8297 80.1743 72.4118 80.0581C72.9938 79.942 73.5974 80.0007 74.1459 80.227C74.3258 80.3033 74.4985 80.3955 74.6619 80.5025C74.8291 80.6112 74.984 80.7377 75.1239 80.8797C75.2622 81.0192 75.3867 81.1716 75.4959 81.3348C75.6031 81.4978 75.6954 81.6702 75.7719 81.8497C75.8458 82.0295 75.9021 82.216 75.9399 82.4066C75.9818 82.6034 76.0019 82.8042 75.9999 83.0054C76.0015 83.2065 75.9814 83.4073 75.9399 83.6041C75.9021 83.7948 75.8458 83.9813 75.7719 84.161C75.6954 84.3405 75.6031 84.5129 75.4959 84.676C75.3862 84.8404 75.2595 84.993 75.1179 85.131C74.9798 85.2726 74.8269 85.3991 74.6619 85.5083C74.4985 85.6153 74.3258 85.7074 74.1459 85.7837C73.9658 85.8575 73.779 85.9137 73.588 85.9514C73.3942 85.9877 73.1971 86.0037 73 85.9993V85.9993Z" fill="#083D60"/>
</svg>
