<svg width="100" height="100" viewBox="0 0 100 100" fill="none" xmlns="http://www.w3.org/2000/svg">
<path d="M97.3684 0H73.6842C72.2368 0 71.0526 1.18421 71.0526 2.63158V47.1053H52.6316V28.9474C52.6316 27.5 51.4474 26.3158 50 26.3158H26.3158C24.8684 26.3158 23.6842 27.5 23.6842 28.9474V69.6053H2.63158C1.18421 69.6053 0 70.7895 0 72.2368V97.3684C0 98.8158 1.18421 100 2.63158 100H97.3684C98.8158 100 100 98.8158 100 97.3684V2.63158C100 1.18421 98.8158 0 97.3684 0ZM23.6842 94.7368H5.26316V74.8684H23.6842V94.7368ZM47.3684 94.7368H28.9474V31.5789H47.3684V94.7368ZM71.0526 94.7368H52.6316V52.3684H71.0526V94.7368ZM94.7368 94.7368H76.3158V5.26316H94.7368V94.7368Z" fill="#083D60"/>
</svg>
