<?xml version="1.0" encoding="UTF-8" standalone="no"?>
<svg
   xmlns:dc="http://purl.org/dc/elements/1.1/"
   xmlns:cc="http://creativecommons.org/ns#"
   xmlns:rdf="http://www.w3.org/1999/02/22-rdf-syntax-ns#"
   xmlns:svg="http://www.w3.org/2000/svg"
   xmlns="http://www.w3.org/2000/svg"
   xmlns:sodipodi="http://sodipodi.sourceforge.net/DTD/sodipodi-0.dtd"
   xmlns:inkscape="http://www.inkscape.org/namespaces/inkscape"
   viewBox="0 0 24 23.75"
   version="1.1"
   id="svg12"
   sodipodi:docname="Pig - Copia.svg"
   inkscape:version="1.0.1 (3bc2e813f5, 2020-09-07)">
  <metadata
     id="metadata18">
    <rdf:RDF>
      <cc:Work
         rdf:about="">
        <dc:format>image/svg+xml</dc:format>
        <dc:type
           rdf:resource="http://purl.org/dc/dcmitype/StillImage" />
      </cc:Work>
    </rdf:RDF>
  </metadata>
  <defs
     id="defs16" />
  <sodipodi:namedview
     pagecolor="#ffffff"
     bordercolor="#666666"
     borderopacity="1"
     objecttolerance="10"
     gridtolerance="10"
     guidetolerance="10"
     inkscape:pageopacity="0"
     inkscape:pageshadow="2"
     inkscape:window-width="1920"
     inkscape:window-height="1017"
     id="namedview14"
     showgrid="false"
     inkscape:zoom="35.789474"
     inkscape:cx="12"
     inkscape:cy="11.875"
     inkscape:window-x="-8"
     inkscape:window-y="-8"
     inkscape:window-maximized="1"
     inkscape:current-layer="svg12"
     inkscape:document-rotation="0" />
  <title
     id="title2" />
  <g
     data-name="Camada 2"
     id="Camada_2">
    <g
       data-name="Camada 1"
       id="Camada_1-2">
      <path
         d="M23.5,12.24H22.39a7,7,0,0,0-4.12-4.51,4.74,4.74,0,0,0,1-2.94,4.79,4.79,0,0,0-9.58,0,4.74,4.74,0,0,0,1.13,3.06c-.58.16-1.44.43-2.53.83A16.54,16.54,0,0,0,5.25,5.51a.5.5,0,0,0-.81.4V11A18.66,18.66,0,0,0,2,13.36H.5a.5.5,0,0,0-.5.5v3.73a.5.5,0,0,0,.3.46l6.95,3v1.22a1.5,1.5,0,0,0,1.49,1.49h1.53a1.5,1.5,0,0,0,1.49-1.49V21.2h3.85v1.05a1.5,1.5,0,0,0,1.49,1.49h1.53a1.5,1.5,0,0,0,1.49-1.49V19.58a6.79,6.79,0,0,0,2.47-6.35h.89a.5.5,0,0,0,0-1ZM14.52,1a3.79,3.79,0,1,1-3.79,3.79A3.79,3.79,0,0,1,14.52,1Zm4.82,18,0,0-.07.08,0,.07a.5.5,0,0,0,0,.09.52.52,0,0,0,0,.1s0,0,0,0v2.9a.5.5,0,0,1-.49.49H17.12a.5.5,0,0,1-.49-.49v-1.6a61.24,61.24,0,0,1,0-.18l-.05-.08-.06-.08-.07,0-.09-.05-.09,0-.09,0H11.27a.5.5,0,0,0-.5.5v1.55a.5.5,0,0,1-.49.49H8.75a.5.5,0,0,1-.49-.49V20.71h0s0,0,0,0a.49.49,0,0,0,0-.16.47.47,0,0,0-.05-.08A.35.35,0,0,0,8,20.26l0,0h0L1,17.26v-2.9H2.24a.5.5,0,0,0,.4-.19,17.11,17.11,0,0,1,2.62-2.56l0,0,.07-.08,0-.07a.47.47,0,0,0,0-.09.48.48,0,0,0,0-.1V7A11.48,11.48,0,0,1,7.7,9.52a.49.49,0,0,0,.15.16l0,0a.49.49,0,0,0,.22.07H8.3c1.74-.64,3-1,3.41-1.09A4.7,4.7,0,0,0,17.5,8.5,6,6,0,0,1,19.34,19Z"
         id="path4" />
      <circle
         cx="5.38"
         cy="14.02"
         r="0.96"
         id="circle6" />
      <path
         d="M17.88,10.11H11.15a.5.5,0,0,0,0,1h6.73a.5.5,0,0,0,0-1Z"
         id="path8" />
    </g>
  </g>
  <path
     style="fill:#328bc3;stroke-width:0.0279412"
     d="M 8.4350113,23.708539 C 7.9395868,23.600744 7.4886182,23.185152 7.3300411,22.690251 c -0.051267,-0.16 -0.061103,-0.278916 -0.076426,-0.923997 L 7.2360294,21.02589 3.7573529,19.524152 C 1.8440809,18.698196 0.24724265,17.999594 0.20882353,17.971704 0.17040441,17.943813 0.11068015,17.865628 0.07610294,17.797959 L 0.01323529,17.674924 v -1.948143 c 0,-1.308516 0.0097575,-1.973968 0.02971875,-2.0268 0.01634532,-0.04326 0.06349605,-0.114357 0.10477942,-0.15799 0.14819395,-0.156628 0.15802564,-0.158122 1.04462894,-0.158712 l 0.818667,-5.45e-4 0.1676471,-0.200423 C 2.5644795,12.721079 3.5950049,11.726313 4.2952206,11.13921 L 4.4558824,11.004502 V 8.4072357 c 0,-2.8241349 -0.00692,-2.6986843 0.1572205,-2.8521498 0.1535194,-0.1435394 0.3556965,-0.1739995 0.5354367,-0.080669 0.2157149,0.11201 1.0591078,0.8613012 1.6269742,1.4454442 0.4942504,0.5084168 1.1803563,1.3140599 1.4641889,1.7192877 0.041211,0.058836 0.042821,0.058441 0.6923461,-0.1697172 0.6069768,-0.2132127 1.2620462,-0.4244005 1.7058192,-0.5499388 0.103731,-0.029345 0.188603,-0.061212 0.188603,-0.070817 0,-0.0096 -0.03947,-0.066342 -0.08771,-0.1260842 C 10.590638,7.5391505 10.323261,7.1220764 10.21236,6.9014708 9.0210848,4.5317877 10.017607,1.6442795 12.425467,0.48880616 c 0.754436,-0.36203565 1.52215,-0.508343 2.389606,-0.45539955 1.686212,0.10291477 3.233908,1.15870619 3.974896,2.71155529 0.53407,1.1192203 0.608765,2.3956786 0.209937,3.58756 -0.120407,0.3598321 -0.387165,0.8893498 -0.591524,1.1741836 -0.08404,0.1171419 -0.142648,0.222267 -0.130229,0.2336111 0.01242,0.011344 0.139689,0.07208 0.282821,0.1349685 1.717304,0.7545411 3.159194,2.3535409 3.739765,4.1472529 l 0.07941,0.245332 0.617721,-0.0036 c 0.500638,-0.0029 0.633038,0.0043 0.69853,0.03841 0.290371,0.151019 0.352183,0.516445 0.127927,0.756293 -0.131697,0.140854 -0.209528,0.15722 -0.747659,0.15722 H 22.58389 l 0.02386,0.230515 c 0.01312,0.126783 0.02307,0.53228 0.02211,0.901103 -0.002,0.750707 -0.04487,1.085686 -0.221274,1.72769 -0.349313,1.271277 -1.146327,2.528855 -2.11308,3.33415 l -0.192567,0.160406 -4.13e-4,1.412406 c -3.36e-4,1.146535 -0.0082,1.445334 -0.04165,1.587326 -0.09935,0.4214 -0.390672,0.792314 -0.772312,0.983331 -0.330955,0.165648 -0.403047,0.17341 -1.510078,0.162605 -0.941073,-0.0092 -0.994303,-0.01252 -1.154219,-0.0723 -0.423103,-0.158155 -0.755812,-0.491443 -0.915905,-0.9175 -0.05604,-0.149142 -0.06219,-0.223796 -0.07048,-0.854955 l -0.0091,-0.691544 H 13.68867 11.748529 v 0.610236 c 0,0.69112 -0.03732,0.91461 -0.200708,1.201823 -0.114766,0.201747 -0.356073,0.443054 -0.55782,0.557821 -0.313753,0.178482 -0.482429,0.200978 -1.4882205,0.198487 -0.6325636,-0.0016 -0.9467406,-0.01312 -1.0667692,-0.03924 z M 10.471555,22.76225 c 0.104819,-0.0438 0.263938,-0.214507 0.284328,-0.305042 0.0077,-0.0343 0.01734,-0.458421 0.02136,-0.942502 0.0079,-0.949803 0.01001,-0.963956 0.165704,-1.109328 0.16428,-0.153388 0.06205,-0.148025 2.821451,-0.148025 1.965572,0 2.57137,0.008 2.648324,0.03489 0.185875,0.065 0.182132,0.04365 0.197572,1.126774 l 0.01397,0.980047 0.07499,0.113259 c 0.04514,0.06817 0.123734,0.136853 0.197425,0.172526 0.117262,0.05677 0.161786,0.05927 1.054787,0.05927 0.874806,0 0.939471,-0.0034 1.047629,-0.0558 0.134687,-0.0652 0.220372,-0.170736 0.262855,-0.323747 0.02024,-0.07289 0.03043,-0.642088 0.03054,-1.705062 l 1.56e-4,-1.595642 0.204335,-0.167707 C 20.387515,18.165253 21.046448,17.214426 21.400099,16.15 21.911366,14.611173 21.802719,13.002554 21.08928,11.548042 20.438167,10.220597 19.295542,9.1760229 17.889565,8.6228988 17.709524,8.5520693 17.54359,8.4941176 17.520824,8.4941176 c -0.02277,0 -0.124338,0.06278 -0.225715,0.1395117 -0.618044,0.4677965 -1.435241,0.7957335 -2.231239,0.8953859 -0.385251,0.04823 -1.122687,0.020134 -1.485194,-0.056585 C 13.009117,9.3518916 12.415015,9.1059204 11.930148,8.7899043 11.674336,8.6231768 11.757883,8.6219932 11.119853,8.8013831 10.571169,8.9556522 9.6344592,9.2578031 8.9240366,9.5096794 8.4114015,9.6914309 8.2939723,9.7235138 8.1416837,9.7234249 7.8991249,9.7232852 7.8324878,9.6766659 7.5906493,9.337937 7.2406981,8.8477811 6.889964,8.4386608 6.3852399,7.9318652 6.115527,7.6610456 5.7691176,7.3364619 5.6154412,7.2105679 l -0.2794118,-0.228898 -0.00715,2.2773562 -0.00715,2.2773569 -0.216381,0.175162 c -0.727346,0.588791 -1.7031083,1.533211 -2.2520733,2.179733 -0.1761902,0.207501 -0.3390671,0.372129 -0.3939267,0.398162 -0.077582,0.03681 -0.2107889,0.04438 -0.781101,0.04438 H 0.99068244 l 0.007232,1.472761 0.007232,1.472761 3.5242376,1.510755 c 1.9383308,0.830915 3.5455182,1.528416 3.5715275,1.550002 0.026009,0.02159 0.071518,0.08674 0.10113,0.144782 0.049949,0.09791 0.05384,0.172366 0.05384,1.030095 0,0.741543 0.0078,0.939495 0.039417,1.000011 0.050683,0.09702 0.1786791,0.218208 0.2679358,0.253694 0.114057,0.04535 1.7979777,0.03967 1.9083197,-0.0064 z M 14.807956,8.5772348 C 16.501064,8.4369872 17.851481,7.270098 18.234727,5.6161765 18.317303,5.2598183 18.336418,4.5640121 18.273952,4.1883916 18.181035,3.6296625 17.955175,3.0673349 17.637333,2.6033859 17.324948,2.1474031 16.740485,1.6456449 16.211322,1.3791625 15.391397,0.96625478 14.333442,0.87896864 13.417067,1.1486237 12.261158,1.4887649 11.275733,2.448879 10.91278,3.5885876 c -0.148676,0.4668585 -0.181641,0.6860858 -0.180941,1.2033242 5.16e-4,0.3822934 0.01264,0.5308974 0.06214,0.7614009 0.158551,0.738416 0.470342,1.3269966 0.989004,1.8669794 0.648691,0.6753567 1.493426,1.0818452 2.403191,1.1564219 0.142275,0.011663 0.264969,0.022798 0.272653,0.024744 0.0077,0.00195 0.164793,-0.00895 0.349132,-0.024224 z"
     id="path843" />
  <path
     style="fill:#328bc3;stroke-width:0.0279412"
     d="m 10.925091,11.028894 c -0.127016,-0.07194 -0.229289,-0.208927 -0.253892,-0.340068 -0.04118,-0.219521 0.119739,-0.473632 0.342131,-0.540263 0.163352,-0.04894 6.8394,-0.04894 7.002751,0 0.222393,0.06663 0.383314,0.320742 0.342131,0.540263 -0.0246,0.131141 -0.126876,0.268129 -0.253891,0.340068 l -0.110939,0.06283 h -3.478676 -3.478677 z"
     id="path845" />
  <path
     style="fill:#2bcfb5;stroke-width:0.0279412;fill-opacity:1"
     d="M 5.1608424,14.933151 C 4.9554188,14.877846 4.8603568,14.823592 4.7160846,14.67932 4.3395712,14.302806 4.350175,13.704849 4.7398288,13.340374 c 0.2050672,-0.191816 0.3520708,-0.249331 0.6381124,-0.24966 0.2031179,-2.33e-4 0.2602509,0.0109 0.3946562,0.07691 0.1863183,0.0915 0.3962056,0.305958 0.4791115,0.489547 0.090491,0.200384 0.085832,0.528611 -0.010416,0.733815 -0.1382719,0.294799 -0.3571025,0.475324 -0.6636431,0.547476 -0.1927796,0.04537 -0.2303344,0.0449 -0.4168069,-0.0053 z"
     id="path847" />
  <path
     style="fill:#000000;fill-opacity:1;stroke-width:0.0279412"
     d="m 10.935923,11.013363 c -0.199278,-0.126378 -0.275914,-0.286245 -0.236904,-0.494189 0.02615,-0.139391 0.189178,-0.312145 0.333036,-0.352904 0.165924,-0.04701 6.799378,-0.04701 6.965302,0 0.143858,0.04076 0.306886,0.213513 0.333036,0.352904 0.0394,0.209999 -0.04742,0.384508 -0.250482,0.503512 l -0.11938,0.06996 h -3.449795 -3.449795 z"
     id="path871" />
  <path
     style="fill:#000000;fill-opacity:1;stroke-width:0.0279412"
     d="M 8.4049589,23.682309 C 8.01441,23.587592 7.620726,23.261981 7.4320136,22.877596 7.3060028,22.620926 7.286677,22.480697 7.2565106,21.604119 L 7.2360294,21.008973 5.9088235,20.435879 C 1.8224049,18.671345 0.31412896,18.012607 0.21602483,17.949555 0.18156643,17.927409 0.12008414,17.843596 0.0793975,17.763305 L 0.0054218,17.617321 0.02604734,15.675488 c 0.01605388,-1.511425 0.02871772,-1.957379 0.0571343,-2.011969 0.04922053,-0.09456 0.15051971,-0.185695 0.24705211,-0.222272 0.0455112,-0.01724 0.42687552,-0.03793 0.89203505,-0.04838 l 0.8125367,-0.01826 0.085906,-0.0993 c 0.4785789,-0.553171 1.2545748,-1.314905 1.9789208,-1.942549 l 0.35625,-0.30869 0.00315,-1.3697529 c 0.00173,-0.7533642 0.011163,-1.9440897 0.020956,-2.6460568 0.017254,-1.2368262 0.019613,-1.2787419 0.076257,-1.355147 0.1134495,-0.1530291 0.2317214,-0.2107259 0.4068601,-0.1984791 0.1800099,0.012588 0.2633917,0.06717 0.7676576,0.502516 0.8275617,0.7144553 1.6482268,1.5949966 2.472413,2.6528015 l 0.07303,0.09373 L 9.3068528,8.362059 C 9.8737089,8.1741694 10.447518,7.9883055 10.581985,7.9490283 c 0.134467,-0.039277 0.244486,-0.082996 0.244486,-0.097152 0,-0.014157 -0.106731,-0.1820686 -0.23718,-0.3731379 C 9.9427205,6.5317012 9.6803604,5.6057706 9.7408975,4.4845588 9.8192543,3.0333067 10.638607,1.6266997 11.874265,0.82214322 c 1.943732,-1.26559453 4.435789,-0.97952511 6.039299,0.69326608 0.708073,0.7386665 1.14687,1.653784 1.283024,2.6757672 0.09611,0.7214213 8.52e-4,1.5769804 -0.249693,2.2426211 -0.09379,0.2491741 -0.361082,0.7770148 -0.489636,0.9669164 -0.113168,0.1671715 -0.208513,0.339936 -0.193511,0.3506375 0.005,0.00355 0.216509,0.1078362 0.470076,0.23175 1.133455,0.5539017 2.040058,1.3531328 2.77199,2.4436925 0.255097,0.380088 0.595375,1.068783 0.743158,1.504088 l 0.118572,0.349265 h 0.63716 0.637161 l 0.102626,0.07828 c 0.241946,0.184554 0.261115,0.505512 0.04236,0.709194 -0.107191,0.0998 -0.185409,0.1146 -0.718813,0.135978 -0.452202,0.01812 -0.507207,0.02545 -0.491083,0.06539 0.03669,0.09089 0.04843,1.357817 0.01595,1.72145 -0.104088,1.16539 -0.575917,2.34668 -1.355966,3.394853 -0.189965,0.255261 -0.770732,0.865961 -1.013187,1.065407 l -0.116694,0.09599 -0.0177,1.43805 c -0.01017,0.826243 -0.03023,1.497487 -0.04715,1.577756 -0.08732,0.414107 -0.402097,0.796339 -0.821901,0.998029 l -0.248978,0.119618 H 17.853676 16.736029 L 16.516946,23.575539 C 16.205061,23.42662 15.945988,23.170957 15.79194,22.860074 l -0.116304,-0.234712 -0.0192,-0.660107 c -0.01056,-0.36306 -0.0203,-0.688398 -0.02164,-0.722976 l -0.0024,-0.06287 h -1.938355 -1.938354 l -0.01964,0.621691 c -0.0116,0.367059 -0.03617,0.694899 -0.05999,0.80043 -0.119778,0.5306 -0.618793,1.007801 -1.142925,1.092963 -0.25045,0.04069 -1.9502215,0.03096 -2.1281291,-0.01219 z m 2.1610861,-0.959647 c 0.04886,-0.03485 0.11473,-0.105261 0.146375,-0.156464 0.05338,-0.08636 0.05865,-0.149464 0.07292,-0.872662 0.02207,-1.118752 0.02183,-1.116913 0.162817,-1.257702 0.103074,-0.102928 0.134267,-0.117483 0.283466,-0.132262 0.312467,-0.03095 2.75972,-0.04651 3.98785,-0.02535 1.211029,0.02086 1.222215,0.02159 1.283641,0.08304 0.05849,0.05851 0.06313,0.09454 0.08267,0.642647 0.01139,0.319361 0.02156,0.77014 0.02261,1.00173 l 0.0019,0.421074 0.103083,0.12043 c 0.168607,0.196979 0.168626,0.196982 1.235377,0.196982 0.604443,0 0.977641,-0.01082 1.027736,-0.0298 0.111853,-0.04238 0.20367,-0.134278 0.263347,-0.26358 0.04825,-0.104551 0.05162,-0.216657 0.0522,-1.736927 l 6.15e-4,-1.625162 0.216544,-0.180651 c 0.289199,-0.241263 0.792442,-0.76472 0.995439,-1.035427 0.514578,-0.686213 0.862105,-1.429235 1.060519,-2.267421 0.412351,-1.741953 0.01586,-3.605615 -1.074273,-5.049538 C 20.257332,10.246269 19.676448,9.6705588 19.348529,9.4234348 18.979898,9.1456285 18.434701,8.8339204 18.017157,8.6622419 17.507132,8.4525395 17.537277,8.4517236 17.193718,8.6845273 16.544044,9.1247615 15.885469,9.388204 15.149684,9.5021794 14.824693,9.5525216 13.846302,9.5194378 13.533144,9.447517 13.034832,9.3330727 12.490884,9.1104559 12.035864,8.8347379 11.830557,8.7103326 11.723033,8.6617647 11.65292,8.6617647 c -0.1478,0 -1.052612,0.2698903 -2.2637916,0.6752511 C 7.9513487,9.8182156 7.9735611,9.8180779 7.6216833,9.347969 7.1210314,8.6790977 6.7627151,8.2772936 6.0745331,7.6130452 5.7470961,7.2969961 5.384639,6.9852941 5.3445635,6.9852941 c -0.012378,0 -0.022505,1.017597 -0.022505,2.2613267 v 2.2613262 l -0.4261029,0.361478 c -0.5403561,0.458402 -1.2222586,1.10997 -1.6858641,1.610869 -0.198455,0.214418 -0.4551286,0.486208 -0.5703859,0.603977 l -0.2095588,0.214124 -0.4305455,0.01771 c -0.2368,0.0097 -0.5637117,0.01771 -0.7264705,0.01771 l -0.29592522,-6e-6 0.007465,1.47755 0.007465,1.47755 2.39547592,1.028093 c 3.2629546,1.400399 4.6100644,1.985391 4.6850071,2.034495 0.139586,0.09146 0.1494962,0.159792 0.1707287,1.177176 0.022062,1.057135 0.020474,1.048357 0.2151636,1.189389 l 0.1168008,0.08461 0.9509466,-0.0083 c 0.9371417,-0.0082 0.9522367,-0.0092 1.0397857,-0.07169 z M 15.213235,8.5354974 C 16.40523,8.3039852 17.376355,7.58294 17.910781,6.5326121 18.067606,6.2243992 18.131193,6.0593062 18.220708,5.7279412 18.282324,5.499854 18.294453,5.3858261 18.306895,4.9176471 18.32341,4.2962381 18.293759,4.0691258 18.133071,3.5862131 17.948011,3.0300577 17.68744,2.5890202 17.315615,2.2026044 16.507235,1.3625019 15.653402,0.99410009 14.514706,0.99410009 c -0.844863,0 -1.521981,0.20769601 -2.183239,0.66967581 -0.461578,0.3224766 -0.974624,0.9123042 -1.22452,1.4077811 -0.101119,0.2004922 -0.241367,0.5978496 -0.311344,0.8821195 -0.07917,0.3215973 -0.101147,1.0509283 -0.04306,1.4287114 0.254095,1.6525197 1.602906,2.9686692 3.27319,3.1939319 0.270091,0.036426 0.901534,0.014719 1.1875,-0.040822 z"
     id="path873" />
  <path
     style="fill:#000000;fill-opacity:1;stroke-width:0.0279412"
     d="M 5.1125,14.903532 C 4.7095677,14.775246 4.4299637,14.365813 4.4631296,13.952637 c 0.018757,-0.233672 0.1250929,-0.448067 0.3004137,-0.605696 0.1944849,-0.174858 0.3106565,-0.222597 0.576619,-0.236951 0.1997308,-0.01078 0.24661,-0.0036 0.3820997,0.05842 0.1972195,0.09029 0.3778467,0.257032 0.4819045,0.444858 0.073514,0.132694 0.081863,0.173412 0.081863,0.399235 0,0.280118 -0.051141,0.419706 -0.2305623,0.62932 C 5.8490266,14.882999 5.4210704,15.001775 5.1125,14.903532 Z"
     id="path875" />
  <path
     style="fill:#2b81b5;fill-opacity:1;stroke-width:0.0279412"
     d="M 8.4182508,23.668404 C 7.9534999,23.574541 7.4396728,23.045008 7.336844,22.553942 7.3197686,22.472397 7.2919682,22.088904 7.2750655,21.701736 7.2581627,21.314568 7.2424648,20.996132 7.2401812,20.994101 7.2378978,20.992069 6.5444853,20.691954 5.6992647,20.327178 1.9692585,18.717401 0.34049118,18.003952 0.22963341,17.931315 0.19444556,17.908259 0.13153359,17.826702 0.08982902,17.750077 L 0.01400255,17.610759 0.04086816,15.696518 c 0.01760363,-1.254301 0.03740741,-1.941967 0.05744352,-1.994666 0.01681785,-0.04424 0.05167675,-0.10374 0.07746422,-0.132235 0.11060703,-0.122219 0.17156283,-0.131643 1.0332311,-0.159735 l 0.8299636,-0.02706 0.2342367,-0.257955 C 2.7468236,12.603292 3.5551538,11.828466 4.3305064,11.152841 L 4.4698529,11.031418 4.486464,8.4258691 C 4.50232,5.9387004 4.5054939,5.8153825 4.5563169,5.7116319 4.6795238,5.4601163 4.9814008,5.4016329 5.2389511,5.5793835 5.8631283,6.0101649 7.1981334,7.364683 7.9877722,8.3683824 8.108674,8.5220588 8.2226472,8.6641073 8.2410464,8.6840458 8.2681625,8.7134307 8.4672358,8.6570108 9.2920289,8.386184 9.8516703,8.2024215 10.421165,8.0164004 10.557572,7.9728037 10.693979,7.9292069 10.811603,7.8778543 10.818958,7.8586867 10.826314,7.839519 10.728062,7.663455 10.600622,7.4674331 10.067937,6.648086 9.835159,6.0049156 9.7621644,5.1507561 9.674215,4.1216029 9.9600505,3.048814 10.561298,2.1514706 11.256101,1.114499 12.314599,0.4105993 13.592647,0.13562933 c 0.253217,-0.05447919 0.375626,-0.06312075 0.894118,-0.06312075 0.518491,0 0.6409,0.0086416 0.894117,0.06312075 1.01271,0.21788288 1.868394,0.69871219 2.556024,1.43629007 0.605073,0.6490233 0.991704,1.3966331 1.195345,2.3113766 0.07984,0.3586272 0.08823,1.357799 0.01468,1.7468511 -0.123802,0.6548243 -0.332451,1.1585842 -0.78627,1.8983562 -0.05601,0.091302 -0.101836,0.1820901 -0.101836,0.201752 0,0.019662 0.211136,0.1424064 0.469191,0.2727663 1.187384,0.5998216 2.056556,1.3694253 2.779335,2.4609494 0.226429,0.341947 0.60158,1.110397 0.735008,1.505573 l 0.10959,0.324574 h 0.640138 0.640139 l 0.09677,0.07381 c 0.205941,0.157079 0.247983,0.423199 0.09806,0.620702 -0.10815,0.142472 -0.207715,0.169403 -0.738905,0.199866 -0.263801,0.01513 -0.485561,0.03343 -0.492801,0.04067 -0.0072,0.0072 -0.01088,0.393915 -0.0081,0.859279 0.0038,0.635159 -0.0057,0.921942 -0.038,1.150242 -0.104271,0.736242 -0.319696,1.398489 -0.682732,2.098815 -0.37884,0.730813 -0.686392,1.14347 -1.340978,1.799254 l -0.429592,0.430378 -0.02328,1.410446 c -0.0128,0.775745 -0.03183,1.468563 -0.04228,1.539596 -0.06249,0.424608 -0.405676,0.833613 -0.892421,1.063589 l -0.180779,0.08541 H 17.852302 16.7474 L 16.532628,23.561397 C 16.230733,23.414114 15.957301,23.142053 15.80399,22.836416 l -0.114881,-0.229025 -0.01886,-0.71399 -0.01886,-0.713989 H 13.70257 11.753752 l -0.0159,0.258456 c -0.0087,0.14215 -0.02359,0.432902 -0.03298,0.646115 -0.0094,0.213213 -0.03524,0.457373 -0.05743,0.542577 -0.101972,0.391498 -0.418038,0.761139 -0.811436,0.948979 l -0.219083,0.104608 -1.0477944,0.0045 c -0.5762867,0.0025 -1.0941767,-0.0048 -1.1508668,-0.01628 z m 2.0058612,-0.88394 c 0.125068,-0.01591 0.275717,-0.138273 0.324092,-0.263243 0.01501,-0.03877 0.03835,-0.457434 0.05189,-0.93037 0.01353,-0.472937 0.03775,-0.908718 0.05382,-0.968404 0.03608,-0.133983 0.185009,-0.270497 0.328212,-0.300848 0.179,-0.03794 5.149749,-0.02519 5.240069,0.01344 0.04254,0.01819 0.09086,0.06788 0.107373,0.110417 0.01786,0.04599 0.03748,0.463533 0.0484,1.029928 l 0.01836,0.952589 0.106047,0.129396 c 0.07471,0.09116 0.138635,0.138171 0.216331,0.159093 0.0709,0.01909 0.462102,0.02684 1.095424,0.02169 0.971525,-0.0079 0.98636,-0.0089 1.073549,-0.07107 0.04863,-0.03468 0.114637,-0.117238 0.146692,-0.183454 0.05703,-0.117805 0.05828,-0.155246 0.05828,-1.742706 v -1.622315 l 0.293325,-0.258264 c 1.218452,-1.072811 1.919212,-2.376556 2.110102,-3.925786 0.03922,-0.318321 0.03903,-1.119504 -3.46e-4,-1.419497 C 21.555004,12.442846 21.164687,11.452515 20.553776,10.617647 20.37189,10.369083 19.811223,9.7886952 19.516176,9.5435528 19.051288,9.157295 18.280507,8.7195663 17.747921,8.5393564 c -0.218081,-0.073792 -0.265497,-0.06161 -0.595397,0.1529617 -0.578773,0.376442 -1.195267,0.6354181 -1.799583,0.7559673 -0.264977,0.052858 -0.358309,0.057077 -0.96397,0.043576 C 13.84353,9.4797027 13.676253,9.4663228 13.492639,9.4201662 12.99993,9.2963091 12.518854,9.0963442 12.015143,8.8060261 11.826465,8.6972802 11.737041,8.661782 11.651908,8.6618351 11.458558,8.6619469 10.945057,8.8117119 9.4014706,9.3181471 8.9173897,9.4769689 8.4222654,9.6273087 8.3011946,9.652235 7.9480756,9.7249362 7.9173289,9.7047764 7.438383,9.0865097 7.2919721,8.8975094 7.0455675,8.6009373 6.8908173,8.4274609 6.4110307,7.8896153 5.4492392,6.9853047 5.3569853,6.9852969 c -0.027637,-2.2e-6 -0.035327,0.470896 -0.036844,2.2562472 l -0.00192,2.2562499 -0.3495617,0.292917 c -0.565284,0.473684 -1.2448204,1.124021 -1.9064985,1.824579 l -0.6185837,0.654931 -0.1464205,0.01759 c -0.080532,0.0097 -0.2910172,0.01776 -0.4677451,0.01797 -0.176728,2.24e-4 -0.4439155,0.0085 -0.59375,0.01843 l -0.27242651,0.01804 1.6765e-4,1.260124 c 9.193e-5,0.693068 0.008074,1.360712 0.017738,1.483653 l 0.0175707,0.22353 1.60983536,0.690186 c 3.2321845,1.385738 4.9966522,2.151016 5.256159,2.279679 0.2454241,0.121681 0.268199,0.140034 0.30201,0.24337 0.024139,0.07377 0.045661,0.410934 0.063318,0.991912 0.025242,0.830552 0.046341,1.065568 0.1005144,1.11961 0.012721,0.01269 0.070402,0.0583 0.1281821,0.101363 l 0.1050541,0.07829 0.8728871,-0.0075 c 0.4800878,-0.0041 0.9244363,-0.01402 0.9874403,-0.02204 z M 15.325,8.525352 c 1.374518,-0.3166574 2.407045,-1.2483855 2.836591,-2.5596719 0.122786,-0.3748329 0.153115,-0.6162684 0.153115,-1.2188799 0,-0.5654481 -0.02949,-0.7573428 -0.185039,-1.2042348 C 17.890355,2.8550384 17.536482,2.3360957 16.997219,1.8818657 16.457453,1.4272135 15.992712,1.1953271 15.3455,1.0577271 14.963011,0.97640846 14.125009,0.96825534 13.755203,1.0422547 13.257739,1.1417987 12.811494,1.3249568 12.402312,1.5975393 11.936715,1.9077041 11.35036,2.5638375 11.110478,3.0431082 10.963529,3.3367034 10.78327,3.8933487 10.744831,4.1722424 c -0.04963,0.3601106 -0.03807,1.0377205 0.02309,1.3532311 0.151389,0.7809556 0.530619,1.4658238 1.126403,2.0342149 0.540387,0.5155416 1.221786,0.8655808 1.960258,1.0069978 0.291058,0.055737 1.154405,0.031468 1.470419,-0.041334 z"
     id="path877" />
  <path
     style="fill:#2bcfb5;fill-opacity:1;stroke-width:0.0279412"
     d="m 8.5415284,22.712863 c -0.077964,-0.03859 -0.1435205,-0.100138 -0.188603,-0.177065 l -0.069102,-0.117914 v -0.935089 -0.93509 L 8.2034569,20.42098 8.1230902,20.294255 4.5717159,18.773966 1.0203411,17.253676 1.0197294,15.807721 1.0191176,14.361765 h 0.6836109 c 0.5813461,0 0.6982732,-0.007 0.7816243,-0.04674 0.059556,-0.0284 0.1992183,-0.168182 0.3559447,-0.35625 0.3713317,-0.445588 1.5354741,-1.599243 1.9913716,-1.973431 0.2143667,-0.175947 0.4186865,-0.347622 0.4540441,-0.381501 L 5.35,11.542246 V 9.2899164 7.0375868 L 5.5525735,7.2034067 C 6.2552899,7.7786266 7.0339697,8.6185655 7.6072204,9.419693 7.8223364,9.7203217 7.8939351,9.7599475 8.1946289,9.7447907 8.3786042,9.7355172 8.5061383,9.6993713 9.0801471,9.4938161 10.014987,9.1590454 11.52576,8.6897059 11.668525,8.6897059 c 0.02758,0 0.157331,0.069871 0.288343,0.1552683 0.475026,0.3096377 1.049423,0.5409768 1.640599,0.660753 0.272622,0.055235 0.399792,0.064044 0.917239,0.063539 0.65834,-6.426e-4 0.932337,-0.040308 1.466912,-0.2123575 0.358711,-0.1154492 0.991717,-0.4388586 1.281931,-0.6549519 l 0.248108,-0.1847413 0.212921,0.076033 c 0.117107,0.041818 0.363804,0.147576 0.548216,0.2350168 2.484806,1.1781977 3.843845,3.8975307 3.293911,6.5908667 -0.265795,1.30175 -0.993274,2.530086 -1.991998,3.363455 -0.132081,0.110214 -0.252722,0.211123 -0.268089,0.224244 -0.01776,0.01516 -0.03304,0.632754 -0.04191,1.694044 l -0.01397,1.67019 -0.07869,0.118866 c -0.144559,0.218377 -0.179817,0.224927 -1.214491,0.225631 -0.749512,5.11e-4 -0.919389,-0.0067 -1.004859,-0.04236 -0.138557,-0.05789 -0.200868,-0.117466 -0.261914,-0.250405 -0.0465,-0.101259 -0.05138,-0.199344 -0.05194,-1.043483 -6.93e-4,-1.050063 -0.0015,-1.054521 -0.198221,-1.115922 -0.142588,-0.0445 -5.15367,-0.04903 -5.312922,-0.0048 -0.125588,0.03488 -0.258325,0.141948 -0.323016,0.260554 -0.04141,0.07591 -0.04959,0.21127 -0.06186,1.02351 -0.01384,0.915588 -0.01553,0.93796 -0.07721,1.02444 -0.03468,0.04863 -0.117239,0.114637 -0.183454,0.146691 -0.113962,0.05517 -0.16581,0.05828 -0.970761,0.05826 -0.809754,-2.1e-5 -0.8560771,-0.0028 -0.9698706,-0.05917 z M 5.6852941,14.943072 c 0.1466264,-0.04329 0.3524126,-0.182395 0.447564,-0.302533 0.1532482,-0.193492 0.2065253,-0.35089 0.2078544,-0.614068 0.00103,-0.204231 -0.010071,-0.261902 -0.079258,-0.411694 -0.093648,-0.202752 -0.2880867,-0.398903 -0.4851016,-0.489375 -0.1942613,-0.08921 -0.6086206,-0.08716 -0.7956334,0.0039 -0.4325501,0.210674 -0.6552359,0.67223 -0.54118,1.121693 0.141667,0.558269 0.6820804,0.858486 1.2457545,0.692057 z M 18.110284,11.066286 c 0.139362,-0.06327 0.25008,-0.217807 0.276689,-0.386186 0.0374,-0.236685 -0.134924,-0.497913 -0.371871,-0.563714 -0.146758,-0.04076 -6.854034,-0.04076 -7.000792,0 -0.236947,0.0658 -0.409274,0.327029 -0.371871,0.563714 0.02661,0.168379 0.137327,0.322913 0.276688,0.386186 0.112837,0.05123 0.237887,0.05307 3.595579,0.05307 3.357692,0 3.482742,-0.0018 3.595578,-0.05307 z"
     id="path879" />
  <path
     style="fill:#000000;fill-opacity:1;stroke-width:0.0279412"
     d="M 8.2940925,23.612525 C 7.9168969,23.47671 7.5272128,23.068477 7.3922019,22.667704 7.3485966,22.538263 7.3285575,22.366288 7.3046647,21.916461 7.2876225,21.595606 7.2652075,21.252709 7.2548539,21.154467 L 7.2360294,20.975846 5.8529412,20.377148 C 2.887712,19.093588 1.9233774,18.674202 1.0923485,18.306783 L 0.22954993,17.925318 0.1353632,17.785458 0.04117647,17.645599 0.04173954,16.862873 c 0.0010469,-1.45528 0.0495609,-3.107454 0.09375603,-3.192918 0.10371267,-0.200558 0.19635274,-0.220328 1.15778783,-0.247078 0.3793927,-0.01056 0.7095846,-0.0268 0.7337599,-0.03611 0.024175,-0.0093 0.2038064,-0.189455 0.3991804,-0.400337 0.3558388,-0.384085 1.275861,-1.262104 1.7829411,-1.701544 l 0.2701943,-0.234152 0.00468,-0.894117 c 0.00258,-0.4917641 0.01364,-1.6736758 0.024584,-2.6264699 0.018058,-1.5720986 0.024418,-1.7408678 0.068759,-1.8243974 0.1128019,-0.212499 0.4049336,-0.2681 0.6366224,-0.1211674 0.5243218,0.3325148 2.0104392,1.8405585 2.7764368,2.8174004 0.1968517,0.2510361 0.2339422,0.285216 0.3107788,0.2863901 0.092149,0.00141 0.3364109,-0.072665 1.5693455,-0.4759123 0.8811425,-0.2881886 0.9559055,-0.3169563 0.9559055,-0.3678171 0,-0.020691 -0.113574,-0.2236833 -0.252386,-0.4510943 C 10.435273,7.1661381 10.282905,6.903225 10.235491,6.809298 9.7060523,5.7604854 9.6211153,4.4783156 10.00479,3.3267435 c 0.326939,-0.9812828 0.955457,-1.8194216 1.8168,-2.42272993 0.44722,-0.31324556 1.178451,-0.62467 1.771057,-0.7542767 0.339571,-0.07426625 1.442445,-0.07529694 1.783856,-0.001667 0.613852,0.13238534 1.326204,0.44337379 1.820556,0.79479217 0.340321,0.24192346 0.882861,0.78446356 1.124785,1.12478516 0.350612,0.4932176 0.666884,1.2164548 0.794213,1.8161764 0.07416,0.3492932 0.07339,1.5038307 -0.0012,1.8441177 -0.116754,0.5324255 -0.319803,1.0240424 -0.677919,1.6413642 -0.100236,0.1727871 -0.178166,0.3346073 -0.173178,0.3596004 0.0052,0.026119 0.216992,0.1576639 0.498039,0.3093518 0.848323,0.4578615 1.377126,0.8483623 1.922868,1.4199653 0.30954,0.3242085 0.677301,0.797323 0.880417,1.132632 0.19687,0.325 0.541527,1.048371 0.660157,1.38555 l 0.106866,0.303742 0.646982,0.0075 0.646981,0.0075 0.122754,0.122753 c 0.177732,0.177732 0.201494,0.387673 0.0637,0.562843 -0.09316,0.118436 -0.217195,0.151375 -0.723953,0.192257 -0.261465,0.02109 -0.483809,0.04676 -0.494098,0.05704 -0.01029,0.01028 -0.02694,0.479727 -0.03701,1.043218 -0.01348,0.754725 -0.02956,1.077321 -0.06107,1.224998 -0.140965,0.660744 -0.315963,1.164607 -0.604052,1.739224 -0.398507,0.794852 -0.663792,1.15373 -1.457553,1.971777 l -0.352739,0.36353 -0.01981,1.215441 c -0.02394,1.468763 -0.04482,1.812498 -0.120506,1.983824 -0.139914,0.316726 -0.436524,0.604868 -0.822978,0.799483 l -0.187919,0.09463 h -1.077131 -1.07713 l -0.189201,-0.09528 c -0.368704,-0.185676 -0.638594,-0.46272 -0.819041,-0.840749 -0.07703,-0.161378 -0.08003,-0.18332 -0.08019,-0.586765 -8.4e-5,-0.230514 -0.0083,-0.541709 -0.01821,-0.691544 l -0.01804,-0.272426 h -1.950402 -1.950402 l -0.01412,0.09081 c -0.0078,0.04994 -0.0216,0.273125 -0.03074,0.495955 -0.02668,0.650499 -0.05794,0.851494 -0.169144,1.087538 -0.131394,0.278904 -0.416107,0.561777 -0.712673,0.708065 l -0.211643,0.104397 -1.0876212,-0.001 C 8.5392361,23.664254 8.4240857,23.65933 8.2940925,23.612524 Z M 9.986304,22.809469 c 0.453275,-0.01642 0.519495,-0.02496 0.59566,-0.07684 0.190287,-0.129608 0.185709,-0.106934 0.231499,-1.146605 0.03569,-0.810346 0.04898,-0.960061 0.09175,-1.033289 0.07745,-0.132609 0.207924,-0.204897 0.408618,-0.22639 0.09792,-0.01049 1.276239,-0.01421 2.618496,-0.0083 2.537001,0.01121 2.533188,0.01102 2.579402,0.127114 0.01088,0.02732 0.03302,0.489746 0.0492,1.027614 l 0.02943,0.977941 0.07284,0.0856 c 0.175516,0.206284 0.09225,0.193808 1.293436,0.193808 h 1.080895 l 0.08909,-0.08382 c 0.17029,-0.160224 0.166031,-0.11197 0.166031,-1.880958 v -1.617312 l 0.300368,-0.271984 c 1.174924,-1.063898 1.826237,-2.213185 2.075353,-3.662099 0.08427,-0.490131 0.08411,-1.453526 -3.13e-4,-1.953476 C 21.469152,12.082682 20.978634,11.045019 20.231108,10.220717 19.849043,9.7994115 19.499063,9.4915783 19.095283,9.2216757 18.522625,8.8388869 17.802867,8.4941176 17.576398,8.4941176 c -0.117485,0 -0.17957,0.028778 -0.546986,0.253536 -0.521761,0.3191757 -1.151734,0.5783455 -1.654337,0.6805923 -0.257685,0.052422 -1.3173,0.061151 -1.661656,0.013688 C 13.350801,9.3919545 12.85208,9.2115976 12.284106,8.925039 11.824999,8.6934067 11.745077,8.6618678 11.617088,8.6618195 11.442871,8.6617538 10.982859,8.7925685 9.6529412,9.2203678 8.6371364,9.5471256 8.215808,9.6676471 8.0893085,9.6676471 7.957788,9.6676471 7.8344749,9.5543825 7.4645701,9.0938163 6.9679266,8.4754487 6.5800147,8.0510505 6.09551,7.5959843 5.6468613,7.1745956 5.4207303,6.9852941 5.3660075,6.9852941 c -0.039886,0 -0.071657,1.5035161 -0.072035,3.4088239 l -2.235e-4,1.103676 -0.3840096,0.32496 c -0.4444536,0.376114 -1.0751929,0.976738 -1.654007,1.57504 -0.2230063,0.230515 -0.5062798,0.521181 -0.6294965,0.645926 l -0.2240304,0.226808 -0.4051471,0.01757 c -0.2228309,0.0097 -0.4994485,0.01776 -0.6147059,0.01799 -0.1152573,2.23e-4 -0.2567095,0.0082 -0.3143382,0.01773 l -0.10477941,0.01732 0.002785,1.42833 c 0.001532,0.785581 0.010962,1.457283 0.0209559,1.492671 0.015458,0.05474 0.37691081,0.218665 2.42111181,1.098048 3.4041261,1.4644 3.9795143,1.714826 4.3624825,1.898686 0.2999144,0.143985 0.3427186,0.173382 0.3716492,0.255237 0.018448,0.0522 0.050505,0.49364 0.073564,1.013011 0.022477,0.506275 0.053505,0.965209 0.068951,1.019853 0.018356,0.06494 0.069038,0.130654 0.146307,0.189711 l 0.1182227,0.09036 0.4635355,4.5e-4 c 0.2549445,2.52e-4 0.6930213,-0.0079 0.9735038,-0.01802 z M 15.040063,8.5775341 C 15.91229,8.4856521 16.853164,7.9806019 17.431407,7.2938871 17.857476,6.7878933 18.160296,6.1725146 18.27138,5.5869296 18.32205,5.3198324 18.33135,4.3382594 18.28587,4.0580102 18.223408,3.6730987 17.959097,3.0230229 17.717236,2.6594421 17.272454,1.990815 16.511861,1.4018797 15.786029,1.1640868 15.417717,1.0434223 15.167425,1.0031913 14.682353,0.98668559 13.809618,0.95698873 13.194548,1.1029183 12.545363,1.4937019 c -0.532899,0.3207834 -1.114425,0.9331679 -1.42062,1.496004 -0.119196,0.2191035 -0.306969,0.7561271 -0.368657,1.0543488 -0.06057,0.2928062 -0.05995,1.1257707 0.0011,1.4742053 0.20006,1.1419718 1.007744,2.1940632 2.087882,2.7196792 0.301994,0.1469567 0.73712,0.2966909 0.980014,0.3372403 0.202283,0.03377 0.903863,0.035129 1.214991,0.00236 z"
     id="path881" />
  <path
     style="fill:#2bcfb5;stroke-width:0.0279412;fill-opacity:1"
     d="M 8.9683824,23.639675 8.3257353,23.624265 8.1720589,23.541091 C 7.9389515,23.414927 7.5845087,23.04892 7.4779604,22.824345 7.3749773,22.607286 7.3481241,22.432972 7.3063381,21.710294 7.2898998,21.425993 7.2692904,21.141408 7.26054,21.077883 L 7.24463,20.962384 5.3543002,20.143788 C 3.8692625,19.500701 1.6393823,18.528524 0.35683534,17.965007 0.27366988,17.928467 0.21088957,17.870155 0.14167499,17.765162 L 0.04394413,17.616912 0.07056636,15.92647 c 0.01464223,-0.929742 0.03717724,-1.819535 0.05007781,-1.977316 0.0379786,-0.464501 0.0431216,-0.466747 1.17453133,-0.512998 l 0.7431152,-0.03038 0.6290165,-0.634532 c 0.5962327,-0.601462 1.178939,-1.15269 1.6120015,-1.524923 l 0.1950442,-0.167647 0.018706,-0.710047 c 0.010289,-0.3905256 0.019649,-1.1889447 0.0208,-1.7742643 0.00115,-0.5853199 0.011158,-1.4617153 0.022235,-1.9475458 0.022231,-0.9750264 0.023472,-0.981495 0.2064484,-1.0764852 0.1444888,-0.07501 0.3017694,-0.060734 0.4726803,0.042904 0.4867202,0.2951399 1.8688352,1.6948092 2.7581758,2.7932068 L 8.2078247,8.695977 8.3506035,8.6836817 c 0.135945,-0.011706 1.475545,-0.4271524 2.1560675,-0.6686538 0.265634,-0.094267 0.3198,-0.1231072 0.3198,-0.170273 0,-0.031231 -0.109121,-0.2405291 -0.24249,-0.4651071 C 10.148435,6.6462377 10.028547,6.3692306 9.8869952,5.7692173 9.8125563,5.4536848 9.8080569,5.3986293 9.8082687,4.8058824 9.8084643,4.2568489 9.8165513,4.1400391 9.8720992,3.8838235 10.11124,2.7807831 10.717558,1.7950966 11.577743,1.1109678 c 0.498462,-0.39644001 1.127788,-0.70242735 1.870112,-0.90927451 0.263043,-0.0732965 0.291399,-0.0753899 1.024939,-0.0756699 0.537711,-2.0537e-4 0.802172,0.0106479 0.920681,0.0377836 0.561574,0.12858646 1.411144,0.50857039 1.817554,0.81293078 0.293871,0.22007953 0.842669,0.76674653 1.059056,1.05494483 0.305227,0.406521 0.631042,1.0981648 0.790288,1.6776335 0.07275,0.2647323 0.07488,0.2944374 0.07672,1.0686251 0.0016,0.6736654 -0.0058,0.827982 -0.04802,1.0018574 -0.112904,0.4649987 -0.287332,0.8871933 -0.622239,1.5061009 -0.114272,0.2111744 -0.207821,0.4058045 -0.207885,0.4325113 -8.4e-5,0.032323 0.09414,0.1023871 0.281803,0.2095588 1.122922,0.6412813 1.462176,0.8818917 1.997368,1.4166003 0.499507,0.4990557 0.893856,1.0165061 1.161856,1.5245481 0.189526,0.359281 0.424427,0.877506 0.528771,1.166544 l 0.0933,0.258456 h 0.645262 0.645262 l 0.08508,0.09081 c 0.138642,0.147974 0.177357,0.222568 0.177246,0.341512 -5.5e-5,0.06352 -0.02466,0.152813 -0.05649,0.205023 -0.091,0.14925 -0.148986,0.164387 -0.974049,0.254252 -0.140714,0.01533 -0.243793,0.04046 -0.258028,0.06292 -0.01304,0.02057 -0.02434,0.163133 -0.02513,0.316809 -7.83e-4,0.153677 -0.01322,0.625184 -0.02764,1.047794 -0.02228,0.653139 -0.03641,0.812385 -0.0942,1.061765 -0.137303,0.592468 -0.355424,1.171623 -0.652438,1.732353 -0.353105,0.666623 -0.642962,1.045576 -1.370087,1.791223 l -0.343502,0.352253 -0.02709,1.310247 c -0.03233,1.563337 -0.0502,1.771762 -0.171468,1.99928 -0.116677,0.218907 -0.425644,0.506752 -0.722492,0.673098 l -0.23684,0.132719 h -1.061765 -1.061764 l -0.2375,-0.132719 c -0.31471,-0.175865 -0.566916,-0.430036 -0.72145,-0.72707 l -0.116913,-0.22472 -0.01509,-0.554435 c -0.0083,-0.304939 -0.02175,-0.620446 -0.02989,-0.701126 l -0.0148,-0.146691 H 13.70405 c -1.073722,0 -1.958651,0.0104 -1.966507,0.02311 -0.0079,0.01271 -0.02836,0.273612 -0.04555,0.579779 -0.0172,0.306167 -0.04859,0.641726 -0.06977,0.745686 -0.08411,0.412916 -0.395028,0.80251 -0.813984,1.019956 l -0.227795,0.11823 -0.484705,-0.0055 c -0.2665866,-0.003 -0.7738947,-0.01248 -1.1273506,-0.02096 z m 1.5926466,-0.884733 c 0.06147,-0.032 0.133981,-0.09621 0.161133,-0.142672 0.05068,-0.08673 0.04937,-0.07193 0.130861,-1.485005 0.03217,-0.557933 0.05489,-0.622839 0.253499,-0.724195 l 0.125096,-0.06384 2.570588,0.008 c 1.981003,0.0061 2.584454,0.0159 2.631043,0.04258 0.07525,0.04309 0.0839,0.133772 0.120566,1.263323 l 0.02671,0.822942 0.109223,0.109223 c 0.07682,0.07682 0.145482,0.116226 0.231427,0.132827 0.06721,0.01298 0.575528,0.02415 1.129591,0.02482 l 1.007386,0.0012 0.09148,-0.09438 c 0.05031,-0.05191 0.102773,-0.143068 0.116579,-0.202574 0.01381,-0.05951 0.0254,-0.818873 0.02577,-1.687482 l 6.67e-4,-1.579287 0.404478,-0.38501 c 0.222464,-0.211756 0.506592,-0.506958 0.631396,-0.656005 1.002296,-1.196989 1.482996,-2.627288 1.410454,-4.196731 -0.02429,-0.525481 -0.05505,-0.739855 -0.174193,-1.21392 -0.384366,-1.529372 -1.313319,-2.8046705 -2.649329,-3.6370887 -0.59449,-0.3704047 -1.10899,-0.5975207 -1.353601,-0.5975207 -0.10658,0 -0.176025,0.027334 -0.393788,0.1549956 C 16.488046,9.0477982 15.779721,9.3444111 15.330798,9.418503 15.074749,9.460762 13.87848,9.459699 13.64853,9.417013 13.332275,9.358299 12.896874,9.195658 12.349266,8.931682 l -0.530883,-0.2559132 -0.2375,0.00213 C 11.314396,8.6802475 11.281846,8.6890501 9.7781769,9.1653655 8.1986549,9.6657085 8.10761,9.6868194 7.9433486,9.5908082 7.8973379,9.5639148 7.6571684,9.2967274 7.4096383,8.9970582 6.7808727,8.2358512 5.5252555,6.9852935 5.3897341,6.9852935 c -0.018269,0 -0.042402,0.02829 -0.053629,0.062868 -0.011227,0.034577 -0.026661,1.0460031 -0.034298,2.2476131 L 5.2879209,11.48052 4.9352041,11.782539 c -0.543364,0.465264 -1.1372051,1.033012 -1.8690227,1.786898 l -0.6678842,0.688026 -0.6826045,0.02484 c -0.3754324,0.01367 -0.6983213,0.03045 -0.71753084,0.0373 -0.027339,0.0098 -0.0349265,0.330909 -0.0349265,1.478346 v 1.465886 l 0.0777519,0.05536 c 0.1096328,0.07806 0.5845529,0.288057 3.3590128,1.485226 3.4823102,1.502605 3.6245098,1.567306 3.6996797,1.683371 0.041448,0.064 0.064592,0.330271 0.1304621,1.501009 0.033097,0.588246 0.048015,0.645614 0.199819,0.768411 l 0.091363,0.0739 0.9639705,-0.009 c 0.9127256,-0.0085 0.9699116,-0.01209 1.0757346,-0.06719 z M 15.145217,8.5759177 c 1.507113,-0.2096201 2.824896,-1.4576594 3.130235,-2.9645667 0.03549,-0.1751288 0.04197,-0.3587772 0.03309,-0.9377271 L 18.297504,3.9536765 18.197734,3.6601153 C 17.961012,2.9635887 17.705918,2.5418743 17.241962,2.0800588 16.783615,1.623827 16.292784,1.3152696 15.741294,1.1366747 15.355658,1.0117901 15.182644,0.99188574 14.486765,0.99234786 c -0.618935,4.1101e-4 -0.673455,0.004718 -0.95,0.0750558 -0.698332,0.1776159 -1.2116,0.4806191 -1.749086,1.0325571 -0.495166,0.5084794 -0.71818,0.8771157 -0.931134,1.5391414 -0.09237,0.2871442 -0.120243,0.4249752 -0.144107,0.7124999 -0.0515,0.620471 0.0012,1.1676204 0.159177,1.6521928 0.359758,1.1036066 1.253968,2.0104959 2.385738,2.4195673 0.444326,0.1605992 0.561969,0.1793318 1.136581,0.1809817 0.294715,8.466e-4 0.632793,-0.011946 0.751283,-0.028426 z"
     id="path846" />
  <path
     style="fill:#ffffff;fill-opacity:0.57831323;stroke-width:0.0279412"
     d="M 8.9110499,22.747578 C 8.5630364,22.727934 8.5022696,22.701995 8.3670925,22.515388 L 8.2838236,22.400439 V 21.460101 20.519764 L 8.2035505,20.395544 8.1232772,20.271323 4.5921535,18.76438 C 2.6500352,17.935561 1.059521,17.256591 1.0576773,17.255557 c -0.00184,-0.001 -0.012247,-0.652561 -0.023119,-1.447836 L 1.014792,14.361765 h 0.7020799 c 0.5617148,0 0.717893,-0.0082 0.7811746,-0.0409 0.043502,-0.0225 0.221289,-0.201669 0.395082,-0.398162 C 3.2983072,13.4646 4.2996256,12.46826 4.6947764,12.130011 4.8630538,11.985966 5.0792456,11.79976 5.1752029,11.71622 l 0.1744675,-0.15189 0.00715,-2.2503472 0.00715,-2.2503469 0.307353,0.2640081 C 6.2698512,7.8417637 6.9596362,8.5868772 7.5021991,9.3053764 7.6424886,9.4911576 7.7971609,9.6674832 7.8459149,9.697211 7.9747626,9.7757759 8.2673528,9.7701635 8.5506998,9.6836922 8.6728516,9.646414 9.1437133,9.4902775 9.5970588,9.336722 10.595588,8.9985041 11.410879,8.7484701 11.580882,8.7283219 c 0.115208,-0.013654 0.147961,-0.00163 0.391177,0.1436006 0.145992,0.087176 0.325864,0.1892814 0.399714,0.2269004 0.410476,0.2090937 1.026776,0.3996625 1.486315,0.4595892 0.341495,0.044533 1.295165,0.018449 1.592647,-0.043561 0.638681,-0.1331323 1.470449,-0.5170276 1.969853,-0.9091689 l 0.09779,-0.07679 0.321324,0.1314801 c 1.776729,0.727007 2.991799,2.0208927 3.556716,3.7874217 0.458869,1.434909 0.337459,3.007374 -0.338701,4.386765 -0.357684,0.729687 -0.810876,1.324443 -1.430547,1.877409 -0.276208,0.246476 -0.32301,0.300683 -0.338288,0.39182 -0.0098,0.05817 -0.02707,0.820438 -0.03848,1.693919 l -0.02075,1.588149 -0.08854,0.116263 c -0.139056,0.182603 -0.180953,0.189137 -1.21171,0.188991 -0.889566,-1.39e-4 -0.904293,-0.0011 -1.019209,-0.06445 -0.0677,-0.03735 -0.141742,-0.109142 -0.176553,-0.171201 -0.05664,-0.100971 -0.06101,-0.15735 -0.07918,-1.019773 -0.01057,-0.502092 -0.02637,-0.954473 -0.03511,-1.005292 -0.03263,-0.189869 0.0053,-0.185114 -1.628374,-0.203862 -0.807506,-0.0093 -2.01609,-0.0093 -2.685744,0 l -1.217552,0.01685 -0.11586,0.07672 c -0.208275,0.137914 -0.20911,0.142078 -0.242419,1.208575 -0.02059,0.659082 -0.04037,0.968984 -0.06461,1.011991 -0.01922,0.0341 -0.08815,0.09273 -0.153178,0.130304 -0.112748,0.06514 -0.145476,0.06891 -0.7050013,0.08118 -0.3227206,0.0071 -0.7257263,0.005 -0.8955678,-0.0046 z m -3.2735502,-7.78472 c 0.2797247,-0.07286 0.5217207,-0.273679 0.6401656,-0.53124 0.053445,-0.116217 0.064243,-0.186685 0.064225,-0.419118 -1.93e-5,-0.249644 -0.00807,-0.294665 -0.075526,-0.422585 C 6.1698939,13.406987 5.974912,13.211996 5.8045999,13.128129 5.6903719,13.07188 5.6293923,13.0625 5.3779412,13.0625 c -0.2485275,0 -0.3130504,0.0097 -0.4220254,0.06339 -0.1769476,0.08719 -0.3702991,0.285607 -0.4637479,0.475904 -0.068048,0.138571 -0.078197,0.191879 -0.078197,0.41071 0,0.213321 0.01117,0.275293 0.07363,0.4085 0.2128905,0.454032 0.6664795,0.667773 1.1498993,0.541858 z M 18.153421,11.058295 c 0.04056,-0.02658 0.109155,-0.09475 0.152439,-0.151501 0.06811,-0.08929 0.0787,-0.128236 0.0787,-0.289361 0,-0.157224 -0.01185,-0.203284 -0.0762,-0.296143 -0.04191,-0.06048 -0.117353,-0.134845 -0.167647,-0.165259 -0.08787,-0.05314 -0.160428,-0.05584 -1.858723,-0.06927 -0.972003,-0.0077 -2.563646,-0.0077 -3.536983,0 l -1.769703,0.01397 -0.115343,0.07996 c -0.203399,0.140998 -0.287169,0.431818 -0.185873,0.645283 0.06025,0.126956 0.186722,0.240786 0.296824,0.267145 0.05119,0.01225 1.671598,0.0203 3.600919,0.01789 3.273489,-0.0041 3.512782,-0.0076 3.581595,-0.05271 z"
     id="path848" />
  <path
     style="fill:#2bcfb5;fill-opacity:1;stroke-width:0.0279412"
     d="m 10.945733,10.994873 c -0.170922,-0.1153 -0.231027,-0.21564 -0.231027,-0.385677 0,-0.142114 0.07961,-0.279561 0.21461,-0.370539 0.08058,-0.0543 0.139461,-0.06047 0.739776,-0.07744 0.844697,-0.02388 4.846531,-0.02388 5.691227,0 0.600316,0.01697 0.659199,0.02314 0.739777,0.07744 0.137331,0.09255 0.214626,0.228084 0.214505,0.376137 -1.39e-4,0.162274 -0.07253,0.284114 -0.229397,0.386054 l -0.119763,0.07783 -3.436765,0.0074 -3.436764,0.0074 z"
     id="path850" />
  <path
     style="fill:#2bcfb5;fill-opacity:1;stroke-width:0.0279412"
     d="M 5.094923,14.87934 C 4.8383901,14.784948 4.6275044,14.569867 4.52607,14.299169 4.452443,14.102681 4.477135,13.804277 4.583137,13.609516 c 0.082389,-0.151376 0.2684287,-0.336427 0.4175983,-0.41538 0.05201,-0.02753 0.1807989,-0.04889 0.3393416,-0.05628 0.2460568,-0.01147 0.261908,-0.0085 0.4280848,0.08006 0.1915314,0.102085 0.3581765,0.273704 0.4500423,0.463473 0.051801,0.107008 0.058751,0.16001 0.048224,0.367772 -0.013114,0.258808 -0.06116,0.389304 -0.207261,0.562935 -0.210819,0.250544 -0.6664361,0.376818 -0.9642437,0.267239 z"
     id="path852" />
  <path
     style="fill:#25a4e6;stroke-width:0.0279412"
     d="m 9.4380453,23.636124 -1.0950426,-0.02055 -0.147889,-0.07948 C 7.9766221,23.418674 7.6119953,23.042891 7.5053131,22.825191 7.3923715,22.594718 7.3716492,22.469963 7.3201235,21.710294 c -0.04458,-0.657259 -0.060037,-0.782353 -0.096675,-0.782353 -0.035049,0 -6.65936654,-2.881167 -6.87507298,-2.99023 C 0.29450469,17.910473 0.20773441,17.828738 0.1555531,17.756076 L 0.06067799,17.623965 0.08087969,16.209409 C 0.105586,14.479433 0.13450349,13.779166 0.1856426,13.672468 0.26109852,13.515034 0.42543352,13.484631 1.4263,13.44294 l 0.616741,-0.02569 0.7258073,-0.722228 c 0.399194,-0.397225 0.9471004,-0.921008 1.2175696,-1.163961 L 4.47818,11.089329 4.4949389,10.692826 c 0.00922,-0.218076 0.029094,-1.3835245 0.04417,-2.5898848 0.015129,-1.2106085 0.039528,-2.2434599 0.054453,-2.305147 0.052501,-0.2169865 0.2634557,-0.3119132 0.4958922,-0.223145 0.373165,0.1425132 1.6676059,1.4083317 2.6841705,2.6248187 0.1932132,0.2312119 0.3717579,0.4424645 0.3967658,0.4694503 0.040168,0.043345 0.064703,0.045509 0.2104624,0.018564 C 8.6737617,8.6333354 10.348275,8.1045562 10.69375,7.957114 10.888926,7.8738169 10.887943,7.8700157 10.497496,7.1977728 10.134931,6.5735323 9.958718,6.1207914 9.8614634,5.5636195 9.8045754,5.2377077 9.8066473,4.3672752 9.8651338,4.021468 9.9782176,3.352851 10.337401,2.5346432 10.765768,1.969853 10.954113,1.7215254 11.36856,1.3031997 11.622794,1.1048058 12.060587,0.76317081 12.584563,0.4940476 13.198093,0.29570686 13.661888,0.14577203 13.787444,0.13247647 14.620031,0.14513291 l 0.746881,0.0113536 0.385842,0.1307622 c 0.469093,0.15897621 1.005916,0.41200507 1.326114,0.6250571 0.294099,0.19568719 0.927692,0.80588229 1.169974,1.12676879 0.219981,0.2913511 0.584701,1.0154328 0.721289,1.4319829 0.145984,0.4452058 0.161691,0.6000765 0.147729,1.4565409 -0.01151,0.7061157 -0.01717,0.7748135 -0.08205,0.9959311 -0.110681,0.3772438 -0.261114,0.7322214 -0.530256,1.2512472 -0.148385,0.2861512 -0.246801,0.5081181 -0.241578,0.5448529 0.0068,0.047857 0.157449,0.1511637 0.660816,0.4531646 0.358601,0.215147 0.779527,0.4854779 0.935391,0.6007352 0.545162,0.4031345 1.275232,1.198389 1.642008,1.7886166 0.188182,0.302827 0.518162,0.982889 0.677697,1.396678 l 0.123886,0.321323 0.638147,0.0075 0.638146,0.0075 0.09397,0.09027 c 0.173807,0.166969 0.21985,0.35175 0.130636,0.524271 -0.06562,0.126893 -0.170898,0.162423 -0.661853,0.223367 -0.250427,0.03109 -0.481658,0.06762 -0.513849,0.08119 -0.0504,0.02125 -0.06105,0.05702 -0.07667,0.257761 -0.01,0.1282 -0.01828,0.39026 -0.01845,0.582356 -1.67e-4,0.192095 -0.01324,0.586127 -0.02905,0.875625 -0.02445,0.447897 -0.04294,0.581779 -0.124018,0.898122 -0.128074,0.49971 -0.25491,0.836368 -0.516013,1.369635 -0.369311,0.754269 -0.699666,1.206016 -1.430204,1.955745 l -0.387505,0.397686 -5.79e-4,0.485784 c -9.27e-4,0.778797 -0.05143,2.22777 -0.08557,2.455107 -0.01727,0.114964 -0.05785,0.265847 -0.09018,0.335294 -0.08619,0.185115 -0.439652,0.519589 -0.731374,0.692075 l -0.248095,0.146691 h -1.03758 -1.037581 l -0.245819,-0.14654 C 16.25806,23.333513 16.014235,23.090225 15.851954,22.802892 l -0.126786,-0.224485 -0.01841,-0.674139 c -0.01013,-0.370776 -0.02547,-0.68555 -0.03409,-0.699497 -0.0091,-0.0148 -0.834604,-0.02536 -1.981653,-0.02536 h -1.96598 l -0.0161,0.174632 c -0.0089,0.09605 -0.02937,0.369522 -0.0456,0.607721 -0.01622,0.238198 -0.04788,0.507109 -0.07035,0.59758 -0.09465,0.381124 -0.382506,0.740153 -0.768707,0.958781 -0.114053,0.06457 -0.226229,0.122151 -0.24928,0.127969 -0.02305,0.0058 -0.534681,0.0013 -1.1369547,-0.01 z m 0.7318077,-0.817497 c 0.331491,-0.0094 0.438462,-0.0434 0.539118,-0.171359 0.06743,-0.08573 0.07859,-0.177107 0.131409,-1.07668 0.05999,-1.021532 0.06576,-1.04479 0.287101,-1.155448 l 0.132078,-0.06603 2.333088,0.01054 c 1.283199,0.0058 2.448791,0.01771 2.590205,0.02648 l 0.257116,0.01594 0.02878,0.0883 c 0.02945,0.09037 0.0852,1.205653 0.0855,1.710394 1.68e-4,0.280187 4e-4,0.281144 0.09098,0.368804 0.178859,0.173108 0.190139,0.174545 1.370335,0.174545 h 1.071762 l 0.05748,-0.06287 c 0.152122,-0.166368 0.147845,-0.112717 0.147845,-1.85443 v -1.612719 l 0.495956,-0.491514 c 0.852765,-0.845127 1.325381,-1.566277 1.651627,-2.52017 0.340201,-0.994695 0.411391,-2.265038 0.183692,-3.277859 C 21.423294,12.032153 21.03858,11.200804 20.498195,10.491912 20.308277,10.242771 19.786602,9.716149 19.516176,9.5005795 19.043686,9.1239341 18.305019,8.6926643 17.895573,8.5543924 17.618335,8.4607676 17.464701,8.4725169 17.220301,8.6060347 16.778807,8.8472268 16.248686,9.1052977 15.995588,9.2022435 15.540637,9.3765064 15.343557,9.4140063 14.783338,9.4329071 14.08566,9.4564453 13.625409,9.4164433 13.285294,9.3027065 12.995832,9.2059088 12.461767,8.9765556 12.077396,8.7839775 11.855083,8.6725933 11.815123,8.6617647 11.626411,8.6617647 11.363962,8.6617647 11.1616,8.7146741 9.8625,9.1229568 8.1428142,9.6634213 8.084772,9.6757757 7.9193326,9.5365675 7.8701807,9.4952089 7.6403221,9.240595 7.4085358,8.9707587 6.9568951,8.444977 5.9990529,7.454759 5.6600745,7.1631984 5.4580531,6.9894364 5.3738741,6.9520017 5.3331893,7.0178311 5.3221293,7.0357263 5.3033131,8.044735 5.2913756,9.2600725 l -0.021705,2.2097045 -0.094829,0.08386 c -0.052156,0.04612 -0.2946185,0.259891 -0.5388057,0.475038 -0.2441868,0.215148 -0.8529801,0.801495 -1.3528737,1.302994 l -0.9088974,0.911817 -0.6802375,0.02827 c -0.3741306,0.01555 -0.6917246,0.03976 -0.70576444,0.0538 -0.01495,0.01495 -0.0225292,0.638437 -0.0182919,1.504762 l 0.007235,1.479236 0.21494754,0.105289 c 0.2681611,0.131355 0.8175154,0.371777 3.5626014,1.559157 2.682242,1.160196 3.1733568,1.38156 3.2742904,1.475846 0.096574,0.09021 0.097804,0.09905 0.1699332,1.219919 0.029717,0.461792 0.067555,0.876719 0.084085,0.922059 0.01653,0.04534 0.074889,0.121105 0.1296864,0.168367 l 0.099632,0.08593 0.6750588,-0.0094 c 0.3712827,-0.0052 0.8133683,-0.01331 0.9824123,-0.01811 z M 15.295378,8.5626275 C 16.047232,8.4200031 16.657953,8.0875456 17.239964,7.5040545 17.601356,7.1417438 17.796711,6.8732459 17.993503,6.4683824 18.276005,5.887185 18.313615,5.6818447 18.314221,4.7173958 L 18.314706,3.9443506 18.202111,3.6300359 C 17.956042,2.9431194 17.739415,2.583696 17.296474,2.1274153 16.938834,1.7590044 16.62108,1.5205154 16.233088,1.3292935 15.618946,1.0266138 15.274501,0.96441168 14.326297,0.98495247 13.746281,0.99751725 13.704277,1.0021995 13.411029,1.0869771 12.790986,1.2662312 12.295565,1.5681784 11.803651,2.0666359 11.440202,2.4349197 11.271791,2.6652568 11.077676,3.0595589 10.7884,3.647161 10.686765,4.102102 10.686765,4.809358 c 0,1.6580006 0.946904,2.9999086 2.555371,3.6213503 0.394055,0.1522456 0.521353,0.170492 1.206616,0.1729528 0.449643,0.00161 0.680884,-0.00959 0.846626,-0.041034 z"
     id="path849" />
  <path
     style="fill:#25a4e6;stroke-width:0.0279412"
     d="m 10.95261,10.976382 c -0.163213,-0.11688 -0.209963,-0.199239 -0.209963,-0.369888 0,-0.145448 0.08413,-0.282599 0.223624,-0.364542 0.09496,-0.05579 0.146026,-0.05778 1.823067,-0.07136 0.948952,-0.0077 2.501783,-0.0077 3.450735,0 1.677042,0.01358 1.728105,0.01558 1.823067,0.07136 0.142929,0.08396 0.223646,0.218602 0.22352,0.372842 -1.4e-4,0.157133 -0.06493,0.27064 -0.2118,0.371008 l -0.109419,0.07477 -3.434992,0.0091 -3.434992,0.0091 z"
     id="path851" />
  <path
     style="fill:#25a4e6;stroke-width:0.0279412"
     d="M 5.0286765,14.828061 C 4.8520849,14.74277 4.6693398,14.557534 4.5783885,14.371636 4.4172453,14.042272 4.5217995,13.60999 4.8273047,13.342486 5.0021363,13.189402 5.0939255,13.160654 5.4085358,13.16045 c 0.2312238,-1.5e-4 0.2463325,0.0038 0.4063333,0.107251 0.1678247,0.108471 0.2996447,0.25115 0.3835085,0.415103 0.060237,0.117762 0.061199,0.483931 0.00173,0.658463 -0.060321,0.177031 -0.2340733,0.365303 -0.4219736,0.457234 -0.2279369,0.111519 -0.5532034,0.124348 -0.7494575,0.02956 z"
     id="path853" />
  <path
     style="fill:#72aacc;stroke-width:0.0279412;fill-opacity:1"
     d="M 8.7284674,22.720328 C 8.5685654,22.695776 8.4737372,22.634666 8.3670925,22.487447 L 8.2838236,22.372498 V 21.438651 20.504804 L 8.2130617,20.384058 8.1422998,20.263312 6.8090302,19.694523 C 6.0757319,19.38169 4.4887326,18.704305 3.2823655,18.189223 L 1.0889707,17.25271 1.0707457,16.848047 C 1.0607219,16.625481 1.0471694,15.975018 1.040629,15.402573 l -0.011892,-1.040808 0.7286461,4.41e-4 0.728646,4.42e-4 0.4864075,-0.510368 c 0.7096143,-0.74457 1.4074412,-1.423706 1.918862,-1.867464 0.2471632,-0.214462 0.452632,-0.40549 0.4565979,-0.424506 0.00397,-0.01902 0.013227,-1.03151 0.02058,-2.2499862 l 0.01337,-2.2154115 0.1726798,0.1472535 c 0.28329,0.2415767 0.9552675,0.9089058 1.2466043,1.2379813 0.1496582,0.1690441 0.4168577,0.4901004 0.5937771,0.7134585 0.1769193,0.2233581 0.3638343,0.4415832 0.4153668,0.4849448 0.091892,0.077322 0.099098,0.078601 0.374431,0.066458 0.272626,-0.012023 0.3162928,-0.024173 1.5115224,-0.4205842 1.3439446,-0.4457338 1.7884086,-0.5788364 1.9328846,-0.5788364 0.06482,0 0.188116,0.05411 0.393316,0.1726145 0.390954,0.2257791 0.622765,0.3305426 0.998585,0.4512963 0.544833,0.1750586 0.804407,0.2143539 1.414258,0.2140952 0.297256,-1.257e-4 0.653626,-0.013024 0.791935,-0.028661 0.271199,-0.030663 0.768382,-0.1590717 0.768382,-0.1984529 0,-0.01327 0.0094,-0.022638 0.02096,-0.020818 0.01153,0.00182 0.02724,8.854e-4 0.03493,-0.00208 0.0077,-0.00296 0.0454,-0.010986 0.08382,-0.017831 0.133682,-0.023818 0.854008,-0.3945636 1.127511,-0.5803195 l 0.275306,-0.18698 0.367342,0.1572426 c 1.455198,0.6229054 2.489925,1.581157 3.135611,2.903861 0.992683,2.033537 0.764324,4.37004 -0.607027,6.210939 -0.112844,0.151482 -0.409549,0.475953 -0.67146,0.734299 -0.340814,0.336174 -0.473351,0.485324 -0.484163,0.544853 -0.0082,0.04508 -0.02623,0.802493 -0.04009,1.683136 l -0.02521,1.601168 -0.07568,0.09922 c -0.140344,0.184001 -0.17018,0.188716 -1.201959,0.189967 l -0.924087,0.0011 -0.112355,-0.07434 c -0.197711,-0.130824 -0.202603,-0.156206 -0.23373,-1.212772 -0.01525,-0.517592 -0.03546,-0.971881 -0.04491,-1.009532 -0.0095,-0.03788 -0.04991,-0.08174 -0.09048,-0.09821 -0.127842,-0.05189 -1.850615,-0.08327 -3.685496,-0.06713 l -1.768081,0.01555 -0.12307,0.08468 c -0.18805,0.129381 -0.190514,0.142973 -0.238228,1.313966 -0.03889,0.954442 -0.03486,0.936653 -0.235965,1.040967 -0.106273,0.05512 -0.162502,0.05938 -0.8680456,0.06575 -0.4149264,0.0037 -0.8120792,-0.002 -0.882562,-0.01286 z M 5.7970589,14.915593 c 0.2068315,-0.09672 0.362095,-0.237514 0.4610397,-0.418068 0.072453,-0.132212 0.08335,-0.183388 0.093134,-0.437387 0.01067,-0.277001 0.00781,-0.294294 -0.077118,-0.466814 -0.1084682,-0.220329 -0.3425551,-0.439647 -0.5388394,-0.504843 -0.1894493,-0.06292 -0.6348923,-0.04637 -0.7904229,0.02937 -0.1538936,0.07494 -0.3800847,0.307555 -0.4624119,0.475534 -0.059449,0.121299 -0.06847,0.178362 -0.06847,0.433089 0,0.270157 0.00629,0.304728 0.079447,0.436708 0.1132616,0.204328 0.3145956,0.391466 0.5094356,0.473515 0.2261033,0.09521 0.5647163,0.08622 0.7942053,-0.0211 z M 18.164055,11.064706 c 0.0324,-0.02305 0.09527,-0.08521 0.139706,-0.138126 0.07365,-0.0877 0.0808,-0.115094 0.0808,-0.309546 0,-0.190904 -0.0083,-0.224178 -0.0787,-0.316493 -0.109427,-0.143441 -0.175275,-0.179714 -0.36836,-0.202919 -0.09221,-0.01108 -1.696786,-0.02045 -3.565734,-0.02082 l -3.398088,-6.73e-4 -0.116572,0.09233 c -0.152472,0.120759 -0.226224,0.268316 -0.226224,0.452609 0,0.221848 0.141683,0.432493 0.322488,0.479456 0.0301,0.0078 1.651556,0.01239 3.603248,0.01016 3.105022,-0.0036 3.555892,-0.0093 3.607437,-0.04597 z"
     id="path857" />
</svg>
