<svg width="100" height="100" viewBox="0 0 100 100" fill="none" xmlns="http://www.w3.org/2000/svg">
<path d="M1.78549 39.286H78.5727V50.0005C78.5727 50.4842 78.7487 50.9021 79.1018 51.2561C79.4558 51.6099 79.8745 51.7864 80.358 51.7864C80.8791 51.7864 81.3072 51.6192 81.6408 51.2842L99.4987 33.427C99.8323 33.0921 99.9996 32.6641 99.9996 32.1438C99.9996 31.6225 99.8323 31.1943 99.4973 30.8602L81.6971 13.0585C81.2503 12.6859 80.8035 12.5002 80.3567 12.5002C79.8364 12.5002 79.4081 12.6676 79.0739 13.0022C78.7395 13.3374 78.5724 13.7646 78.5724 14.2857V25.0003H1.78549C1.30193 25.0003 0.883461 25.1768 0.530077 25.5303C0.176692 25.8839 0 26.3022 0 26.7857V37.5003C0 37.9838 0.176497 38.4023 0.530077 38.7557C0.883657 39.1091 1.30193 39.286 1.78549 39.286Z" fill="#083D60"/>
<path d="M98.2147 60.7158H21.4282V50.0009C21.4282 49.5174 21.2513 49.0989 20.8982 48.7455C20.5446 48.3919 20.1259 48.2155 19.6426 48.2155C19.1213 48.2155 18.6938 48.3828 18.359 48.7174L0.501931 66.5737C0.167897 66.9095 0 67.3363 0 67.8582C0 68.3412 0.167115 68.751 0.501931 69.0847L18.3035 86.9425C18.7501 87.3143 19.1965 87.4998 19.6431 87.4998C20.1265 87.4998 20.5452 87.3233 20.8986 86.9707C21.2517 86.6163 21.4286 86.1988 21.4286 85.7145V75.0004H98.2147C98.699 75.0004 99.1163 74.8246 99.4709 74.4707C99.8241 74.1167 100 73.6988 100 73.2145V62.5004C100 62.0166 99.8235 61.5987 99.4709 61.2455C99.1163 60.8923 98.6988 60.7158 98.2147 60.7158Z" fill="#083D60"/>
</svg>
