<svg width="100" height="82" viewBox="0 0 100 82" fill="none" xmlns="http://www.w3.org/2000/svg">
<g clip-path="url(#clip0)">
<path d="M94.5013 32.0972V8.52515C94.5013 6.26414 93.6031 4.09573 92.0043 2.49696C90.4055 0.898183 88.2371 0 85.9761 0L8.52515 0C6.26414 0 4.09573 0.898183 2.49696 2.49696C0.898183 4.09573 0 6.26414 0 8.52515L0 72.6769C0 74.9379 0.898183 77.1063 2.49696 78.7051C4.09573 80.3039 6.26414 81.2021 8.52515 81.2021H86.104C88.365 81.2021 90.5334 80.3039 92.1322 78.7051C93.731 77.1063 94.6292 74.9379 94.6292 72.6769V57.5874C96.1256 57.4596 97.5199 56.7761 98.5376 55.6716C99.5554 54.5672 100.123 53.1217 100.128 51.6198V38.1074C100.131 36.5777 99.5507 35.1044 98.5053 33.9876C97.4598 32.8709 96.0279 32.1948 94.5013 32.0972ZM8.52515 4.26258H86.104C87.2345 4.26258 88.3187 4.71167 89.1181 5.51105C89.9175 6.31044 90.3666 7.39465 90.3666 8.52515V9.88917C89.0763 9.12631 87.6029 8.7285 86.104 8.73828H8.52515C7.02624 8.7285 5.55287 9.12631 4.26257 9.88917V8.52515C4.26257 7.39465 4.71167 6.31044 5.51105 5.51105C6.31044 4.71167 7.39464 4.26258 8.52515 4.26258V4.26258ZM86.104 76.7264H8.52515C7.39464 76.7264 6.31044 76.2773 5.51105 75.4779C4.71167 74.6785 4.26257 73.5943 4.26257 72.4638V17.0503C4.26257 15.9198 4.71167 14.8356 5.51105 14.0362C6.31044 13.2368 7.39464 12.7877 8.52515 12.7877H86.104C87.2345 12.7877 88.3187 13.2368 89.1181 14.0362C89.9175 14.8356 90.3666 15.9198 90.3666 17.0503V32.0546H70.162C66.7705 32.0546 63.5179 33.4018 61.1197 35.8C58.7215 38.1982 57.3743 41.4508 57.3743 44.8423C57.3743 48.2338 58.7215 51.4864 61.1197 53.8846C63.5179 56.2827 66.7705 57.63 70.162 57.63H90.2387V72.6769C90.1855 73.7483 89.7303 74.7603 88.9639 75.5109C88.1975 76.2615 87.1763 76.6955 86.104 76.7264ZM95.7374 51.4919C95.7374 51.9667 95.5488 52.4221 95.2131 52.7578C94.8773 53.0936 94.422 53.2822 93.9471 53.2822H70.162C67.901 53.2822 65.7326 52.384 64.1338 50.7852C62.535 49.1865 61.6368 47.018 61.6368 44.757C61.6368 42.496 62.535 40.3276 64.1338 38.7288C65.7326 37.1301 67.901 36.2319 70.162 36.2319H93.7766C94.2515 36.2319 94.7068 36.4205 95.0426 36.7563C95.3783 37.092 95.5669 37.5474 95.5669 38.0222L95.7374 51.4919Z" fill="#083D60" stroke="#083D60" stroke-width="2"/>
<path d="M70.3322 47.9113C72.2626 47.9113 73.8275 46.3464 73.8275 44.416C73.8275 42.4856 72.2626 40.9207 70.3322 40.9207C68.4018 40.9207 66.8369 42.4856 66.8369 44.416C66.8369 46.3464 68.4018 47.9113 70.3322 47.9113Z" fill="#083D60"/>
</g>
<defs>
<clipPath id="clip0">
<rect width="100" height="81.0742" fill="white"/>
</clipPath>
</defs>
</svg>
